<svg width="100" height="100" viewBox="0 0 100 100" fill="none" xmlns="http://www.w3.org/2000/svg">
<g clip-path="url(#clip0_430_50783)">
<rect width="100" height="100" fill="#E35800"/>
<path d="M41.6209 32.6444L41.6512 29.9815C41.6523 29.8881 41.6814 29.7971 41.7347 29.7202C41.788 29.6433 41.8631 29.5839 41.9504 29.5497L46.5281 27.7504C46.5664 27.7354 46.6007 27.7115 46.6282 27.6808C46.6557 27.6501 46.6755 27.6134 46.6862 27.5736C46.6969 27.5338 46.6981 27.492 46.6897 27.4517C46.6813 27.4114 46.6636 27.3736 46.6379 27.3413C46.3311 26.955 46.0293 26.5617 45.7326 26.1614C45.2894 25.5591 45.4656 24.2201 45.475 23.5042C45.5527 18.6406 52.2345 17.5383 53.8898 22.0421C54.2478 23.0118 54.2402 24.5402 54.1587 25.544C54.1114 26.1368 53.3936 26.8053 52.9959 27.2826C52.9663 27.3183 52.9456 27.3604 52.9354 27.4056C52.9252 27.4508 52.9259 27.4977 52.9373 27.5426C52.9488 27.5875 52.9707 27.6291 53.0013 27.6639C53.0319 27.6987 53.0702 27.7257 53.1133 27.7428L57.6928 29.561C57.7799 29.5957 57.8545 29.6558 57.9069 29.7335C57.9592 29.8112 57.9869 29.9029 57.9864 29.9966L57.9637 32.5042C57.9611 32.8148 58.0596 32.8508 58.2591 32.6122C59.1455 31.5478 59.6284 30.2182 59.9845 28.8546C60.7705 25.8603 59.958 22.4057 58.0943 20.0648C54.4372 15.4644 47.905 14.6311 43.3387 18.2712C43.2974 18.3039 43.2461 18.3209 43.1939 18.3192C43.1418 18.3175 43.0924 18.2971 43.0546 18.2618C42.696 17.9297 42.3848 17.5869 42.1209 17.2334C41.8911 16.9265 41.9113 16.6753 42.1815 16.4796C43.5527 15.4872 45.0697 14.6974 46.7326 14.3356C49.583 13.7163 52.9959 13.9019 55.6265 15.3319C59.6512 17.5194 61.8595 21.0894 62.3728 25.6387C62.4125 25.9909 62.6796 26.3565 62.9656 26.6387C65.3292 28.9796 67.6859 31.3287 70.0356 33.686C70.1657 33.8161 70.2875 33.9676 70.4012 34.1406C70.4319 34.1872 70.4451 34.2432 70.4385 34.2987C70.4319 34.3541 70.406 34.4054 70.3652 34.4436L69.2402 35.489C69.1884 35.5371 69.1199 35.5632 69.0493 35.5618C68.9786 35.5604 68.9112 35.5316 68.8614 35.4815L62.3557 28.9531C62.3442 28.9414 62.3299 28.9328 62.3142 28.9283C62.2984 28.9238 62.2817 28.9234 62.2656 28.9272C62.2495 28.931 62.2345 28.9388 62.2222 28.95C62.2098 28.9611 62.2003 28.9752 62.1947 28.9909C61.9738 29.6324 61.7395 30.2788 61.4921 30.9303C57.8235 40.5856 44.7989 41.8546 39.2402 33.2353C36.3652 28.7788 36.6663 22.8906 39.9447 18.7163C39.9738 18.6792 40.0101 18.6483 40.0514 18.6257C40.0927 18.603 40.1382 18.5889 40.1851 18.5843C40.2321 18.5797 40.2794 18.5846 40.3244 18.5989C40.3693 18.6131 40.4109 18.6363 40.4466 18.6671L41.4997 19.5667C41.5635 19.6214 41.6044 19.698 41.6143 19.7812C41.6241 19.8645 41.6021 19.9482 41.5527 20.0156C39.357 23.0181 38.8033 26.2763 39.8917 29.7902C40.2099 30.8129 40.8046 31.7826 41.3747 32.7125C41.3896 32.7374 41.4122 32.7566 41.4391 32.7674C41.4661 32.7781 41.4957 32.7797 41.5237 32.772C41.5516 32.7643 41.5762 32.7476 41.5938 32.7246C41.6113 32.7015 41.6208 32.6733 41.6209 32.6444ZM51.8709 22.6462C51.2913 20.9095 48.7648 20.811 47.8822 22.3622C47.5129 23.0118 47.5205 23.8868 47.5754 24.6406C47.6303 25.3773 48.1966 26.0459 48.6587 26.5724C49.1815 27.1671 49.8065 27.2182 50.5262 27.0231C50.5841 27.0084 50.6369 26.9761 50.6777 26.9303C51.0615 26.4872 51.4214 26.0244 51.7572 25.5421C52.2667 24.8129 52.1133 23.3754 51.8709 22.6462ZM44.0906 35.2334C47.7288 37.4531 52.0091 37.5307 55.6398 35.1822C55.7141 35.1346 55.7753 35.0688 55.8176 34.9911C55.86 34.9133 55.8822 34.826 55.8822 34.7372V31.4095C55.8821 31.317 55.8547 31.2267 55.8034 31.1502C55.7521 31.0736 55.6794 31.0142 55.5943 30.9796C54.2976 30.4518 53.0521 29.9505 51.8576 29.4758C50.7231 29.0231 49.1796 28.9739 48.03 29.4057C46.7534 29.8842 45.4012 30.4265 43.9731 31.0326C43.8921 31.0671 43.8233 31.1253 43.7757 31.1996C43.7281 31.2739 43.7038 31.3609 43.7061 31.4493C43.7301 32.4417 43.737 33.4752 43.7269 34.5497C43.7231 34.8981 43.8065 35.061 44.0906 35.2334Z" fill="white"/>
<path d="M18.2139 56.0781C18.2285 56.0882 18.2457 56.0941 18.2635 56.0951C18.2812 56.0961 18.2989 56.0921 18.3146 56.0837C18.3303 56.0753 18.3433 56.0627 18.3523 56.0473C18.3612 56.032 18.3658 56.0144 18.3654 55.9966L18.3257 53.3754C18.324 53.2635 18.3564 53.1537 18.4187 53.0607C18.4809 52.9676 18.57 52.8957 18.6741 52.8546L23.2594 51.0478C23.2951 51.0337 23.327 51.0112 23.3522 50.9822C23.3774 50.9532 23.3952 50.9185 23.4041 50.8811C23.413 50.8438 23.4128 50.8048 23.4034 50.7675C23.394 50.7302 23.3758 50.6958 23.3503 50.6671C22.8332 50.0913 22.2613 49.4663 22.1779 48.6671C22.0416 47.366 22.0889 45.8243 22.7272 44.7088C24.123 42.2713 27.3522 41.6917 29.4147 43.6292C30.9204 45.0459 30.8863 46.6425 30.8332 48.5535C30.8067 49.4682 30.1817 50.0175 29.6495 50.6785C29.6268 50.7069 29.6112 50.7403 29.6037 50.776C29.5963 50.8116 29.5973 50.8485 29.6067 50.8837C29.6161 50.9188 29.6336 50.9513 29.6578 50.9785C29.682 51.0057 29.7123 51.0268 29.7461 51.0402L34.2234 52.7978C34.3577 52.8505 34.4732 52.9421 34.5552 53.0609C34.6372 53.1796 34.6819 53.3201 34.6836 53.4644L34.7082 55.7504C34.712 56.1671 34.8294 56.2024 35.0605 55.8565C37.6097 52.0497 37.64 46.9266 34.7139 43.3432C34.6681 43.2869 34.6445 43.2158 34.6476 43.1435C34.6508 43.0712 34.6804 43.0027 34.731 42.9512C35.0592 42.6128 35.4368 42.306 35.8635 42.0307C36.2783 41.7618 36.3787 42.0118 36.5794 42.2864C40.4185 47.5705 39.712 54.8319 34.8162 59.169C29.0832 64.2504 20.087 63.0364 15.9507 56.5686C14.2638 53.9322 13.671 50.9606 14.1722 47.6538C14.8995 42.8394 18.4885 39.0288 23.1022 37.6936C23.9393 37.4512 24.9222 37.3394 25.8238 37.2258C26.008 37.2024 26.1792 37.1185 26.3105 36.9872L33.9582 29.3413C34.1716 29.1292 34.3825 29.1317 34.5908 29.3489L35.5416 30.3413C35.5878 30.3893 35.6133 30.4535 35.6126 30.5201C35.6119 30.5868 35.585 30.6504 35.5378 30.6974L28.9639 37.2864C28.9498 37.3004 28.9397 37.3179 28.9348 37.3371C28.9299 37.3564 28.9302 37.3766 28.9359 37.3956C28.9415 37.4147 28.9522 37.4318 28.9668 37.4453C28.9814 37.4587 28.9994 37.468 29.0188 37.472C30.9961 37.8912 32.7733 38.7353 34.3503 40.0042C34.3774 40.026 34.3997 40.0531 34.4158 40.084C34.432 40.1148 34.4416 40.1487 34.4441 40.1835C34.4465 40.2183 34.4419 40.2533 34.4303 40.2863C34.4187 40.3193 34.4005 40.3496 34.3768 40.3754L33.2783 41.5667C33.2438 41.6044 33.1964 41.6277 33.1455 41.6319C33.0945 41.6361 33.0439 41.621 33.0037 41.5894C28.1912 37.8186 21.356 38.8508 17.8711 43.8319C15.3635 47.4152 15.4885 52.2788 18.0207 55.8716C18.0889 55.9689 18.1533 56.0377 18.2139 56.0781ZM28.7063 48.025C28.9222 46.7694 28.6211 45.1803 27.3313 44.7125C25.9431 44.2088 24.3995 45.1349 24.2669 46.5231C24.1817 47.4 24.1495 48.2334 24.5946 48.8735C24.8597 49.2561 25.1344 49.6292 25.4185 49.9928C25.8825 50.5913 27.0094 50.5232 27.5207 50.0762C27.6988 49.9221 27.9437 49.6046 28.2556 49.1235C28.4942 48.7548 28.6445 48.3887 28.7063 48.025ZM20.8825 58.6027C24.6476 60.8148 28.6363 60.847 32.2783 58.4625C32.4892 58.3249 32.594 58.1949 32.5927 58.0724C32.5763 56.9676 32.5681 55.835 32.5681 54.6747C32.5681 54.5889 32.5423 54.5051 32.4939 54.4344C32.4456 54.3637 32.377 54.3095 32.2972 54.2788C31.272 53.8887 30.2448 53.4853 29.2158 53.0686C28.2663 52.6848 27.5258 52.4726 26.9942 52.4322C26.0674 52.3615 25.1584 52.5118 24.2669 52.883C23.0548 53.3868 21.8604 53.8533 20.6836 54.2826C20.6081 54.3099 20.5428 54.3598 20.4967 54.4256C20.4506 54.4914 20.4259 54.5697 20.426 54.65C20.4286 55.7548 20.4241 56.8167 20.4128 57.8356C20.4071 58.2561 20.5454 58.4057 20.8825 58.6027Z" fill="white"/>
<path d="M50.4412 31.2312L49.195 31.2356C48.9471 31.2364 48.7468 31.4381 48.7477 31.686L48.752 32.9398C48.7529 33.1877 48.9546 33.3879 49.2025 33.3871L50.4487 33.3827C50.6966 33.3818 50.8968 33.1802 50.896 32.9323L50.8916 31.6785C50.8907 31.4306 50.6891 31.2303 50.4412 31.2312Z" fill="white"/>
<path d="M64.7732 56.1178C64.7869 56.1271 64.8029 56.1326 64.8194 56.1334C64.836 56.1343 64.8525 56.1307 64.8671 56.1229C64.8817 56.1151 64.8939 56.1034 64.9024 56.0892C64.9109 56.0749 64.9153 56.0586 64.9152 56.0421L64.9417 53.3318C64.943 53.2315 64.9739 53.134 65.0306 53.0516C65.0873 52.9693 65.1671 52.906 65.2599 52.8697L69.9361 51.0231C69.9656 51.0114 69.9918 50.9927 70.0125 50.9686C70.0332 50.9445 70.0477 50.9159 70.0548 50.8851C70.0619 50.8543 70.0613 50.8223 70.0532 50.7919C70.045 50.7615 70.0295 50.7336 70.008 50.7106C69.4417 50.1027 68.8849 49.4852 68.8054 48.6254C68.6179 46.5875 68.8281 44.6178 70.5497 43.3243C71.8376 42.3565 73.7296 42.186 75.1709 42.9871C77.4247 44.2409 77.5724 46.3697 77.4417 48.6481C77.3906 49.5231 76.8092 50.025 76.2808 50.6424C76.1318 50.818 76.164 50.9486 76.3773 51.0345L80.9891 52.8659C81.0939 52.9076 81.1833 52.9806 81.245 53.0749C81.3067 53.1691 81.3377 53.28 81.3338 53.3924L81.2505 55.989C81.2502 56.0067 81.2546 56.0241 81.2632 56.0395C81.2718 56.055 81.2843 56.0678 81.2995 56.0769C81.3147 56.0859 81.332 56.0907 81.3496 56.091C81.3673 56.0912 81.3847 56.0867 81.4001 56.0781C81.5087 56.0149 81.6052 55.9221 81.6898 55.7996C84.3773 51.9171 84.2145 46.8527 81.241 43.1955C81.1892 43.1323 81.1949 43.0749 81.258 43.0231L82.527 41.9739C82.5663 41.9416 82.6119 41.9176 82.6607 41.9035C82.7096 41.8894 82.7608 41.8854 82.8112 41.8918C82.8616 41.8982 82.9101 41.9148 82.9537 41.9407C82.9974 41.9665 83.0352 42.001 83.0648 42.0421C89.0402 50.2996 84.1141 61.364 73.9777 62.3034C73.5005 62.347 73.1842 62.6936 72.8357 63.0421C70.5503 65.335 68.2662 67.6292 65.9834 69.9246C65.8016 70.1077 65.6217 70.2586 65.4436 70.3773C65.3994 70.4059 65.3466 70.4183 65.2944 70.4125C65.2423 70.4066 65.1939 70.3828 65.1577 70.3451L64.2296 69.3697C64.0137 69.1437 64.0169 68.9202 64.2391 68.6993L70.6633 62.2864C70.677 62.2728 70.6869 62.2559 70.6918 62.2372C70.6967 62.2186 70.6966 62.199 70.6913 62.1804C70.6861 62.1618 70.676 62.145 70.6621 62.1317C70.6482 62.1184 70.631 62.109 70.6122 62.1046C66.7839 61.1753 63.9638 59.0875 62.152 55.8413C57.6179 47.7125 63.3622 37.5421 72.6425 37.2466C75.5907 37.1532 78.2782 37.9966 80.705 39.7769C80.9992 39.9928 81.0503 40.227 80.8584 40.4796C80.5566 40.8773 80.2479 41.251 79.9323 41.6008C79.909 41.6273 79.8767 41.6443 79.8414 41.6485C79.8062 41.6527 79.7704 41.6438 79.741 41.6235C79.027 41.1349 78.2448 40.6121 77.4872 40.2693C71.5705 37.5799 64.777 40.7996 63.0194 46.9909C62.3489 49.3527 62.6236 52.1841 63.7845 54.4455C63.9948 54.8527 64.4114 55.8735 64.7732 56.1178ZM75.2618 48.5174C75.5667 47.3906 75.5175 45.8584 74.4796 45.0553C73.2656 44.1159 71.2505 44.6671 70.9815 46.1841C70.8508 46.9171 70.7258 48.1614 71.1539 48.811C71.7505 49.7125 72.2921 50.6576 73.5667 50.3697C73.8357 50.3078 74.0914 50.1361 74.3338 49.8546C74.8856 49.2106 75.1949 48.7649 75.2618 48.5174ZM69.0743 59.4246C72.3963 60.7504 75.5661 60.508 78.5838 58.6974C78.9342 58.4871 79.2296 58.3375 79.2239 57.9777C79.2075 56.8413 79.1936 55.7081 79.1823 54.5781C79.1817 54.5149 79.162 54.4535 79.1259 54.4017C79.0897 54.35 79.0387 54.3105 78.9796 54.2883C77.7309 53.8224 76.4708 53.3318 75.1993 52.8167C73.8262 52.2599 72.4266 52.2788 71.027 52.8394C69.7858 53.3369 68.5554 53.8116 67.3357 54.2637C67.256 54.2928 67.1874 54.3463 67.1396 54.4166C67.0917 54.4869 67.0669 54.5705 67.0686 54.6557C67.0914 55.8047 67.0863 56.9095 67.0535 57.9701C67.0345 58.5477 68.6141 59.2409 69.0743 59.4246Z" fill="white"/>
<path d="M50.0527 44.5913C51.5073 43.5459 53.3387 43.508 54.7516 44.5175C56.7194 45.9247 57.049 48.7542 55.691 50.686C55.4056 51.0926 55.0041 51.5269 54.4865 51.9891C53.0458 53.2807 51.5704 54.5837 50.0603 55.8981C49.989 55.96 49.8977 55.9938 49.8033 55.9935C49.709 55.9931 49.6179 55.9586 49.5471 55.8962C48.1266 54.6399 46.6885 53.3571 45.2327 52.0478C44.1342 51.0629 43.316 50.1292 43.1209 48.6008C42.6777 45.133 46.5357 42.3224 49.5641 44.5875C49.6347 44.6398 49.72 44.6683 49.8078 44.669C49.8956 44.6697 49.9814 44.6425 50.0527 44.5913ZM49.5982 47.7902C48.9846 46.7902 47.9543 45.4587 46.6436 45.9474C46.1588 46.1292 45.7731 46.4461 45.4865 46.8981C44.6872 48.1576 45.4599 49.4606 46.4315 50.3337C47.5287 51.3199 48.6209 52.287 49.708 53.2353C49.7387 53.262 49.7781 53.2768 49.8188 53.2768C49.8596 53.2768 49.8989 53.262 49.9296 53.2353C51.0723 52.2302 52.1967 51.2308 53.3027 50.2372C53.6639 49.9114 53.9454 49.5755 54.1474 49.2296C54.9145 47.9228 54.2611 46.383 52.8482 45.8962C51.5717 45.4569 50.5736 47.0402 49.9012 47.8148C49.882 47.8374 49.8576 47.8551 49.8302 47.8664C49.8027 47.8777 49.773 47.8824 49.7434 47.88C49.7138 47.8776 49.6852 47.8682 49.66 47.8526C49.6347 47.837 49.6136 47.8156 49.5982 47.7902Z" fill="white"/>
<path d="M27.1498 54.3069L25.8506 54.3001C25.6268 54.2989 25.4444 54.4794 25.4432 54.7032L25.4363 56.0214C25.4351 56.2452 25.6156 56.4277 25.8395 56.4288L27.1387 56.4356C27.3625 56.4368 27.5449 56.2563 27.5461 56.0325L27.553 54.7143C27.5542 54.4904 27.3737 54.308 27.1498 54.3069Z" fill="white"/>
<path d="M73.8178 54.5636L72.4579 54.566C72.2498 54.5664 72.0813 54.7354 72.0817 54.9435L72.0841 56.311C72.0845 56.5191 72.2535 56.6876 72.4617 56.6872L73.8215 56.6848C74.0296 56.6845 74.1981 56.5154 74.1977 56.3073L74.1953 54.9399C74.195 54.7317 74.0259 54.5633 73.8178 54.5636Z" fill="white"/>
<path d="M41.456 79.3773C41.5658 79.5238 41.6214 79.5055 41.6226 79.3224L41.6492 76.6349C41.6503 76.5318 41.6821 76.4315 41.7405 76.3468C41.7989 76.2621 41.8812 76.1969 41.9768 76.1595L46.6321 74.3356C46.6606 74.3249 46.6861 74.3075 46.7065 74.2849C46.727 74.2623 46.7418 74.2351 46.7497 74.2056C46.7576 74.1761 46.7585 74.145 46.7522 74.1149C46.7459 74.0849 46.7327 74.0567 46.7136 74.0326L45.6435 72.6766C45.539 72.5451 45.4799 72.383 45.4749 72.2144C45.4408 71.1557 45.3651 69.8754 45.6624 68.9057C46.4333 66.3849 49.2363 65.0326 51.687 66.2315C52.9017 66.8262 53.6984 67.83 54.0772 69.2428C54.2325 69.8262 54.17 70.8735 54.1776 71.8091C54.1851 72.7277 53.4844 73.3887 52.8764 73.9834C52.8566 74.0032 52.8415 74.0274 52.8325 74.054C52.8235 74.0806 52.8207 74.1088 52.8243 74.1365C52.828 74.1642 52.838 74.1907 52.8537 74.2137C52.8693 74.2367 52.89 74.2558 52.9143 74.2694C52.9358 74.282 52.9623 74.2946 52.9939 74.3072C54.5469 74.9398 56.2287 75.4872 57.7249 76.2239C57.8072 76.2648 57.8763 76.328 57.9242 76.406C57.9721 76.4841 57.9969 76.5739 57.9958 76.6652L57.9579 79.2769C57.9578 79.3015 57.9663 79.3253 57.9818 79.3443C57.9974 79.3633 58.019 79.3763 58.0431 79.3811C58.1012 79.3925 58.158 79.3634 58.2136 79.294C59.9882 77.0762 60.6435 73.8319 60.0696 71.0572C58.473 63.3205 49.4958 60.0781 43.3101 64.8906C43.2614 64.9288 43.1995 64.9464 43.1377 64.9397C43.0758 64.933 43.0188 64.9025 42.9787 64.8546L41.9029 63.5743C41.8887 63.5574 41.8779 63.5378 41.8713 63.5167C41.8646 63.4955 41.8623 63.4734 41.8645 63.4514C41.8666 63.4295 41.8731 63.4083 41.8836 63.3891C41.8941 63.3698 41.9084 63.3529 41.9257 63.3394C43.8865 61.7763 46.0766 60.8641 48.4958 60.6027C56.1643 59.7712 62.8802 66.1766 62.3575 73.883C61.9863 79.3622 57.8158 84.4966 52.1889 85.3659C48.4446 85.9436 44.9692 85.2694 42.009 82.8716C39.2123 80.6052 37.6428 77.6639 37.3007 74.0478C37.2647 73.6576 37.0431 73.3015 36.742 73.0004C34.3531 70.6052 31.9636 68.2113 29.5734 65.8186C29.4547 65.6999 29.3512 65.5572 29.2628 65.3906C29.1984 65.2719 29.2154 65.1658 29.3139 65.0724L30.348 64.0875C30.5008 63.9411 30.6523 63.943 30.8026 64.0932L37.2798 70.6008C37.3005 70.6212 37.3264 70.6356 37.3546 70.6425C37.3828 70.6494 37.4124 70.6485 37.4401 70.6399C37.4679 70.6314 37.4928 70.6155 37.5123 70.5939C37.5317 70.5724 37.545 70.546 37.5507 70.5175C37.8878 68.8034 38.812 66.4209 40.1207 65.205C40.1553 65.1733 40.2004 65.1556 40.2473 65.1552C40.2942 65.1549 40.3395 65.1719 40.3745 65.2031L41.5942 66.2883C41.637 66.326 41.6637 66.3787 41.6686 66.4354C41.6735 66.4922 41.6564 66.5487 41.6208 66.5932C38.6264 70.3129 38.6435 75.6122 41.456 79.3773ZM51.8461 72.008C51.9497 71.8527 52.0122 71.6829 52.0336 71.4985C52.1946 70.1974 52.1586 68.8091 50.7836 68.15C49.9856 67.7662 49.2255 67.818 48.5033 68.3053C47.5014 68.9815 47.4749 70.2372 47.6056 71.3129C47.6511 71.6879 47.8089 72.0787 48.0791 72.4853C48.4225 73.0004 48.694 73.3338 48.8935 73.4853C49.2533 73.758 50.4692 73.847 50.7761 73.4682C51.1612 72.9897 51.5178 72.5029 51.8461 72.008ZM45.3575 82.5648C48.8941 84.0926 52.2887 83.8451 55.5412 81.8224C55.7685 81.681 55.8827 81.5137 55.884 81.3205C55.8878 80.2308 55.8846 79.1399 55.8745 78.0478C55.8733 77.934 55.8377 77.8233 55.7725 77.7303C55.7072 77.6373 55.6153 77.5664 55.509 77.5269C54.2426 77.0585 52.9579 76.5661 51.6548 76.0497C50.3272 75.5231 48.9806 75.6481 47.6321 76.1974C45.9402 76.8855 44.8209 77.3098 44.2742 77.4701C43.8979 77.58 43.7123 77.8369 43.7173 78.2409C43.7287 79.1715 43.7268 80.1027 43.7117 81.0345C43.706 81.3944 43.8026 81.6519 44.1189 81.8641C44.586 82.1759 44.9989 82.4095 45.3575 82.5648Z" fill="white"/>
<path d="M50.5018 77.6261L49.1381 77.6285C48.9216 77.6289 48.7464 77.8047 48.7468 78.0212L48.7491 79.3659C48.7495 79.5824 48.9253 79.7577 49.1419 79.7573L50.5055 79.7549C50.722 79.7545 50.8972 79.5787 50.8968 79.3622L50.8945 78.0175C50.8941 77.801 50.7183 77.6257 50.5018 77.6261Z" fill="white"/>
</g>
<defs>
<clipPath id="clip0_430_50783">
<rect width="100" height="100" rx="20" fill="white"/>
</clipPath>
</defs>
</svg>
