<svg width="100" height="100" viewBox="0 0 100 100" fill="none" xmlns="http://www.w3.org/2000/svg">
<g clip-path="url(#clip0_430_50753)">
<rect width="100" height="100" fill="#E35800"/>
<path d="M38.8014 32.4217C38.7072 32.4652 38.6601 32.5391 38.6601 32.6434V41.1652C38.6601 41.2321 38.6865 41.2962 38.7334 41.3435C38.7802 41.3908 38.8438 41.4174 38.9101 41.4174C40.6232 41.4159 42.3036 41.4282 43.9514 41.4543C44.7862 41.4674 45.1862 42.3608 44.9058 43.0413C44.6797 43.5891 44.121 43.6717 43.5819 43.6652C42.0601 43.6521 40.4797 43.6579 38.8406 43.6826C38.8152 43.6829 38.7901 43.6882 38.7667 43.6983C38.7433 43.7084 38.7222 43.723 38.7044 43.7414C38.6866 43.7598 38.6726 43.7815 38.6632 43.8054C38.6537 43.8292 38.649 43.8547 38.6493 43.8804C38.6725 47.5355 38.6768 51.2108 38.6623 54.9065C38.6609 55.2181 38.6167 55.4913 38.5297 55.7261C38.2471 56.4956 37.3297 56.5674 36.7862 56.0261C36.534 55.7782 36.4536 55.4282 36.3971 55.0848C36.3887 55.0376 36.3632 54.9951 36.3255 54.9654C36.2878 54.9358 36.2406 54.921 36.1927 54.9239C34.0029 55.0674 31.8877 55.5377 29.8471 56.3348C29.814 56.3478 29.7875 56.3735 29.7732 56.406C29.759 56.4386 29.7582 56.4755 29.771 56.5087C30.5855 58.5869 31.771 60.4391 33.3275 62.0652C34.2493 63.0304 33.134 64.4043 31.9884 63.7347C31.5956 63.5058 31.134 63.0572 30.6036 62.3891C29.4254 60.9 28.571 59.1978 27.7101 57.5282C27.6275 57.3674 27.5101 57.3355 27.358 57.4326L24.5732 59.2108C24.5458 59.2282 24.5229 59.2518 24.5063 59.2796C24.4898 59.3075 24.4799 59.3389 24.4776 59.3714C24.4753 59.4039 24.4805 59.4365 24.493 59.4668C24.5054 59.497 24.5247 59.524 24.5493 59.5456C25.4101 60.3043 26.608 60.9326 27.5862 61.5478C28.0623 61.8478 28.3906 62.4739 28.0014 63.0174C27.4384 63.8043 26.7667 63.6174 26.0058 63.1804C20.9 60.2398 17.3355 56.0521 15.3123 50.6174C13.6754 46.2217 13.621 40.4804 14.8645 35.9369C16.9254 28.4 23.1906 22.2239 30.6014 19.9782C36.8384 18.0869 43.6884 18.7782 49.4167 22.113C49.9514 22.4239 50.7427 22.8413 50.8514 23.4782C51.0058 24.3956 50.0254 25.0391 49.1732 24.5217C47.6355 23.5927 46.0167 22.8224 44.3167 22.2108C44.279 22.1978 44.2536 22.2094 44.2406 22.2456C44.2174 22.3094 44.2333 22.3761 44.2884 22.4456C45.5565 24.0326 46.5543 25.7304 47.2819 27.5391C47.3009 27.5864 47.3309 27.6285 47.3695 27.6618C47.4081 27.6952 47.4541 27.7188 47.5037 27.7307C47.5533 27.7426 47.605 27.7425 47.6545 27.7303C47.7041 27.7182 47.75 27.6943 47.7884 27.6608C48.2797 27.2369 49.2449 26.7717 49.7884 27.3478C50.9232 28.5456 49.2754 29.4108 48.3732 29.7065C48.3218 29.7233 48.2791 29.7598 48.2543 29.8082C48.2295 29.8566 48.2246 29.9129 48.2406 29.9652C49.529 34.0724 50.1514 38.2811 50.108 42.5913C50.1007 43.2971 49.7449 43.6507 49.0406 43.6521H48.7971C48.5791 43.6527 48.3698 43.5671 48.2146 43.414C48.0595 43.2609 47.9711 43.0527 47.9688 42.8348C47.9326 38.8492 47.3761 34.9362 46.2993 31.0956C46.2485 30.9116 46.1304 30.8427 45.9449 30.8891C45.2493 31.063 44.5362 31.3956 43.9384 31.5587C42.3268 32.0007 40.6862 32.2739 39.0167 32.3782C38.9254 32.384 38.8536 32.3985 38.8014 32.4217ZM30.4688 29.0087C32.3369 29.6507 34.2587 30.0377 36.234 30.1695C36.2617 30.1713 36.2894 30.1674 36.3154 30.1581C36.3415 30.1487 36.3653 30.1341 36.3855 30.1151C36.4057 30.0962 36.4218 30.0733 36.4327 30.0479C36.4437 30.0224 36.4493 29.995 36.4493 29.9674L36.4362 21.4782C36.4362 21.4545 36.4308 21.4311 36.4205 21.4098C36.4102 21.3885 36.3953 21.3698 36.3769 21.3551C36.3585 21.3405 36.337 21.3302 36.3142 21.3252C36.2913 21.3202 36.2676 21.3205 36.2449 21.3261C33.2123 22.0434 30.8623 25.8674 29.7884 28.5478C29.7736 28.5838 29.7728 28.624 29.7861 28.6602C29.7994 28.6965 29.8258 28.7262 29.8601 28.7434C30.0906 28.8594 30.2935 28.9478 30.4688 29.0087ZM45.2775 28.5391C44.2014 25.6456 41.9536 22.2543 38.834 21.3021C38.8135 21.2957 38.7918 21.2941 38.7706 21.2976C38.7493 21.3011 38.7292 21.3095 38.7119 21.3222C38.6945 21.3349 38.6804 21.3515 38.6706 21.3707C38.6609 21.3899 38.6558 21.4111 38.6558 21.4326L38.6601 30.0174C38.6601 30.0811 38.6927 30.1174 38.758 30.1261C38.9913 30.1536 39.2232 30.1572 39.4536 30.1369C41.4319 29.9543 43.3326 29.5123 45.1558 28.8108C45.2079 28.7903 45.2499 28.7502 45.2727 28.6994C45.2955 28.6485 45.2972 28.5909 45.2775 28.5391ZM27.8275 27.4304C28.7058 25.6695 29.5732 24.0152 30.7906 22.45C30.834 22.3949 30.8551 22.3565 30.8536 22.3348C30.8478 22.2376 30.7971 22.2065 30.7014 22.2413C28.558 23.0239 26.5551 24.0753 24.6927 25.3956C24.4869 25.5405 24.4811 25.6934 24.6754 25.8543C25.4884 26.521 26.3601 27.1036 27.2906 27.6021C27.3367 27.627 27.3874 27.6424 27.4397 27.6472C27.492 27.652 27.5447 27.6462 27.5948 27.6302C27.6449 27.6142 27.6913 27.5883 27.7313 27.5539C27.7713 27.5196 27.804 27.4776 27.8275 27.4304ZM22.3036 27.5434C18.708 31.1891 16.458 36.1087 16.184 41.1739C16.1754 41.3376 16.2529 41.4195 16.4167 41.4195L24.7362 41.4282C24.8045 41.4283 24.8701 41.4017 24.9192 41.3543C24.9683 41.3068 24.997 41.2421 24.9993 41.1739C25.1007 37.3666 25.7109 33.6471 26.8297 30.0152C26.8402 29.9813 26.8383 29.9446 26.8244 29.9117C26.8105 29.8787 26.7855 29.8515 26.7536 29.8348C25.4768 29.1724 24.2746 28.3985 23.1471 27.513C22.8036 27.2434 22.6123 27.2304 22.3036 27.5434ZM30.234 31.2217C29.863 31.0927 29.5058 30.9659 29.1623 30.8413C29.1351 30.8314 29.1061 30.8272 29.0772 30.8288C29.0483 30.8304 29.02 30.8378 28.994 30.8506C28.9681 30.8633 28.9449 30.8812 28.926 30.9032C28.9071 30.9251 28.8928 30.9506 28.884 30.9782C27.8275 34.3275 27.2811 37.7608 27.2449 41.2782C27.2446 41.2975 27.2482 41.3167 27.2554 41.3346C27.2626 41.3526 27.2732 41.3689 27.2868 41.3826C27.3004 41.3964 27.3165 41.4073 27.3343 41.4148C27.3521 41.4222 27.3713 41.4261 27.3906 41.4261H36.1819C36.2516 41.4261 36.3185 41.3986 36.3679 41.3496C36.4172 41.3007 36.4449 41.2344 36.4449 41.1652L36.4427 32.6739C36.4429 32.6023 36.4156 32.5334 36.3666 32.4816C36.3176 32.4298 36.2507 32.399 36.1797 32.3956C34.1609 32.284 32.179 31.8927 30.234 31.2217ZM16.1862 43.85C16.4449 48.9608 18.7297 53.9521 22.2884 57.613C22.5406 57.8724 22.8275 57.8768 23.1493 57.6261C24.2985 56.7304 25.4949 55.9521 26.7384 55.2913C26.7934 55.2624 26.8359 55.2144 26.8579 55.1563C26.8799 55.0982 26.8799 55.0341 26.858 54.9761C25.5797 51.5652 25.1188 47.5282 24.9754 43.9217C24.9731 43.8529 24.9442 43.7876 24.8947 43.7398C24.8452 43.6919 24.779 43.6651 24.7101 43.6652H16.3601C16.3365 43.6651 16.3132 43.67 16.2915 43.6793C16.2698 43.6887 16.2502 43.7025 16.234 43.7198C16.2177 43.737 16.2051 43.7575 16.1969 43.7799C16.1887 43.8023 16.185 43.8261 16.1862 43.85ZM29.7862 54C31.8616 53.2739 34.0109 52.8521 36.234 52.7348C36.2898 52.732 36.3424 52.7076 36.3808 52.6667C36.4193 52.6258 36.4407 52.5716 36.4406 52.5152L36.4384 43.9782C36.4384 43.7739 36.3362 43.6717 36.1319 43.6717L27.3884 43.6608C27.3679 43.6608 27.3477 43.6649 27.3288 43.6729C27.31 43.6809 27.2928 43.6927 27.2785 43.7074C27.2641 43.7222 27.2528 43.7397 27.2452 43.759C27.2375 43.7782 27.2338 43.7988 27.234 43.8195C27.2935 47.3398 27.8413 50.7782 28.8775 54.1348C28.8872 54.1664 28.9082 54.1933 28.9364 54.2102C28.9645 54.2271 28.9978 54.2328 29.0297 54.2261C29.2181 54.1855 29.4703 54.1101 29.7862 54Z" fill="white"/>
<path d="M64.5826 52.887L64.587 59.5935C64.5868 59.6858 64.6159 59.7759 64.6701 59.8512C64.7243 59.9265 64.8009 59.9831 64.8892 60.013C67.3022 60.837 67.7565 62.4804 68.2 65.0152C68.8681 68.8196 69.5377 72.6246 70.2087 76.4304C70.2681 76.7623 70.3681 77.1529 70.5087 77.6022C70.5319 77.6746 70.5812 77.7101 70.6566 77.7087C74.1174 77.6754 77.5739 77.671 81.0261 77.6956C81.4247 77.6985 81.7921 77.7978 82.1283 77.9935C82.1921 78.0297 82.2312 78.0848 82.2457 78.1587C82.4652 79.2674 81.937 80.7696 81.5218 82.4435C81.3073 83.3102 81.0739 83.9072 80.8218 84.2348C79.9674 85.3478 78.4283 85.4391 77.0609 85.4391C66.4073 85.4348 55.7537 85.4268 45.1 85.4152C42.4348 85.413 40.4979 85.3391 39.2631 83.0609C38.979 82.5362 38.7218 81.6029 38.4913 80.2609C37.5652 74.8667 36.6167 69.4768 35.6457 64.0913C35.3479 62.4435 35.8305 60.8891 37.4066 60.1696C38.4609 59.687 40.0805 59.7674 41.3196 59.8217C41.3453 59.8229 41.3711 59.8188 41.3952 59.8097C41.4193 59.8006 41.4413 59.7867 41.4598 59.7688C41.4783 59.7509 41.493 59.7293 41.5029 59.7055C41.5128 59.6818 41.5177 59.6562 41.5174 59.6304C41.4913 57.4978 41.3109 54.8326 41.8044 53.0022C42.229 51.4268 43.0594 50.1174 44.2957 49.0739C44.8566 48.6 45.7681 48.0833 47.0305 47.5239C48.8652 46.7109 50.7015 45.9051 52.5392 45.1065C53.8239 44.5478 54.7783 43.5283 55.85 42.663C56.0544 42.4978 56.1725 42.1406 56.2044 41.5913C56.2334 41.0768 56.3674 40.1899 56.6066 38.9304C56.6522 38.6978 56.5261 38.4891 56.3435 38.3196C54.2305 36.3688 53.1558 33.9261 53.1196 30.9913C53.0935 28.8739 53.0834 26.7551 53.0892 24.6348C53.1022 20.3109 54.5218 17.0109 58.4239 14.9717C58.9384 14.7022 59.6616 14.4775 60.5935 14.2978C65.3913 13.3652 70.5805 14.5174 72.8674 19.2587C74.1392 21.8956 73.9435 24.8043 73.9109 28.0587C73.8892 30.4572 73.8486 31.8674 73.7892 32.2891C73.4674 34.6239 72.416 36.6507 70.6348 38.3696C70.5073 38.4913 70.4594 38.6855 70.4913 38.9522C70.6145 39.9913 70.7435 41.0297 70.8783 42.0674C70.9848 42.8913 73.6761 44.7848 74.4522 45.1217C76.2479 45.9043 78.0435 46.6877 79.8392 47.4717C81.1595 48.05 82.1044 48.5761 82.6739 49.05C85.237 51.1783 85.4413 53.5435 85.4522 57.0652C85.4681 62.4971 85.4631 67.929 85.437 73.3609C85.4305 74.5804 84.9565 75.0043 83.75 74.6587C83.6842 74.6405 83.6237 74.6067 83.5738 74.5602C83.5238 74.5136 83.4858 74.4557 83.4631 74.3913C83.337 74.0362 83.2739 73.6464 83.2739 73.2217C83.2681 67.2246 83.2703 61.2275 83.2805 55.2304C83.2834 53.4275 82.6623 51.979 81.4174 50.8848C80.9131 50.4413 79.9471 49.9123 78.5196 49.2978C76.9863 48.6384 75.4645 47.9725 73.9544 47.3C73.7457 47.2072 73.608 47.2703 73.5413 47.4891C72.7877 49.9616 72.0131 52.4188 71.2174 54.8609C70.8935 55.85 70.4609 56.4935 69.3326 55.7196C67.8892 54.7326 66.458 53.7116 65.0392 52.6565C64.7348 52.4319 64.5826 52.5087 64.5826 52.887ZM64.7783 20.7587C65.1652 20.0152 66.1718 19.987 66.5435 20.65C66.95 21.3783 67.3826 22.2587 67.9957 22.763C68.9029 23.508 69.9884 23.7217 71.2522 23.4043C71.4884 23.3449 71.5863 23.1391 71.5457 22.787C71.1066 18.9348 68.2892 16.3587 64.4 16.1456C61.9435 16.0109 59.5522 16.4283 57.7109 18.1196C55.8783 19.8043 55.1109 22.3261 55.3435 24.8065C55.3479 24.8545 55.3674 24.8997 55.399 24.9357C55.4307 24.9717 55.473 24.9965 55.5196 25.0065C58.7913 25.7065 61.8261 25.1804 63.8457 22.2978C64.1892 21.8065 64.5 21.2935 64.7783 20.7587ZM70.937 34.3239C71.3544 33.3978 71.5819 32.3964 71.6196 31.3196C71.6834 29.4906 71.6892 27.6442 71.637 25.7804C71.636 25.7531 71.6291 25.7264 71.6166 25.7021C71.6042 25.6777 71.5866 25.6564 71.565 25.6396C71.5435 25.6229 71.5185 25.611 71.4919 25.6049C71.4652 25.5988 71.4376 25.5986 71.4109 25.6043C69.1384 26.1 67.2696 25.487 65.8044 23.7652C65.7912 23.7496 65.7747 23.7371 65.7561 23.7287C65.7375 23.7202 65.7172 23.7161 65.6968 23.7165C65.6764 23.7169 65.6563 23.7219 65.6381 23.7311C65.6198 23.7403 65.6038 23.7534 65.5913 23.7696C63.0261 26.9826 59.679 28.1413 55.55 27.2456C55.5225 27.2395 55.494 27.2396 55.4665 27.2458C55.4391 27.2521 55.4133 27.2645 55.3912 27.282C55.3692 27.2995 55.3513 27.3217 55.3389 27.347C55.3265 27.3723 55.3199 27.4001 55.3196 27.4283C55.2848 30.3891 54.9892 33.1065 56.8761 35.6283C57.9457 37.0609 60.0196 38.8587 61.8913 39.213C63.4479 39.5065 65.587 39.437 66.9392 38.5348C68.3696 37.5783 70.2239 35.9022 70.937 34.3239ZM60.05 40.9804C59.6326 40.8348 59.2652 40.5978 58.8739 40.3717C58.8484 40.3571 58.8198 40.3489 58.7903 40.3477C58.7609 40.3465 58.7316 40.3525 58.7048 40.365C58.678 40.3776 58.6545 40.3964 58.6363 40.4198C58.6181 40.4433 58.6056 40.4708 58.6 40.5C58.5116 40.9928 58.4319 41.4833 58.3609 41.9717C58.25 42.7435 58.7174 43.137 59.1935 43.65C60.5776 45.1485 61.8921 46.6514 63.137 48.1587C63.174 48.2038 63.2204 48.2404 63.2729 48.2661C63.3254 48.2917 63.3827 48.3057 63.4411 48.3071C63.4995 48.3086 63.5575 48.2974 63.6112 48.2744C63.6649 48.2514 63.713 48.2172 63.7522 48.1739C65.345 46.4275 66.8877 44.6746 68.3805 42.9152C68.8305 42.3848 68.5196 41.2043 68.4218 40.5348C68.4174 40.5049 68.4057 40.4765 68.3878 40.4521C68.3698 40.4278 68.3462 40.4082 68.319 40.3951C68.2917 40.382 68.2617 40.3758 68.2314 40.3771C68.2012 40.3783 68.1718 40.3869 68.1457 40.4022C65.6935 41.8391 62.6566 41.8978 60.05 40.9804ZM71.6761 46.2065C71.6916 46.1572 71.6924 46.1045 71.6785 46.0547C71.6646 46.0049 71.6366 45.9603 71.5979 45.9261L70.1913 44.6696C70.165 44.6462 70.1342 44.6283 70.1009 44.6169C70.0676 44.6054 70.0324 44.6007 69.9972 44.6029C69.9621 44.6051 69.9277 44.6143 69.8961 44.6298C69.8645 44.6454 69.8363 44.667 69.8131 44.6935L65.3239 49.7739C65.2993 49.8019 65.2807 49.8346 65.2695 49.8702C65.2582 49.9057 65.2545 49.9432 65.2586 49.9803C65.2627 50.0173 65.2745 50.0531 65.2932 50.0853C65.312 50.1176 65.3372 50.1455 65.3674 50.1674L69.15 52.9239C69.1843 52.949 69.224 52.9656 69.2659 52.9723C69.3078 52.9791 69.3508 52.9757 69.3911 52.9625C69.4315 52.9493 69.4682 52.9267 69.4981 52.8966C69.528 52.8664 69.5502 52.8296 69.5631 52.7891L71.6761 46.2065ZM57.1566 44.7065C57.1143 44.6589 57.055 44.6299 56.9915 44.6258C56.9279 44.6218 56.8654 44.6429 56.8174 44.6848L55.4022 45.9065C55.366 45.9373 55.3397 45.978 55.3265 46.0236C55.3134 46.0693 55.314 46.1178 55.3283 46.163L57.45 52.8152C57.4617 52.8516 57.4817 52.8847 57.5086 52.9118C57.5355 52.9389 57.5685 52.9592 57.6048 52.9711C57.6411 52.983 57.6797 52.9861 57.7174 52.9801C57.7551 52.9742 57.7909 52.9594 57.8218 52.937L61.6696 50.1478C61.697 50.1281 61.72 50.1028 61.7371 50.0736C61.7541 50.0444 61.7648 50.0119 61.7685 49.9783C61.7722 49.9447 61.7688 49.9106 61.7585 49.8784C61.7482 49.8462 61.7312 49.8165 61.7087 49.7913L57.1566 44.7065ZM46.8979 50.0217C42.9435 51.8522 43.7435 56.1239 43.6718 59.5696C43.6689 59.7275 43.7471 59.8065 43.9066 59.8065L62.1609 59.8087C62.1897 59.8087 62.2183 59.803 62.2449 59.792C62.2716 59.7809 62.2958 59.7648 62.3162 59.7444C62.3365 59.724 62.3527 59.6998 62.3638 59.6732C62.3748 59.6465 62.3805 59.618 62.3805 59.5891V52.6826C62.3802 52.6541 62.3722 52.6262 62.3574 52.6018C62.3426 52.5774 62.3215 52.5576 62.2964 52.5444C62.2714 52.5312 62.2433 52.5251 62.2152 52.5269C62.1871 52.5286 62.16 52.5381 62.137 52.5543C60.6631 53.5949 59.1747 54.6543 57.6718 55.7326C56.7805 56.3696 56.1413 56.0283 55.8305 55.0543C55.0189 52.5109 54.2087 49.9797 53.4 47.4609C53.3899 47.4293 53.3734 47.4003 53.3515 47.3755C53.3296 47.3507 53.3027 47.3307 53.2727 47.3168C53.2427 47.3029 53.2101 47.2954 53.177 47.2948C53.1439 47.2941 53.111 47.3003 53.0805 47.313C51.0022 48.1725 48.9413 49.0754 46.8979 50.0217ZM41.1196 81.7652C41.5167 82.7362 42.2834 83.2239 43.4196 83.2283C51.337 83.263 59.2537 83.2768 67.1696 83.2696C67.5493 83.2696 67.9754 83.1819 68.4479 83.0065C68.5205 82.98 68.5803 82.9272 68.6152 82.8587C68.8283 82.4427 68.8863 81.9478 68.7892 81.3739C67.8645 75.8623 66.9225 70.3529 65.9631 64.8456C65.7087 63.3891 65.287 62.0348 63.5283 62.0348C55.3399 62.0348 47.1515 62.0514 38.9631 62.0848C37.7718 62.0913 37.7131 62.6022 37.8805 63.5956C38.7877 68.9623 39.6906 74.3304 40.5892 79.7C40.7326 80.5623 40.9094 81.2507 41.1196 81.7652ZM77.8761 83.2348C78.4196 83.2283 79.1044 83.1674 79.2522 82.5196C79.4218 81.7891 79.6102 81.0072 79.8174 80.1739C79.825 80.1426 79.8253 80.11 79.8185 80.0786C79.8116 80.0471 79.7978 80.0177 79.7779 79.9923C79.758 79.967 79.7327 79.9466 79.7037 79.9324C79.6748 79.9183 79.6431 79.9109 79.6109 79.9109H71.087C71.0554 79.9108 71.0242 79.9181 70.9959 79.932C70.9675 79.9459 70.9427 79.9661 70.9234 79.9911C70.9041 80.0161 70.8908 80.0451 70.8845 80.0761C70.8781 80.107 70.879 80.139 70.887 80.1696C71.1464 81.1638 71.187 82.1645 71.0087 83.1717C71.0062 83.1849 71.0066 83.1984 71.01 83.2114C71.0134 83.2244 71.0197 83.2365 71.0284 83.2469C71.0371 83.2572 71.048 83.2656 71.0604 83.2714C71.0728 83.2772 71.0863 83.2803 71.1 83.2804C73.3551 83.279 75.6138 83.2638 77.8761 83.2348Z" fill="white"/>
<path d="M75.848 62.7976L75.6219 62.798C75.0757 62.7989 74.6336 63.2426 74.6345 63.7888L74.6519 73.754C74.6529 74.3003 75.0965 74.7424 75.6428 74.7414L75.8689 74.7411C76.4152 74.7401 76.8572 74.2965 76.8563 73.7502L76.8389 63.785C76.8379 63.2387 76.3943 62.7966 75.848 62.7976Z" fill="white"/>
<path d="M52.1722 71.532L51.8375 71.5379C51.3453 71.5464 50.9533 71.9524 50.9618 72.4446L50.9678 72.788C50.9764 73.2802 51.3824 73.6722 51.8746 73.6636L52.2093 73.6578C52.7015 73.6492 53.0935 73.2432 53.0849 72.751L53.0789 72.4076C53.0703 71.9154 52.6644 71.5234 52.1722 71.532Z" fill="white"/>
</g>
<defs>
<clipPath id="clip0_430_50753">
<rect width="100" height="100" rx="20" fill="white"/>
</clipPath>
</defs>
</svg>
