<svg width="100" height="100" viewBox="0 0 100 100" fill="none" xmlns="http://www.w3.org/2000/svg">
<g clip-path="url(#clip0_430_50811)">
<rect width="100" height="100" fill="#E35800"/>
<path d="M51.5511 42.9322C51.5214 42.9319 51.492 42.9376 51.4646 42.949C51.4372 42.9604 51.4124 42.9773 51.3916 42.9985C51.3709 43.0198 51.3547 43.045 51.344 43.0727C51.3333 43.1004 51.3283 43.1299 51.3293 43.1596C51.4816 47.0825 49.4609 50.5994 46.2128 52.7874C46.1585 52.8247 46.1208 52.882 46.1075 52.9472C45.9289 53.8607 46.2259 54.8062 47.147 55.1126C47.6883 55.2931 48.5912 55.4672 49.8556 55.6352C50.5574 55.7279 51.1808 55.8281 51.7259 55.9359C52.5586 56.1013 53.4233 56.216 54.1808 56.5205C56.4966 57.4578 58.2472 59.0518 59.4327 61.3025C60.276 62.9015 61.1219 64.486 61.9703 66.0562C61.9773 66.0691 61.9872 66.0802 61.9991 66.0887C62.011 66.0972 62.0247 66.103 62.0391 66.1055C62.0536 66.108 62.0684 66.1073 62.0825 66.1033C62.0966 66.0993 62.1097 66.0922 62.1207 66.0825C62.647 65.6314 63.1263 64.9904 63.4834 64.5863C65.9032 61.8394 68.3168 59.0863 70.724 56.3269C70.9722 56.0412 71.0699 55.7837 71.0699 55.3795C71.0636 41.7417 71.063 33.1339 71.068 29.5562C71.0693 28.9948 71.3124 28.5637 71.7973 28.263C72.5041 27.825 73.0361 28.0318 73.6827 28.5243C76.1113 30.3795 78.2297 32.2179 79.4891 33.2103C80.5605 34.0543 80.6658 35.6464 79.5849 36.5205C77.5925 38.1308 75.6044 39.7454 73.6206 41.3645C73.2616 41.6577 73.177 41.9641 73.177 42.4509C73.1858 46.4234 73.1852 50.3889 73.1752 54.3476C73.1753 54.3628 73.1787 54.3779 73.185 54.3918C73.1913 54.4056 73.2005 54.4179 73.2119 54.4279C73.2233 54.4379 73.2366 54.4453 73.2511 54.4496C73.2655 54.4539 73.2806 54.455 73.2955 54.4528C74.068 54.3476 74.7522 54.0506 75.506 54.2949C76.0342 54.4679 76.6394 54.6145 77.0887 54.8645C79.741 56.3457 80.1846 59.8852 78.256 62.122C75.9001 64.8551 73.5392 67.5838 71.1733 70.3081C70.4452 71.1452 69.9615 71.6533 69.7222 71.8325C69.2046 72.2185 68.7504 72.137 68.3594 71.5882C68.0348 71.1333 68.053 70.6941 68.4139 70.2705C69.9302 68.4911 71.5041 66.6884 73.1357 64.8626C73.1988 64.792 73.2326 64.7001 73.2301 64.6057C73.2277 64.5113 73.1892 64.4216 73.1225 64.3551L69.9778 61.216C69.7034 60.9415 69.4396 60.9509 69.1864 61.2442C67.2829 63.4434 65.3882 65.6157 63.5022 67.7611C62.5342 68.8645 60.9703 68.6558 60.2823 67.357C59.5229 65.9259 58.756 64.4986 57.9816 63.075C57.2547 61.7367 56.6532 60.8162 56.177 60.3137C54.1733 58.1991 51.6432 58.0318 48.9346 57.5731C48.7516 57.5418 48.6113 57.6045 48.5135 57.7611C47.1639 59.9359 45.0643 61.4641 42.5812 62.1615C38.6977 63.2498 34.5511 61.7216 32.0793 58.5863C31.8976 58.3557 31.7504 58.1339 31.6376 57.9209C31.6081 57.865 31.5598 57.8212 31.501 57.7972C31.4423 57.7731 31.3769 57.7703 31.3161 57.7893C29.6695 58.3062 28.0192 58.6709 26.3519 59.1051C25.3005 59.3808 24.501 59.6878 23.9534 60.0261C22.006 61.2291 21.0373 63.1026 21.0473 65.6464C21.0661 70.3156 21.0618 74.9848 21.0342 79.654C21.0286 80.6032 20.9195 81.2085 19.8049 81.0957C19.1188 81.0261 19.006 80.7028 19.0041 80.0731C18.9928 75.0293 19.0047 69.9854 19.0398 64.9416C19.0605 61.9848 20.6451 59.4641 23.1883 58.0243C23.771 57.6947 24.672 57.372 25.8913 57.0562C27.9678 56.5186 30.0505 56.0073 32.1395 55.5224C32.6582 55.4021 33.0323 55.2367 33.4327 54.9415C33.9928 54.5299 33.8876 53.6333 33.85 53.0431C33.8453 52.9665 33.823 52.8921 33.7849 52.8256C33.7467 52.7591 33.6938 52.7023 33.6301 52.6596C31.4891 51.2103 29.7917 49.0374 29.1131 46.5205C28.7917 45.3288 28.506 44.404 28.5831 43.1352C28.5846 43.1126 28.5816 43.09 28.5742 43.0687C28.5669 43.0473 28.5553 43.0277 28.5403 43.0108C28.5252 42.994 28.5069 42.9804 28.4865 42.9708C28.4661 42.9611 28.444 42.9557 28.4214 42.9547C26.949 42.8983 25.8813 42.2022 25.2184 40.8664C24.5455 39.5073 24.9007 38.3025 25.7767 37.1483C25.8138 37.0997 25.8375 37.0421 25.8454 36.9814C25.8534 36.9207 25.8452 36.859 25.8218 36.8025C25.0511 34.9228 25.5342 33.5048 27.271 32.5487C27.4189 32.4672 27.4935 32.2999 27.4947 32.0468C27.5022 29.8701 27.5041 27.6928 27.5004 25.5149C27.5004 24.5994 27.8876 23.3776 28.3462 22.5694C29.3744 20.7555 31.3218 19.2009 33.474 19.0468C33.7923 19.023 34.3876 19.0098 35.2598 19.0073C38.5342 18.9936 41.808 18.9992 45.0812 19.0243C45.5674 19.028 46.0524 19.0487 46.5361 19.0863C49.8988 19.3419 52.4628 22.5299 52.4985 25.7498C52.5298 28.4591 52.5379 30.5268 52.5229 31.9528C52.5173 32.3269 52.5887 32.4848 52.9364 32.6671C54.5022 33.4791 54.8631 35.2536 54.1658 36.8081C54.1536 36.836 54.1483 36.8665 54.1503 36.8969C54.1522 36.9273 54.1614 36.9568 54.177 36.9829C54.412 37.3739 54.6808 37.7498 54.8218 38.154C55.6507 40.5092 54.1075 42.9566 51.5511 42.9322ZM47.6376 32.8758C46.7052 32.2047 47.3349 30.8194 48.4665 31.0675C49.1006 31.2078 49.7197 31.382 50.3237 31.59C50.3401 31.5958 50.3577 31.5974 50.3749 31.5949C50.3922 31.5925 50.4086 31.5859 50.4227 31.5758C50.4369 31.5656 50.4485 31.5523 50.4564 31.5368C50.4643 31.5213 50.4685 31.5041 50.4684 31.4867C50.4521 29.7949 50.4421 28.1045 50.4383 26.4152C50.4346 25.3795 50.318 24.4641 49.865 23.6521C48.709 21.5863 47.0191 21.0055 44.7428 21.0017C41.6952 20.9992 38.6489 20.9998 35.6037 21.0036C34.3368 21.0061 33.4302 21.1013 32.8838 21.2893C31.0831 21.9115 29.6244 23.6991 29.6037 25.6803C29.5837 27.6289 29.5755 29.5581 29.5793 31.4679C29.5792 31.4888 29.5842 31.5095 29.5938 31.5281C29.6035 31.5467 29.6175 31.5627 29.6347 31.5748C29.6519 31.5868 29.6717 31.5944 29.6925 31.5971C29.7133 31.5998 29.7345 31.5973 29.7541 31.59C31.0198 31.1377 32.3061 30.773 33.6131 30.4961C35.0699 30.1878 36.7748 30.0637 38.3613 29.8889C40.1263 29.6934 42.2297 29.9528 44.1902 30.184C45.6432 30.3551 45.2297 32.4509 43.8105 32.2329C41.5661 31.8895 39.4527 31.835 37.4703 32.0694C36.5768 32.1746 35.6833 32.283 34.7898 32.3946C34.1169 32.4798 32.7215 32.8444 30.6037 33.4885C30.0549 33.6552 29.2197 33.9892 28.0981 34.4904C26.9853 34.9867 27.8218 36.6577 28.8819 36.1746C29.8844 35.7185 30.5561 35.4422 30.897 35.3457C32.3575 34.9397 33.8819 34.4904 35.3067 34.2611C38.8481 33.6959 42.3882 33.7718 45.927 34.4885C46.6338 34.6327 47.7817 34.9572 49.3707 35.4622C49.9515 35.6483 50.6432 36.0261 51.35 36.1991C51.8888 36.3306 52.2159 36.1245 52.3312 35.5806L52.3481 35.5055C52.4571 34.9917 52.2691 34.6333 51.7842 34.4303C50.8067 34.0205 49.7748 33.5919 48.7109 33.2931C48.1708 33.1414 47.813 33.0023 47.6376 32.8758ZM73.2823 30.887C73.2727 30.8793 73.261 30.8743 73.2487 30.8729C73.2364 30.8714 73.224 30.8734 73.2128 30.8787C73.2016 30.8841 73.1921 30.8924 73.1855 30.9028C73.1788 30.9133 73.1752 30.9254 73.1752 30.9378L73.1883 38.8983C73.1884 38.9107 73.192 38.9228 73.1986 38.9333C73.2053 38.9437 73.2148 38.9521 73.2259 38.9574C73.2371 38.9627 73.2496 38.9647 73.2619 38.9632C73.2742 38.9618 73.2858 38.9569 73.2955 38.9491L78.1695 34.9603C78.177 34.9542 78.183 34.9464 78.1872 34.9376C78.1913 34.9289 78.1935 34.9193 78.1935 34.9096C78.1935 34.8999 78.1913 34.8903 78.1872 34.8815C78.183 34.8728 78.177 34.865 78.1695 34.8588L73.2823 30.887ZM48.4628 47.1577C49.0179 46.0299 49.3011 44.8776 49.3124 43.7009C49.3312 41.7887 49.3381 39.9071 49.3331 38.0562C49.3326 37.9635 49.3051 37.873 49.254 37.7959C49.2029 37.7187 49.1304 37.6583 49.0455 37.622C45.7428 36.216 41.9496 35.8344 38.397 36.0036C36.2316 36.107 34.0398 36.5919 31.9703 37.2103C31.5931 37.3231 31.1983 37.4979 30.7861 37.7348C30.761 37.749 30.7401 37.7698 30.7256 37.7949C30.7111 37.82 30.7034 37.8485 30.7034 37.8776C30.7046 39.5982 30.7077 41.3206 30.7128 43.0449C30.719 45.4823 31.4596 47.5562 32.9346 49.2667C37.4101 54.4603 45.5041 53.1765 48.4628 47.1577ZM28.5661 40.513L28.5098 38.4491C28.5088 38.4177 28.5016 38.3869 28.4887 38.3583C28.4758 38.3297 28.4574 38.3039 28.4346 38.2824C28.4117 38.261 28.3848 38.2442 28.3555 38.2331C28.3261 38.222 28.2949 38.2169 28.2635 38.2179L28.1676 38.2197C28.0142 38.224 27.863 38.2594 27.7229 38.3241C27.5828 38.3887 27.4564 38.4813 27.351 38.5965C27.2455 38.7117 27.1631 38.8473 27.1085 38.9955C27.0538 39.1437 27.0279 39.3017 27.0323 39.4603L27.0361 39.5844C27.0404 39.7432 27.0749 39.8996 27.1377 40.0448C27.2005 40.1899 27.2903 40.3208 27.402 40.4301C27.5138 40.5394 27.6452 40.6249 27.7888 40.6817C27.9325 40.7385 28.0855 40.7655 28.2391 40.7611L28.3349 40.7573C28.3979 40.7554 28.4576 40.7286 28.5009 40.6828C28.5442 40.637 28.5677 40.576 28.5661 40.513ZM51.3763 38.4322L51.3688 40.5562C51.3688 40.6115 51.3908 40.6646 51.4299 40.7037C51.469 40.7429 51.5221 40.7649 51.5774 40.7649H51.8161C52.1222 40.7658 52.4161 40.6396 52.6333 40.414C52.8504 40.1884 52.973 39.8819 52.974 39.5618V39.434C52.9746 39.2755 52.9452 39.1185 52.8877 38.9719C52.8301 38.8253 52.7456 38.692 52.6387 38.5795C52.5319 38.4671 52.4049 38.3778 52.2651 38.3167C52.1252 38.2557 51.9752 38.224 51.8237 38.2235H51.5849C51.5296 38.2235 51.4765 38.2455 51.4374 38.2846C51.3983 38.3237 51.3763 38.3768 51.3763 38.4322ZM33.9064 57.4773C36.9816 61.4115 43.1996 61.2837 46.2165 57.3645C46.2409 57.3326 46.2577 57.2956 46.2657 57.2563C46.2737 57.217 46.2727 57.1763 46.2628 57.1373C46.2529 57.0982 46.2343 57.0619 46.2083 57.031C46.1824 57 46.1499 56.9752 46.1131 56.9585C44.8588 56.3983 44.1714 55.4271 44.0511 54.0449C44.0461 53.9848 44.0135 53.9578 43.9534 53.9641C43.5787 54.0042 43.3224 54.0518 43.1846 54.107C41.0154 54.9773 38.3049 54.7404 36.1639 53.8927C36.1469 53.8858 36.1285 53.8831 36.1102 53.8847C36.0919 53.8863 36.0743 53.8922 36.0587 53.9019C36.0431 53.9116 36.0301 53.9248 36.0206 53.9406C36.0111 53.9563 36.0054 53.974 36.0041 53.9923C35.9064 55.4134 35.2322 56.4572 33.9816 57.1239C33.9512 57.1398 33.9247 57.1623 33.9041 57.1897C33.8834 57.2171 33.8689 57.2487 33.8618 57.2824C33.8546 57.3161 33.8549 57.351 33.8626 57.3846C33.8703 57.4183 33.8852 57.4499 33.9064 57.4773ZM70.8857 59.263L74.6883 62.8833C74.6988 62.8932 74.7128 62.8987 74.7272 62.8983C74.7417 62.8979 74.7554 62.8919 74.7654 62.8814L76.5943 60.9622C76.8482 60.6959 77.0493 60.3843 77.1862 60.0452C77.3231 59.7061 77.3931 59.3462 77.3922 58.9861C77.3913 58.626 77.3196 58.2727 77.1811 57.9464C77.0426 57.6201 76.84 57.3272 76.5849 57.0844C76.07 56.5944 75.3728 56.3381 74.6467 56.3719C73.9205 56.4058 73.2249 56.727 72.7128 57.2649L70.8838 59.1859C70.8738 59.1964 70.8684 59.2104 70.8688 59.2248C70.8691 59.2393 70.8752 59.253 70.8857 59.263Z" fill="white"/>
<path d="M35.0834 38.622H34.8879C34.3522 38.622 33.918 39.0563 33.918 39.5919V41.6183C33.918 42.1539 34.3522 42.5882 34.8879 42.5882H35.0834C35.6191 42.5882 36.0533 42.1539 36.0533 41.6183V39.5919C36.0533 39.0563 35.6191 38.622 35.0834 38.622Z" fill="white"/>
<path d="M45.1337 38.6239H44.8518C44.3576 38.6239 43.957 39.0245 43.957 39.5186V41.6803C43.957 42.1744 44.3576 42.575 44.8518 42.575H45.1337C45.6279 42.575 46.0285 42.1744 46.0285 41.6803V39.5186C46.0285 39.0245 45.6279 38.6239 45.1337 38.6239Z" fill="white"/>
<path d="M38.9837 46.6821C39.5852 46.9265 40.0476 46.9547 40.7149 46.778C41.3822 46.6032 42.4047 46.0731 42.8521 46.9021C43.4198 47.9528 42.4292 48.5336 41.604 48.778C40.6729 49.0549 39.7431 49.0825 38.8145 48.8607C37.9837 48.6615 36.8671 48.3513 36.9762 47.2686C37.0777 46.246 38.275 46.3927 38.9837 46.6821Z" fill="white"/>
<path d="M29.2733 72.1615H29.0816C28.5511 72.1615 28.1211 72.5915 28.1211 73.122V80.1634C28.1211 80.6938 28.5511 81.1239 29.0816 81.1239H29.2733C29.8038 81.1239 30.2339 80.6938 30.2339 80.1634V73.122C30.2339 72.5915 29.8038 72.1615 29.2733 72.1615Z" fill="white"/>
<path d="M56.318 78.2009C56.1375 77.9629 56.0441 77.9929 56.0379 78.2912C56.0266 78.7974 56.0153 79.3162 56.004 79.8476C55.9871 80.7122 55.8179 81.1878 54.8537 81.107C54.0736 81.0412 53.9213 80.6352 53.9176 79.8964C53.9101 77.9679 53.9082 76.0393 53.9119 74.1107C53.9138 73.2066 53.7935 72.5149 54.6601 72.216C56.2409 71.6709 56.0191 73.9434 56.0097 74.7066C56.0079 74.8128 56.0278 74.9183 56.0682 75.0166C56.1086 75.1148 56.1686 75.2038 56.2446 75.278C56.9389 75.9635 57.6431 76.6677 58.3574 77.3908C58.8261 77.8645 59.197 78.1634 59.4702 78.2874C60.2954 78.6634 61.2089 78.4679 61.8405 77.7517C63.0122 76.4171 64.1826 75.0819 65.3518 73.7461C65.786 73.2479 66.4345 72.8664 66.9965 73.419C67.6131 74.0261 67.4608 74.4923 66.9326 75.0938C65.9827 76.1728 65.0385 77.2573 64.0999 78.3476C63.3643 79.2009 62.7622 79.7655 62.2935 80.0412C59.9777 81.4077 57.7935 80.1333 56.318 78.2009Z" fill="white"/>
</g>
<defs>
<clipPath id="clip0_430_50811">
<rect width="100" height="100" rx="20" fill="white"/>
</clipPath>
</defs>
</svg>
