<svg width="100" height="100" viewBox="0 0 100 100" fill="none" xmlns="http://www.w3.org/2000/svg">
<g clip-path="url(#clip0_430_50772)">
<rect width="100" height="100" fill="#E35800"/>
<path d="M49.6991 22.812C49.7115 22.8229 49.7275 22.8288 49.744 22.8288C49.7605 22.8288 49.7764 22.8229 49.7888 22.812C53.1243 19.8035 56.8209 16.6048 61.0324 14.8932C65.5922 13.0407 70.9555 14.1689 74.6222 17.3612C80.6435 22.6069 81.4063 31.8227 75.9769 37.7458C72.3593 41.6902 66.4747 43.7394 61.323 41.6539C57.1905 39.983 53.2717 36.8676 50.0645 33.8078C49.9768 33.7245 49.861 33.6775 49.7404 33.6763C49.6198 33.6751 49.5034 33.7198 49.4149 33.8013C45.8572 37.0556 41.8123 40.3612 37.2397 41.9659C33.0645 43.4317 27.8786 41.7607 24.6884 38.9531C15.135 30.5513 20.5303 14.4103 33.4811 14.015C36.0381 13.9367 38.4925 14.6418 40.8444 16.1304C41.0231 16.243 41.1526 16.4192 41.2069 16.6237C41.2612 16.8282 41.2363 17.0458 41.1371 17.233L41.0452 17.4039C40.7262 18.005 40.2689 18.1397 39.6734 17.8078C37.6207 16.661 35.9484 16.067 34.6564 16.0257C30.8273 15.9018 27.662 17.1895 25.1606 19.889C19.1328 26.3954 21.7781 36.6304 30.0089 39.686C34.0495 41.186 37.3957 40.1133 40.8252 37.8996C43.0189 36.4823 45.0837 34.9011 47.0196 33.156C48.5645 31.7629 49.7739 30.7757 51.5517 32.359C54.5025 34.9894 57.3636 37.3761 60.9064 39.1945C63.2938 40.421 65.7974 40.6988 68.417 40.0278C74.5516 38.4552 78.4534 32.3505 77.3615 26.0984C76.6393 21.9637 73.823 18.4424 69.9106 16.8761C66.7383 15.6041 63.6507 15.7622 60.6478 17.3505C58.1877 18.6525 55.912 20.2209 53.8209 22.0556C52.9462 22.822 52.0588 23.5741 51.1585 24.312C49.9234 25.3227 48.7418 24.7907 47.6841 23.8398C46.5061 22.7786 45.1471 21.639 43.6072 20.421C43.0915 20.0122 43.0239 19.54 43.4042 19.0043L43.526 18.8313C43.6427 18.6673 43.8188 18.5554 44.0168 18.5195C44.2148 18.4836 44.419 18.5264 44.5858 18.639C46.5004 19.9274 48.0089 21.4039 49.6991 22.812Z" fill="white"/>
<path d="M25.5236 26.2906C26.4104 21.4167 32.3036 17.9103 36.8121 20.1731C40.3912 21.968 43.4531 24.53 46.466 27.4082C47.3677 28.2693 46.7501 28.7244 46.0407 29.406C43.8869 31.4758 41.5607 33.3277 39.0621 34.9616C37.8933 35.7265 36.5813 36.4552 35.2224 36.8056C32.966 37.3868 30.0343 36.3548 28.4018 34.8932C25.8563 32.6112 24.8969 29.7436 25.5236 26.2906ZM31.654 34.4253C34.0365 35.421 35.8591 34.5812 37.9574 33.2052C40.1811 31.7508 42.2487 30.1183 44.1604 28.3077C44.1753 28.2936 44.1872 28.2765 44.1954 28.2576C44.2035 28.2387 44.2077 28.2183 44.2077 28.1977C44.2077 28.1771 44.2035 28.1567 44.1954 28.1378C44.1872 28.1189 44.1753 28.1018 44.1604 28.0877C42.2501 26.2885 40.1839 24.6582 37.9617 23.1966C36.8762 22.483 35.2779 21.5385 33.9638 21.5321C30.6647 21.5171 27.8185 24.1197 27.4467 27.3633C27.0877 30.5001 28.733 33.2052 31.654 34.4253Z" fill="white"/>
<path d="M55.3439 28.2864C55.4551 28.5599 55.8397 28.8291 56.0213 28.9915C57.8062 30.5927 59.6994 32.0549 61.7008 33.3783C62.2521 33.7415 63.3147 34.2664 64.8888 34.9531C65.0684 35.0314 65.2112 35.1757 65.2875 35.3562C65.3638 35.5368 65.368 35.7397 65.2991 35.9231L65.2243 36.124C65.0049 36.7109 64.5954 36.9139 63.9956 36.733C63.0199 36.4381 62.1652 36.067 61.4315 35.6197C58.9501 34.1112 56.6367 32.3797 54.4914 30.4253C53.8696 29.8569 53.22 29.3184 52.6687 28.6325C52.2841 28.156 52.7392 27.6219 53.0512 27.3227C55.9038 24.5727 59.0448 21.9979 62.5106 20.218C66.2243 18.312 70.5811 20.2031 72.7414 23.4637C75.6196 27.8056 73.908 33.6731 69.2927 36.0086C69.2028 36.054 69.1049 36.0811 69.0046 36.0883C68.9042 36.0956 68.8035 36.0828 68.7083 36.0508C68.613 36.0188 68.5251 35.9681 68.4497 35.9018C68.3743 35.8355 68.313 35.7549 68.2692 35.6646L68.1751 35.4702C67.8945 34.8932 68.0277 34.436 68.5747 34.0984C72.9358 31.4146 73.361 25.4872 68.9743 22.5749C66.876 21.1817 64.7122 21.1674 62.4828 22.5321C59.9771 24.0677 57.6196 25.8861 55.4102 27.9872C55.3204 28.0727 55.2984 28.1724 55.3439 28.2864Z" fill="white"/>
<path d="M39.0772 76.9231C40.4105 77.0812 41.7118 77.1838 41.7439 78.8505C41.7937 81.3291 41.7966 82.9858 41.7524 83.8206C41.6755 85.2949 40.4319 85.5877 39.1968 85.5877C33.6057 85.5834 28.0145 85.5734 22.4233 85.5577C21.1327 85.5556 19.7567 85.4894 19.7182 83.8184C19.684 82.3099 19.679 80.7999 19.7033 79.2885C19.731 77.5727 20.5302 76.874 22.231 76.9851C22.2621 76.9871 22.2933 76.9827 22.3226 76.9722C22.3519 76.9616 22.3788 76.9452 22.4016 76.9238C22.4244 76.9024 22.4427 76.8765 22.4552 76.8477C22.4678 76.8189 22.4744 76.7879 22.4746 76.7565C22.4817 75.6254 22.4803 74.5257 22.4704 73.4573C22.4618 72.4894 22.0494 71.7736 21.4084 70.9402C19.4953 68.4587 17.5786 65.9794 15.6584 63.5022C14.0088 61.3718 14.0024 59.8633 14.0003 56.8868C13.9988 51.2273 14.0031 45.5684 14.0131 39.9103C14.0152 38.6304 13.9704 37.4082 15.2118 36.7095C16.5451 35.9552 18.6926 36.6048 19.8144 37.5556C21.902 39.3227 21.8165 41.2501 21.8229 44.2458C21.83 47.0763 21.83 49.911 21.8229 52.7501C21.8229 52.7874 21.8301 52.8231 21.8438 52.854C21.8576 52.8849 21.8776 52.9101 21.902 52.9274C21.9476 52.9587 22.0131 52.9602 22.0986 52.9317C23.6826 52.3946 25.1185 52.4545 26.4063 53.1112C27.0416 53.4345 27.9554 54.2529 29.1477 55.5663C30.4298 56.9765 31.9191 58.436 32.9896 60.0043C33.3336 60.5086 32.4426 61.1582 32.0644 61.3334C32 61.3621 31.9271 61.3644 31.8614 61.3398C31.5551 61.2244 31.2745 61.0264 31.0195 60.7458C28.793 58.3028 27.3664 56.723 26.7396 56.0065C25.4704 54.5549 23.9789 54.2778 22.2652 55.1753C22.1712 55.2251 22.0515 55.3476 21.9063 55.5428C21.8635 55.6026 21.8493 55.6681 21.8635 55.7394C21.9134 55.9787 22.0316 56.203 22.2182 56.4124C24.6726 59.176 27.1235 61.9409 29.5708 64.7073C30.3592 65.5962 30.2631 66.374 29.1349 66.8163C29.0679 66.8419 29.0031 66.8377 28.9404 66.8035C28.5259 66.5784 28.1648 66.2907 27.8571 65.9402C25.3899 63.1354 22.9148 60.3384 20.4319 57.5492C19.8892 56.9381 19.6947 56.2201 19.6968 55.3441C19.7054 50.7344 19.7061 46.124 19.699 41.5129C19.6968 39.874 18.0515 38.3804 16.3998 38.4723C16.2986 38.4783 16.2035 38.5223 16.134 38.5954C16.0644 38.6685 16.0258 38.7651 16.0259 38.8654C16.0131 45.3654 16.0102 51.7921 16.0174 58.1454C16.0174 59.8056 16.2652 60.8783 17.2161 62.1069C19.3329 64.8348 21.4404 67.5691 23.5387 70.3099C24.8785 72.0577 24.5964 74.671 24.5708 76.7736C24.5705 76.8007 24.5756 76.8276 24.5858 76.8527C24.596 76.8778 24.611 76.9007 24.6301 76.92C24.6492 76.9393 24.6719 76.9546 24.6969 76.965C24.7219 76.9754 24.7488 76.9808 24.7759 76.9808L36.7353 76.983C36.7627 76.983 36.789 76.972 36.8086 76.9524C36.8282 76.9328 36.8395 76.9062 36.84 76.8783C36.8728 75.2045 36.882 73.5293 36.8678 71.8526C36.855 70.2458 36.7275 69.0478 36.4853 68.2586C36.0722 66.9039 35.3372 65.5784 34.2802 64.2821C34.2175 64.2053 34.1707 64.1168 34.1422 64.0218C34.1138 63.9268 34.1044 63.8272 34.1145 63.7285C34.1246 63.6299 34.1541 63.5342 34.2012 63.447C34.2483 63.3598 34.3122 63.2827 34.3892 63.2201L34.5601 63.0813C35.0857 62.6553 35.5701 62.6981 36.0131 63.2095C37.996 65.5001 38.9832 68.1681 38.9746 71.2137C38.9704 73.0656 38.9597 74.9181 38.9426 76.7714C38.9419 76.8087 38.9553 76.8448 38.9802 76.8729C39.0051 76.901 39.0397 76.9189 39.0772 76.9231ZM39.6669 79.2778C39.6669 79.2506 39.6616 79.2237 39.6512 79.1985C39.6407 79.1734 39.6255 79.1505 39.6062 79.1313C39.587 79.112 39.5641 79.0968 39.539 79.0863C39.5138 79.0759 39.4869 79.0706 39.4597 79.0706H22.011C21.9837 79.0706 21.9568 79.0759 21.9316 79.0863C21.9065 79.0968 21.8836 79.112 21.8644 79.1313C21.8451 79.1505 21.8299 79.1734 21.8195 79.1985C21.809 79.2237 21.8037 79.2506 21.8037 79.2778V83.3291C21.8037 83.3563 21.809 83.3833 21.8195 83.4084C21.8299 83.4336 21.8451 83.4564 21.8644 83.4757C21.8836 83.4949 21.9065 83.5102 21.9316 83.5206C21.9568 83.531 21.9837 83.5364 22.011 83.5364H39.4597C39.4869 83.5364 39.5138 83.531 39.539 83.5206C39.5641 83.5102 39.587 83.4949 39.6062 83.4757C39.6255 83.4564 39.6407 83.4336 39.6512 83.4084C39.6616 83.3833 39.6669 83.3563 39.6669 83.3291V79.2778Z" fill="white"/>
<path d="M60.3842 76.9808C60.4002 76.9814 60.4161 76.9787 60.431 76.9729C60.4459 76.9672 60.4594 76.9584 60.4708 76.9472C60.4822 76.936 60.4912 76.9226 60.4973 76.9078C60.5033 76.893 60.5063 76.8771 60.506 76.8612C60.4746 75.203 60.4682 73.5492 60.4867 71.8996C60.5053 70.2315 60.6206 68.963 60.8329 68.0941C61.4654 65.4958 62.9846 63.5834 64.8949 61.4979C66.9903 59.2116 69.0658 56.9075 71.1214 54.5855C72.8407 52.6439 74.9369 52.1047 77.4098 52.968C77.4338 52.9766 77.4594 52.9793 77.4846 52.9758C77.5098 52.9724 77.5338 52.963 77.5545 52.9483C77.5753 52.9336 77.5922 52.9141 77.6038 52.8915C77.6155 52.8689 77.6215 52.8438 77.6214 52.8184C77.6313 49.166 77.6342 45.5748 77.6299 42.0449C77.6256 39.6176 78.9184 37.53 81.1812 36.6924C82.1712 36.3248 83.0672 36.2793 83.8692 36.5556C84.9205 36.916 85.4454 37.8206 85.444 39.2693C85.4412 45.6795 85.4404 52.0898 85.4419 58.5C85.4419 61.3996 84.5338 62.5086 82.6107 65.0065C80.9312 67.1874 79.2474 69.3661 77.5594 71.5428C76.6641 72.6988 76.9461 75.3099 76.9568 76.7757C76.9576 76.8124 76.9714 76.8475 76.9958 76.8747C77.0201 76.9018 77.0534 76.919 77.0893 76.9231C79.1726 77.1667 79.7111 77.3676 79.7453 79.624C79.7724 81.5442 79.7667 82.9253 79.7282 83.7671C79.6513 85.4424 78.3628 85.5791 77.0167 85.5791C71.4255 85.5763 65.8343 85.5727 60.2432 85.5684C58.4077 85.5663 57.6043 85.0342 57.6214 83.0727C57.6356 81.2365 57.6555 79.8476 57.6812 78.906C57.7239 77.3248 59.0295 76.9124 60.3842 76.9808ZM79.6983 55.7757C79.694 56.6325 79.2196 57.3911 78.6363 58.0342C76.3913 60.5072 73.8678 63.332 71.0658 66.5086C70.9233 66.6701 70.7245 66.771 70.5102 66.7904C70.296 66.8099 70.0826 66.7465 69.9141 66.6133L69.7239 66.4637C69.1912 66.0421 69.1484 65.5748 69.5957 65.062C72.7752 61.4153 75.3357 58.5164 77.2773 56.3654C77.7175 55.8783 77.5893 55.3462 77.0103 55.077C75.3806 54.322 73.9533 54.6226 72.7282 55.9787C70.5658 58.3733 68.4013 60.765 66.2346 63.1539C64.6299 64.9231 63.5102 66.265 62.9269 68.374C62.7132 69.1446 62.5957 70.2992 62.5744 71.8377C62.5501 73.4929 62.5565 75.1411 62.5936 76.7821C62.5947 76.8346 62.6164 76.8846 62.6539 76.9214C62.6914 76.9581 62.7419 76.9787 62.7944 76.9787L66.8094 76.9894C67.0197 76.9893 67.2216 77.0722 67.3715 77.2201C67.5214 77.368 67.6073 77.5691 67.6107 77.78L67.6149 78.0129C67.6263 78.7109 67.283 79.0606 66.585 79.062L59.9782 79.0727C59.951 79.0727 59.924 79.078 59.8989 79.0883C59.8737 79.0986 59.8509 79.1137 59.8316 79.1328C59.8124 79.1518 59.7971 79.1744 59.7867 79.1993C59.7763 79.2242 59.7709 79.2509 59.7709 79.2778L59.7624 83.3868C59.7624 83.4879 59.8137 83.5385 59.9162 83.5385L77.4355 83.5406C77.4861 83.5406 77.5347 83.5207 77.5707 83.4851C77.6067 83.4495 77.6272 83.4011 77.6278 83.3505L77.6534 79.2821C77.6534 79.2271 77.6316 79.1744 77.5927 79.1355C77.5538 79.0967 77.5011 79.0748 77.4461 79.0748L71.5508 79.0663C70.8657 79.0649 70.5174 78.7208 70.506 78.0342L70.5017 77.7906C70.5 77.6856 70.5193 77.5812 70.5584 77.4837C70.5975 77.3861 70.6556 77.2973 70.7294 77.2225C70.8032 77.1477 70.8912 77.0884 70.9882 77.048C71.0852 77.0076 71.1893 76.9869 71.2944 76.9872L74.6855 76.9979C74.7087 76.9982 74.7317 76.9939 74.7532 76.9852C74.7747 76.9765 74.7942 76.9637 74.8107 76.9474C74.8272 76.9311 74.8403 76.9116 74.8493 76.8902C74.8582 76.8688 74.8628 76.8459 74.8628 76.8227C74.8671 74.7778 74.5466 72.062 75.8521 70.3697C78.0145 67.5649 80.1669 64.7522 82.3094 61.9317C83.0501 60.9559 83.4212 59.7408 83.4226 58.2864C83.4283 52.0542 83.4283 45.822 83.4226 39.5898C83.4226 39.3049 83.4048 39.0214 83.3692 38.7394C83.3585 38.6612 83.32 38.5895 83.2607 38.5373C83.2015 38.4851 83.1255 38.456 83.0466 38.4552C81.3436 38.4445 79.7432 39.8612 79.741 41.5663C79.7367 46.3028 79.7225 51.0392 79.6983 55.7757Z" fill="white"/>
</g>
<defs>
<clipPath id="clip0_430_50772">
<rect width="100" height="100" rx="20" fill="white"/>
</clipPath>
</defs>
</svg>
