<svg width="100" height="100" viewBox="0 0 100 100" fill="none" xmlns="http://www.w3.org/2000/svg">
<g clip-path="url(#clip0_430_50762)">
<rect width="100" height="100" fill="#E35800"/>
<path d="M52.4364 25.1198C57.1616 21.0926 64.8352 23.0752 66.2712 29.0926C66.5397 30.2179 66.5432 31.4608 66.2815 32.8213C65.0852 39.0442 58.6906 43.9356 52.9778 46.7011C52.2918 47.0325 51.641 46.7457 50.9096 46.331C46.7278 43.955 43.1451 41.455 40.4013 37.5732C40.0397 37.0597 39.7092 36.457 40.1472 35.8853C40.6162 35.2748 41.6245 35.3019 42.0728 35.9511C44.6575 39.6973 48.0749 42.3794 52.1658 44.4608C52.3283 44.5422 52.4874 44.5403 52.6431 44.455C56.172 42.5364 59.6059 40.1004 61.9468 36.9473C64.1988 33.9143 65.5232 29.1566 61.9509 26.4434C59.8166 24.8232 56.0459 24.7302 54.11 26.643C53.4488 27.298 52.5501 28.5325 51.7112 27.6895C51.1472 27.1217 50.11 26.174 49.2835 25.7922C46.7257 24.6139 43.3579 25.2554 41.7257 27.424C40.9103 28.508 40.5267 29.7173 40.5749 31.0519C40.59 31.4692 40.6066 31.8878 40.6245 32.3077C40.672 33.3949 39.203 33.8291 38.6224 33.0946C38.4819 32.915 38.3758 32.5816 38.3042 32.0946C37.1988 24.6217 46.2691 20.1023 52.3145 25.1198C52.3317 25.1337 52.3536 25.1414 52.376 25.1414C52.3985 25.1414 52.42 25.1337 52.4364 25.1198Z" fill="white"/>
<path d="M21.8203 70.8233C21.8037 70.8414 21.7982 70.8749 21.8037 70.924C21.9897 72.5616 21.3368 74.2554 19.2996 74.2613C17.2679 74.2677 15.2362 74.2651 13.2046 74.2535C10.5372 74.2361 9.99589 73.4163 10 71.0229C10.0124 62.8678 10.0221 54.7122 10.0289 46.5558C10.0289 44.926 10.031 43.2748 12.3265 43.2244C14.3637 43.1792 16.4002 43.1618 18.436 43.1721C19.2362 43.176 19.6722 43.1824 19.7438 43.1915C21.4649 43.4144 22.0207 45.0713 21.7996 46.4706C21.7925 46.516 21.7959 46.5623 21.8095 46.6063C21.8232 46.6504 21.8468 46.6912 21.8787 46.7259C21.9107 46.7607 21.9502 46.7885 21.9947 46.8077C22.0391 46.8268 22.0875 46.8368 22.1364 46.8368C23.4449 46.8407 24.7535 46.8743 26.062 46.9376C28.9312 47.0759 31.6743 47.6585 34.2913 48.6857C35.8079 49.2826 37.6777 50.3853 39.2542 51.0423C41.6385 52.0364 43.9236 52.4027 46.8637 52.7186C49.8829 53.0429 52.9022 53.364 55.9215 53.6818C57.0889 53.8039 58.3595 53.9706 59.3864 54.426C61.998 55.5771 63.3285 57.7361 63.6095 60.4589C63.6164 60.5241 63.6481 60.5847 63.6986 60.6296C63.7491 60.6745 63.815 60.7006 63.8843 60.7031L66.5455 60.8175C66.7964 60.8276 67.044 60.7624 67.2521 60.6314C72.2838 57.4518 77.3526 54.2742 82.4587 51.0985C85.5847 49.1547 89.6199 51.1217 89.9628 54.5965C90.0703 55.6818 89.8079 56.6508 89.1756 57.5035C88.9456 57.8149 88.2197 58.4861 86.998 59.5171C82.4539 63.3478 77.9126 67.1805 73.374 71.0151C70.9463 73.0675 68.655 73.7748 65.3781 74.2109C58.5916 75.1127 51.8072 76.0261 45.0248 76.9512C42.9091 77.2399 40.9422 77.5364 38.874 76.7961C33.2486 74.7819 27.6226 72.7774 21.9959 70.7826C21.9655 70.7717 21.9323 70.7698 21.9009 70.7771C21.8695 70.7844 21.8414 70.8005 21.8203 70.8233ZM22.2232 68.5442C28.157 70.6159 34.0351 72.738 39.9546 74.8C40.8017 75.0946 41.613 75.1895 42.3885 75.0849C50.3761 74.0035 58.365 72.924 66.3554 71.8465C68.9814 71.4938 70.4897 70.5093 72.6199 68.7089C77.0331 64.9777 81.4532 61.2535 85.8802 57.5364C86.6901 56.8569 87.2018 56.3226 87.4153 55.9337C88.1984 54.5074 87.155 52.8543 85.5413 52.5868C84.8292 52.468 84.1343 52.6224 83.4566 53.05C78.3602 56.2645 73.2583 59.4712 68.1508 62.6702C67.7156 62.9428 67.3065 63.0629 66.9236 63.0306C64.3974 62.8188 62.7617 62.7509 62.0166 62.8271C56.0964 63.4383 50.1729 64.0171 44.2459 64.5636C43.8093 64.6049 43.4856 64.603 43.2748 64.5578C41.7638 64.2412 39.1963 63.6469 35.5723 62.7748C33.9174 62.3756 34.4484 60.3659 35.9856 60.6527C36.9993 60.8414 39.4188 61.395 43.2438 62.3136C43.5827 62.393 44.1488 62.4027 44.4918 62.3678C50.0207 61.8071 55.5365 61.2709 61.0393 60.7593C61.067 60.7569 61.0939 60.7493 61.1185 60.7371C61.1431 60.7248 61.1649 60.7082 61.1826 60.688C61.2002 60.6678 61.2135 60.6445 61.2215 60.6195C61.2295 60.5945 61.2322 60.5682 61.2294 60.5423C60.9918 58.1837 59.5951 56.3 56.9546 56.0093C53.3058 55.6075 49.6571 55.207 46.0083 54.8078C43.0289 54.4841 40.8409 54.05 38.3368 53.0423C36.7645 52.4105 34.6653 51.1585 32.8843 50.4841C29.4628 49.1857 25.7707 48.9783 22.0248 49.0868C21.9901 49.0878 21.9559 49.0954 21.9243 49.1092C21.8928 49.123 21.8646 49.1428 21.8414 49.1672C21.8182 49.1917 21.8005 49.2204 21.7894 49.2516C21.7783 49.2827 21.7741 49.3157 21.7769 49.3485C21.8327 49.9841 21.9814 51.2651 21.438 51.7109C20.8368 52.207 19.5289 51.9454 19.498 51.0132C19.4401 49.2535 19.4339 47.4738 19.4794 45.674C19.4835 45.4596 19.3712 45.3523 19.1426 45.3523L12.5227 45.3388C12.4499 45.3388 12.38 45.3659 12.3284 45.4143C12.2769 45.4626 12.248 45.5282 12.248 45.5965L12.2562 71.7981C12.2562 71.867 12.2854 71.933 12.3373 71.9817C12.3892 72.0304 12.4597 72.0578 12.5331 72.0578L19.2542 72.0771C19.3084 72.0771 19.3604 72.0569 19.3988 72.0209C19.4372 71.985 19.4587 71.9362 19.4587 71.8853C19.4587 66.5416 19.4594 61.1986 19.4608 55.8562C19.4608 54.9434 19.5537 54.2264 20.6922 54.2264C21.6033 54.2283 21.8285 54.9609 21.8306 55.6644C21.8347 59.7987 21.832 63.9118 21.8223 68.0035C21.8224 68.1212 21.8609 68.2361 21.9325 68.3327C22.0042 68.4293 22.1056 68.5031 22.2232 68.5442Z" fill="white"/>
</g>
<defs>
<clipPath id="clip0_430_50762">
<rect width="100" height="100" rx="20" fill="white"/>
</clipPath>
</defs>
</svg>
