<svg width="100" height="100" viewBox="0 0 100 100" fill="none" xmlns="http://www.w3.org/2000/svg">
<g clip-path="url(#clip0_430_50798)">
<rect width="100" height="100" fill="#E35800"/>
<path d="M53.9648 34.5908C51.8275 36.3203 48.4915 36.4576 46.1472 35.101C43.4156 33.517 41.5734 30.0272 41.4894 26.8818C41.3255 20.7977 47.7128 17.5477 53.0652 19.6297C56.6493 21.0231 58.3972 24.5477 57.7497 28.2711C57.3111 30.7984 56.0495 32.905 53.9648 34.5908ZM44.9279 23.476C41.1226 28.3162 48.2456 38.0805 53.7046 31.5682C56.6779 28.0211 56.1943 22.5826 51.0243 21.474C48.9075 21.019 46.3296 21.6932 44.9279 23.476Z" fill="white"/>
<path d="M47.635 36.3244C48.258 36.2752 49.1514 36.0908 49.7887 36.1297C50.8475 36.1912 52.8454 36.3681 55.7826 36.6605C60.4752 37.1297 63.9096 40.185 65.0981 44.6871C65.2621 45.3114 65.4144 46.3934 65.5551 47.933C65.9055 51.7527 66.4977 55.5477 66.9219 59.3592C67.1145 61.0723 64.9281 61.2711 64.6903 59.765C63.9786 55.2486 63.48 51.3579 63.1944 48.0928C63.0811 46.7882 62.9602 45.8497 62.8317 45.2773C62.0244 41.6871 59.2703 39.3838 55.5858 39.0498C53.1432 38.8285 50.8953 38.6379 48.5408 38.726C46.788 38.7916 45.0408 38.9262 43.299 39.1297C39.0879 39.6215 36.6412 42.9166 36.2744 47.017C35.8604 51.6495 35.396 55.8667 34.8809 59.6686C34.7457 60.6707 33.8789 61.0969 33.0182 60.5887C32.4711 60.267 32.4404 59.6215 32.5223 59.0539C32.9964 55.8039 33.4772 51.4665 33.9649 46.0416C34.4178 40.9904 38.3256 37.2342 43.3317 36.7199C44.7662 36.5723 46.2006 36.4405 47.635 36.3244Z" fill="white"/>
<path d="M41.3769 46.5469L41.1071 46.5276C40.528 46.4861 40.0249 46.9219 39.9834 47.501L39.1161 59.6011C39.0746 60.1802 39.5104 60.6833 40.0895 60.7248L40.3593 60.7441C40.9384 60.7856 41.4415 60.3498 41.483 59.7707L42.3503 47.6706C42.3918 47.0915 41.956 46.5884 41.3769 46.5469Z" fill="white"/>
<path d="M58.1559 46.501L58.0578 46.5081C57.4245 46.5535 56.9479 47.1036 56.9933 47.7369L57.851 59.7021C57.8964 60.3354 58.4466 60.812 59.0798 60.7666L59.178 60.7595C59.8112 60.7141 60.2878 60.164 60.2424 59.5307L59.3847 47.5655C59.3393 46.9322 58.7892 46.4557 58.1559 46.501Z" fill="white"/>
<path d="M50.0416 77.103C49.905 77.0334 49.7691 77.0341 49.6338 77.1051C47.3497 78.2964 45.127 79.461 42.9658 80.599C41.7281 81.2506 40.9023 80.601 41.1195 79.2424C41.502 76.8298 41.9029 74.3735 42.3223 71.8735C42.3394 71.7707 42.3309 71.6653 42.2977 71.5667C42.2644 71.4681 42.2074 71.3792 42.1318 71.308C40.4856 69.7588 38.8401 68.1618 37.1953 66.517C36.5949 65.9145 36.2486 65.6748 36.3223 64.894C36.3879 64.2055 37.1789 63.9494 37.8182 63.8694C40.2335 63.5675 42.6188 63.224 44.974 62.8387C45.0576 62.8254 45.1368 62.7922 45.2049 62.7419C45.273 62.6917 45.328 62.6258 45.3654 62.5498C46.4692 60.2929 47.5771 58.0566 48.6891 55.8408C49.3182 54.5867 50.4596 54.7465 51.0559 55.9453C52.1352 58.1147 53.211 60.3005 54.2834 62.5026C54.3271 62.5924 54.392 62.6702 54.4727 62.7295C54.5534 62.7887 54.6473 62.8276 54.7465 62.8428C57.2779 63.2349 59.8264 63.6092 62.392 63.9658C63.2957 64.0908 63.7342 65.2793 63.0949 65.9063C61.3872 67.5798 59.6768 69.2499 57.9637 70.9166C57.558 71.31 57.2424 71.3879 57.3674 72.0662C57.8059 74.435 58.213 76.8087 58.5887 79.1871C58.8182 80.6297 57.8633 81.2444 56.5703 80.5457C54.364 79.3531 52.1878 78.2055 50.0416 77.103ZM44.0293 69.8899C44.6051 70.4801 44.9617 70.644 44.8059 71.5518C44.4835 73.4152 44.1475 75.2841 43.7977 77.1584C43.7937 77.1804 43.7944 77.2031 43.7998 77.2249C43.8052 77.2468 43.8151 77.2672 43.8291 77.285C43.843 77.3028 43.8605 77.3175 43.8805 77.3282C43.9006 77.3388 43.9226 77.3452 43.9453 77.3469C44.0354 77.3537 44.1352 77.3271 44.2445 77.267C45.9193 76.3462 47.6065 75.45 49.3059 74.5785C49.6188 74.4173 49.8995 74.3947 50.1482 74.5108C51.2506 75.0218 52.8579 75.8551 54.9699 77.0108C55.213 77.1434 55.4753 77.2602 55.7568 77.3612C55.7716 77.3665 55.7875 77.3678 55.803 77.3649C55.8185 77.3621 55.8329 77.3552 55.845 77.3451C55.857 77.3349 55.8661 77.3218 55.8715 77.307C55.8769 77.2923 55.8783 77.2763 55.8756 77.2608C55.5245 75.3524 55.1987 73.4282 54.8982 71.4883C54.8285 71.0395 54.8449 70.6686 55.1543 70.3633C56.5532 68.9794 57.9747 67.5928 59.4186 66.2035C59.4487 66.1752 59.4668 66.1365 59.4695 66.0951C59.4721 66.0537 59.4591 66.0127 59.433 65.9801C59.3838 65.92 59.2936 65.8817 59.1625 65.8653C57.3688 65.6358 55.5771 65.3981 53.7875 65.1522C53.1782 65.0675 52.7574 64.7868 52.5252 64.31C51.6618 62.5286 50.7916 60.7595 49.9145 59.0026C49.9077 58.9888 49.8971 58.9771 49.8841 58.9688C49.871 58.9606 49.8559 58.9561 49.8404 58.9559C49.8249 58.9556 49.8097 58.9597 49.7964 58.9676C49.7831 58.9755 49.7722 58.9869 49.765 59.0006C48.907 60.6987 48.0696 62.4118 47.2527 64.1399C46.9822 64.7123 46.599 65.0334 46.1031 65.103C44.2219 65.3681 42.3428 65.6468 40.4658 65.9391C40.3797 65.9528 40.3169 65.9719 40.2773 65.9965C40.2581 66.0086 40.242 66.025 40.2301 66.0442C40.2182 66.0635 40.2109 66.0851 40.2087 66.1075C40.2066 66.1299 40.2096 66.1524 40.2175 66.1733C40.2255 66.1942 40.2382 66.213 40.2547 66.2281C41.5525 67.4248 42.8107 68.6454 44.0293 69.8899Z" fill="white"/>
<path d="M32.6676 73.4883C32.5939 73.5602 32.5392 73.649 32.5084 73.7467C32.4776 73.8443 32.4718 73.9478 32.4913 74.0477C32.8288 75.8141 33.1416 77.5443 33.4298 79.2383C33.6594 80.5785 32.6737 81.2055 31.5118 80.5908C29.9367 79.7602 28.3315 78.9302 26.6962 78.101C26.6475 78.0757 26.5934 78.0625 26.5385 78.0625C26.4835 78.0625 26.4294 78.0757 26.3807 78.101C24.7509 78.9371 23.1109 79.7943 21.4606 80.6727C20.4483 81.2117 19.4688 80.4924 19.6635 79.3899C19.9667 77.6686 20.2632 75.9166 20.5528 74.1338C20.5749 73.9945 20.563 73.8519 20.518 73.7181C20.4731 73.5843 20.3964 73.4633 20.2946 73.3653C19.1402 72.2602 17.9736 71.1276 16.7946 69.9678C16.4408 69.6208 16.1839 69.2547 16.0241 68.8694C15.9968 68.8025 15.9927 68.7342 16.0118 68.6645C16.1908 68.0375 16.6061 67.6768 17.2577 67.5826C19.0555 67.3257 20.8206 67.0662 22.5528 66.8039C22.6589 66.7874 22.7595 66.7452 22.8459 66.6809C22.9323 66.6167 23.0019 66.5323 23.0487 66.435C23.7659 64.9459 24.5029 63.4466 25.2598 61.9371C25.9196 60.6215 26.9421 60.2793 27.7126 61.7752C28.3178 62.9528 29.0548 64.4473 29.9237 66.2588C30.0794 66.5839 30.3486 66.7738 30.7311 66.8285C32.4401 67.073 34.1484 67.3121 35.8561 67.5457C36.9257 67.6912 37.438 68.8346 36.5815 69.6686C35.2359 70.9801 33.9312 72.2533 32.6676 73.4883ZM27.438 75.7711C28.4462 76.2936 29.4585 76.9658 30.5159 77.3674C30.5356 77.3751 30.5571 77.3773 30.578 77.3738C30.5989 77.3703 30.6185 77.3612 30.6348 77.3474C30.651 77.3336 30.6634 77.3157 30.6706 77.2954C30.6778 77.2751 30.6796 77.2533 30.6757 77.2322C30.4435 75.9767 30.2256 74.7438 30.0221 73.5334C29.9216 72.9309 30.1184 72.7055 30.5118 72.308C31.367 71.4418 32.2236 70.6051 33.0815 69.7977C33.1034 69.777 33.119 69.7505 33.1266 69.7213C33.1341 69.6921 33.1332 69.6614 33.124 69.6327C33.1147 69.6039 33.0976 69.5784 33.0745 69.559C33.0514 69.5397 33.0233 69.5272 32.9934 69.5231C31.7543 69.3565 30.5255 69.1857 29.3069 69.0108C28.8848 68.9494 28.5781 68.752 28.3868 68.4186C28.1532 68.0129 27.6457 66.9985 26.8643 65.3756C26.785 65.2103 26.6976 65.0709 26.602 64.9576C26.5837 64.9357 26.56 64.9188 26.5333 64.9087C26.5066 64.8987 26.4777 64.8956 26.4495 64.9C26.4213 64.9043 26.3946 64.9158 26.3722 64.9334C26.3497 64.9511 26.3322 64.9742 26.3212 65.0006C25.8581 66.0853 25.3752 67.1331 24.8725 68.144C24.6143 68.6632 24.1771 68.9671 23.561 69.0559C22.4203 69.2212 21.2919 69.3722 20.1757 69.5088C20.1392 69.5133 20.1046 69.5281 20.0761 69.5515C20.0476 69.5748 20.0263 69.6058 20.0147 69.6408C20.0031 69.6758 20.0017 69.7133 20.0106 69.7491C20.0195 69.7849 20.0384 69.8174 20.0651 69.8428C20.9695 70.7158 21.8615 71.6092 22.7413 72.5231C23.0023 72.7936 23.1033 73.1194 23.0446 73.5006C22.8602 74.6987 22.6566 75.894 22.4339 77.0867C22.4162 77.1809 22.4189 77.2506 22.4421 77.2957C22.4529 77.318 22.4681 77.3379 22.4868 77.3542C22.5056 77.3705 22.5275 77.3828 22.5512 77.3905C22.5749 77.3981 22.6 77.4009 22.6249 77.3987C22.6498 77.3965 22.6741 77.3893 22.6962 77.3776C23.6812 76.8462 24.6676 76.3162 25.6553 75.7875C26.3622 75.4084 26.7557 75.4186 27.438 75.7711Z" fill="white"/>
<path d="M76.9862 66.7526C78.7144 67.0505 80.4739 67.308 82.2649 67.5252C83.7321 67.7035 84.0047 68.8694 82.9821 69.8592C81.7567 71.045 80.5402 72.2335 79.3325 73.4248C79.2446 73.5115 79.1791 73.6183 79.1417 73.7361C79.1042 73.8539 79.0958 73.9791 79.1174 74.101C79.4193 75.7759 79.7164 77.4712 80.0088 79.1871C80.3284 81.0621 78.8038 81.0518 77.6317 80.4022C76.2164 79.6181 74.8141 78.8633 73.4247 78.1379C73.3481 78.0974 73.2629 78.0759 73.1763 78.0751C73.0896 78.0744 73.004 78.0945 72.9268 78.1338C71.3735 78.9125 69.8257 79.7246 68.2833 80.5703C67.2465 81.1379 66.0518 80.7854 66.2731 79.3899C66.545 77.6823 66.84 75.9118 67.1583 74.0785C67.1798 73.9543 67.1705 73.8269 67.1312 73.7076C67.0919 73.5882 67.0238 73.4805 66.9329 73.394C65.6761 72.1878 64.396 70.9466 63.0928 69.6707C62.4965 69.0867 62.5661 68.058 63.3817 67.7117C63.603 67.6174 63.8346 67.5539 64.0764 67.5211C65.7185 67.297 67.3592 67.0682 68.9985 66.8346C69.3441 66.7854 69.6085 66.5703 69.7915 66.1891C70.5361 64.6386 71.2915 63.0928 72.0579 61.5518C72.6153 60.4309 73.7526 60.642 74.2669 61.6686C75.0757 63.2779 75.8858 64.9002 76.6973 66.5354C76.7252 66.592 76.7659 66.6411 76.8161 66.6788C76.8663 66.7166 76.9246 66.7419 76.9862 66.7526ZM71.7014 67.6502C71.3284 68.4842 71.0313 68.9391 70.228 69.0498C69.0723 69.2082 67.9172 69.3722 66.7629 69.5416C66.6713 69.5552 66.6146 69.5832 66.5928 69.6256C66.5727 69.666 66.5665 69.7118 66.575 69.7559C66.5835 69.8 66.6063 69.8399 66.6399 69.8694C67.5989 70.7342 68.5129 71.6283 69.3817 72.5518C69.6317 72.8182 69.7273 73.1338 69.6686 73.4985C69.4719 74.7158 69.2485 75.9562 68.9985 77.2199C68.9944 77.2422 68.9962 77.2653 69.0037 77.2867C69.0112 77.3081 69.0241 77.3272 69.0411 77.342C69.0582 77.3567 69.0788 77.3667 69.1008 77.3708C69.1228 77.3749 69.1455 77.373 69.1665 77.3653C70.2403 76.9801 71.2362 76.2998 72.228 75.7424C72.7745 75.435 73.3018 75.4077 73.81 75.6604C74.8592 76.1823 75.8892 76.7417 76.9001 77.3387C77.1556 77.489 77.2601 77.4179 77.2137 77.1256C77.0716 76.2444 76.9165 75.2923 76.7485 74.269C76.6256 73.5129 76.4883 72.8776 76.9698 72.4043C77.8578 71.5313 78.7478 70.6816 79.6399 69.8551C79.6686 69.8283 79.6891 69.7939 79.699 69.7559C79.7089 69.7178 79.7077 69.6778 79.6957 69.6404C79.6836 69.603 79.6612 69.5698 79.631 69.5447C79.6008 69.5196 79.5641 69.5036 79.5251 69.4985C78.379 69.3619 77.2253 69.2246 76.0641 69.0867C75.5614 69.0265 75.2089 68.8073 75.0067 68.4289C74.392 67.2882 73.8277 66.1263 73.3141 64.9432C73.309 64.9317 73.3012 64.9217 73.2913 64.9139C73.2815 64.9061 73.27 64.9008 73.2578 64.8986C73.2456 64.8964 73.2331 64.8972 73.2215 64.9011C73.2098 64.9049 73.1994 64.9117 73.1911 64.9207C72.5354 65.601 72.0866 66.7875 71.7014 67.6502Z" fill="white"/>
</g>
<defs>
<clipPath id="clip0_430_50798">
<rect width="100" height="100" rx="20" fill="white"/>
</clipPath>
</defs>
</svg>
