<svg width="100" height="100" viewBox="0 0 100 100" fill="none" xmlns="http://www.w3.org/2000/svg">
<g clip-path="url(#clip0_421_47127)">
<rect width="100" height="100" fill="white"/>
<path d="M38.8905 32.4884C38.796 32.5319 38.7487 32.6059 38.7487 32.7103V41.2378C38.7487 41.3047 38.7751 41.3689 38.8222 41.4162C38.8692 41.4635 38.933 41.4901 38.9996 41.4901C40.7188 41.4887 42.4053 41.501 44.059 41.5271C44.8968 41.5401 45.2982 42.4342 45.0168 43.1151C44.7899 43.6633 44.2292 43.746 43.6881 43.7395C42.1609 43.7264 40.5748 43.7322 38.9298 43.7569C38.9043 43.7571 38.8791 43.7625 38.8556 43.7726C38.8322 43.7827 38.8109 43.7973 38.7931 43.8157C38.7753 43.8341 38.7612 43.8559 38.7517 43.8797C38.7422 43.9036 38.7375 43.9291 38.7378 43.9548C38.7611 47.6124 38.7654 51.2902 38.7509 54.9883C38.7494 55.3001 38.7051 55.5735 38.6178 55.8085C38.3342 56.5785 37.4135 56.6503 36.868 56.1087C36.615 55.8607 36.5342 55.5104 36.4775 55.1667C36.4691 55.1195 36.4435 55.077 36.4057 55.0473C36.3679 55.0177 36.3205 55.0029 36.2724 55.0057C34.0747 55.1493 31.9519 55.6199 29.904 56.4176C29.8708 56.4307 29.8442 56.4563 29.8299 56.4889C29.8156 56.5215 29.8148 56.5584 29.8276 56.5916C30.6451 58.6713 31.8348 60.5247 33.3969 62.1519C34.322 63.1177 33.2028 64.4926 32.053 63.8226C31.6588 63.5934 31.1956 63.1446 30.6632 62.476C29.4807 60.9859 28.6233 59.2825 27.7594 57.6119C27.6765 57.4509 27.5587 57.419 27.4059 57.5161L24.6111 59.2956C24.5837 59.313 24.5607 59.3365 24.5441 59.3644C24.5274 59.3923 24.5175 59.4237 24.5152 59.4562C24.5129 59.4888 24.5182 59.5214 24.5307 59.5517C24.5431 59.582 24.5625 59.609 24.5871 59.6306C25.4511 60.3898 26.6532 61.0185 27.635 61.6341C28.1128 61.9343 28.4422 62.5608 28.0517 63.1047C27.4867 63.8922 26.8125 63.7051 26.0489 63.2678C20.9248 60.3253 17.3475 56.1348 15.317 50.6963C13.6742 46.2977 13.6196 40.5525 14.8676 36.006C16.9359 28.4639 23.2236 22.2837 30.6611 20.0365C36.9204 18.1439 43.795 18.8357 49.5438 22.1727C50.0805 22.4838 50.8747 22.9015 50.9838 23.5389C51.1387 24.4569 50.1547 25.1008 49.2995 24.5831C47.7563 23.6534 46.1316 22.8826 44.4255 22.2706C44.3877 22.2576 44.3623 22.2692 44.3492 22.3054C44.3259 22.3692 44.3419 22.436 44.3972 22.5056C45.6698 24.0936 46.6712 25.7926 47.4014 27.6025C47.4205 27.6498 47.4506 27.6919 47.4894 27.7253C47.5281 27.7586 47.5743 27.7823 47.624 27.7942C47.6738 27.8061 47.7257 27.806 47.7754 27.7938C47.8251 27.7817 47.8712 27.7578 47.9097 27.7243C48.4028 27.3001 49.3715 26.8346 49.9169 27.4111C51.0558 28.6097 49.402 29.4755 48.4966 29.7713C48.445 29.7882 48.4022 29.8247 48.3773 29.8731C48.3524 29.9215 48.3475 29.9779 48.3635 30.0302C49.6566 34.1402 50.2813 38.3518 50.2376 42.6648C50.2304 43.3711 49.8733 43.725 49.1664 43.7264H48.9221C48.7033 43.727 48.4932 43.6413 48.3375 43.4881C48.1818 43.3349 48.0931 43.1266 48.0908 42.9085C48.0545 38.9203 47.4959 35.0046 46.4153 31.1614C46.3643 30.9772 46.2458 30.9083 46.0596 30.9547C45.3615 31.1288 44.6459 31.4616 44.0459 31.6248C42.4285 32.0671 40.7821 32.3405 39.1065 32.4449C39.0149 32.4507 38.9429 32.4652 38.8905 32.4884ZM30.528 29.073C32.4028 29.7155 34.3314 30.1027 36.3139 30.2347C36.3416 30.2365 36.3694 30.2326 36.3956 30.2232C36.4217 30.2138 36.4457 30.1992 36.4659 30.1803C36.4862 30.1613 36.5023 30.1384 36.5133 30.1129C36.5243 30.0875 36.5299 30.0601 36.5299 30.0324L36.5168 21.5375C36.5167 21.5138 36.5113 21.4904 36.501 21.4691C36.4907 21.4477 36.4757 21.429 36.4573 21.4143C36.4388 21.3997 36.4172 21.3894 36.3943 21.3844C36.3713 21.3794 36.3476 21.3797 36.3248 21.3852C33.2813 22.1031 30.9229 25.9296 29.8451 28.6119C29.8303 28.6479 29.8294 28.6881 29.8428 28.7244C29.8561 28.7607 29.8827 28.7904 29.9171 28.8076C30.1484 28.9237 30.352 29.0121 30.528 29.073ZM45.3898 28.6032C44.3099 25.7077 42.054 22.3141 38.9232 21.3613C38.9026 21.3548 38.8808 21.3533 38.8595 21.3567C38.8382 21.3602 38.818 21.3687 38.8006 21.3814C38.7832 21.3941 38.769 21.4107 38.7592 21.4299C38.7495 21.4491 38.7443 21.4703 38.7443 21.4918L38.7487 30.0824C38.7487 30.1462 38.7814 30.1825 38.8469 30.1912C39.081 30.2187 39.3138 30.2224 39.545 30.2021C41.5304 30.0193 43.4379 29.577 45.2677 28.8751C45.32 28.8545 45.3621 28.8144 45.385 28.7635C45.4078 28.7127 45.4096 28.655 45.3898 28.6032ZM27.8772 27.4937C28.7586 25.7317 29.6291 24.0762 30.8509 22.5099C30.8945 22.4548 30.9156 22.4164 30.9141 22.3946C30.9083 22.2975 30.8574 22.2663 30.7614 22.3011C28.6102 23.0842 26.6001 24.1364 24.7311 25.4576C24.5246 25.6026 24.5188 25.7556 24.7137 25.9166C25.5296 26.5837 26.4045 27.1667 27.3383 27.6656C27.3846 27.6905 27.4355 27.7058 27.488 27.7106C27.5404 27.7155 27.5933 27.7097 27.6436 27.6937C27.6939 27.6776 27.7405 27.6517 27.7806 27.6173C27.8207 27.583 27.8536 27.5409 27.8772 27.4937ZM22.3334 27.6068C18.7249 31.2549 16.4668 36.1778 16.1919 41.2465C16.1832 41.4103 16.261 41.4923 16.4253 41.4923L24.7748 41.501C24.8433 41.501 24.9092 41.4745 24.9584 41.427C25.0077 41.3795 25.0365 41.3148 25.0388 41.2465C25.1406 37.4367 25.7529 33.7146 26.8758 30.0802C26.8863 30.0463 26.8844 30.0097 26.8705 29.9767C26.8565 29.9437 26.8314 29.9165 26.7994 29.8997C25.518 29.2369 24.3115 28.4625 23.1799 27.5764C22.8352 27.3066 22.6432 27.2936 22.3334 27.6068ZM30.2923 31.2876C29.92 31.1585 29.5615 31.0316 29.2168 30.9069C29.1894 30.897 29.1604 30.8928 29.1314 30.8944C29.1024 30.896 29.074 30.9034 29.0479 30.9162C29.0218 30.929 28.9986 30.9469 28.9796 30.9688C28.9607 30.9908 28.9463 31.0163 28.9375 31.0439C27.8772 34.3955 27.3288 37.8311 27.2925 41.3509C27.2922 41.3702 27.2958 41.3894 27.303 41.4073C27.3102 41.4253 27.3209 41.4416 27.3345 41.4554C27.3481 41.4691 27.3643 41.4801 27.3822 41.4875C27.4001 41.495 27.4193 41.4988 27.4387 41.4988H36.2615C36.3315 41.4988 36.3987 41.4713 36.4482 41.4224C36.4977 41.3734 36.5255 41.307 36.5255 41.2378L36.5233 32.7407C36.5234 32.6691 36.4961 32.6002 36.4469 32.5483C36.3977 32.4965 36.3306 32.4656 36.2593 32.4623C34.2333 32.3506 32.2443 31.959 30.2923 31.2876ZM16.1941 43.9244C16.4537 49.0387 18.7467 54.0334 22.3182 57.6967C22.5712 57.9563 22.8592 57.9606 23.1821 57.7097C24.3355 56.8135 25.5362 56.0347 26.7841 55.3734C26.8393 55.3445 26.882 55.2964 26.9041 55.2383C26.9262 55.1802 26.9262 55.1161 26.9041 55.058C25.6213 51.6448 25.1588 47.6051 25.0148 43.9961C25.0125 43.9273 24.9835 43.862 24.9338 43.8141C24.8841 43.7662 24.8177 43.7394 24.7486 43.7395H16.3686C16.3449 43.7394 16.3215 43.7442 16.2997 43.7536C16.278 43.763 16.2583 43.7768 16.242 43.7941C16.2257 43.8114 16.213 43.8318 16.2048 43.8542C16.1965 43.8766 16.1929 43.9005 16.1941 43.9244ZM29.8429 54.0812C31.9257 53.3546 34.0827 52.9326 36.3139 52.8151C36.3699 52.8123 36.4226 52.788 36.4612 52.7471C36.4998 52.7062 36.5212 52.6519 36.5212 52.5954L36.519 44.0527C36.519 43.8482 36.4164 43.746 36.2113 43.746L27.4365 43.7351C27.4159 43.7351 27.3956 43.7392 27.3767 43.7472C27.3577 43.7552 27.3406 43.767 27.3262 43.7817C27.3117 43.7965 27.3004 43.814 27.2927 43.8333C27.2851 43.8525 27.2813 43.8732 27.2816 43.8939C27.3412 47.4166 27.891 50.8573 28.931 54.2161C28.9407 54.2478 28.9618 54.2747 28.99 54.2916C29.0183 54.3085 29.0517 54.3142 29.0837 54.3074C29.2728 54.2668 29.5258 54.1914 29.8429 54.0812Z" fill="#E35800"/>
<path d="M64.079 52.6479L64.0834 59.3132C64.0832 59.405 64.1124 59.4945 64.1667 59.5693C64.221 59.6441 64.2978 59.7004 64.3862 59.7302C66.8041 60.549 67.2594 62.1824 67.7037 64.7016C68.3732 68.4826 69.0441 72.2643 69.7165 76.0467C69.7761 76.3765 69.8763 76.7647 70.0171 77.2112C70.0404 77.2832 70.0897 77.3185 70.1652 77.3171C73.6331 77.284 77.0967 77.2796 80.5558 77.3041C80.9552 77.307 81.3233 77.4057 81.6603 77.6001C81.7242 77.6361 81.7634 77.6909 81.7779 77.7643C81.9979 78.8662 81.4686 80.3591 81.0525 82.0228C80.8376 82.8841 80.6038 83.4775 80.3511 83.8031C79.495 84.9093 77.9528 85 76.5826 85C65.9073 84.9957 55.2321 84.9878 44.5569 84.9762C41.8863 84.9741 39.9454 84.9006 38.7081 82.6364C38.4234 82.1149 38.1657 81.1873 37.9348 79.8536C37.0068 74.4925 36.0563 69.1358 35.0834 63.7834C34.7849 62.1457 35.2685 60.6009 36.8478 59.8858C37.9043 59.4061 39.5271 59.4861 40.7688 59.5401C40.7946 59.5412 40.8203 59.5372 40.8445 59.5281C40.8686 59.5191 40.8907 59.5052 40.9092 59.4874C40.9278 59.4696 40.9425 59.4482 40.9524 59.4246C40.9624 59.401 40.9673 59.3756 40.967 59.3499C40.9409 57.2304 40.7601 54.5816 41.2545 52.7624C41.68 51.1967 42.5122 49.8954 43.7509 48.8583C44.3129 48.3873 45.2263 47.8738 46.4912 47.3178C48.3297 46.5098 50.1697 45.709 52.0111 44.9153C53.2985 44.36 54.2548 43.3467 55.3287 42.4868C55.5334 42.3226 55.6518 41.9676 55.6838 41.4217C55.7128 40.9104 55.8471 40.0289 56.0867 38.7772C56.1325 38.546 56.0061 38.3386 55.8232 38.1701C53.7058 36.2313 52.629 33.8036 52.5927 30.8869C52.5666 28.7825 52.5564 26.6767 52.5622 24.5694C52.5753 20.2721 53.9977 16.9924 57.9078 14.9658C58.4234 14.6979 59.148 14.4746 60.0818 14.296C64.8893 13.3691 70.089 14.5142 72.3806 19.2264C73.6549 21.8471 73.4589 24.7379 73.4262 27.9723C73.4044 30.3561 73.3638 31.7576 73.3042 32.1767C72.9818 34.4971 71.9282 36.5115 70.1435 38.2198C70.0157 38.3408 69.9677 38.5338 69.9997 38.7988C70.1231 39.8315 70.2524 40.8636 70.3874 41.8949C70.4942 42.7137 73.1909 44.5955 73.9686 44.9304C75.7679 45.7082 77.5672 46.4868 79.3665 47.266C80.6894 47.8407 81.6363 48.3635 82.207 48.8345C84.7753 50.9497 84.98 53.3004 84.9909 56.8005C85.0069 62.199 85.0018 67.5975 84.9757 72.996C84.9691 74.2081 84.4943 74.6294 83.2853 74.2858C83.2193 74.2678 83.1587 74.2342 83.1087 74.1879C83.0586 74.1417 83.0205 74.0841 82.9977 74.0201C82.8714 73.6672 82.8082 73.2797 82.8082 72.8577C82.8024 66.8975 82.8046 60.9372 82.8148 54.977C82.8177 53.1852 82.1954 51.7455 80.9479 50.6581C80.4426 50.2173 79.4747 49.6916 78.0442 49.0808C76.5078 48.4255 74.983 47.7636 73.4698 47.0953C73.2606 47.0031 73.1227 47.0658 73.0559 47.2833C72.3007 49.7405 71.5245 52.1827 70.7273 54.6097C70.4027 55.5928 69.9692 56.2323 68.8386 55.4631C67.3922 54.4822 65.9582 53.4675 64.5365 52.4189C64.2315 52.1956 64.079 52.272 64.079 52.6479ZM64.2751 20.7171C64.6628 19.9782 65.6714 19.9502 66.0439 20.6091C66.4512 21.3329 66.8847 22.2079 67.499 22.7092C68.4081 23.4495 69.4958 23.662 70.7621 23.3465C70.9988 23.2875 71.0968 23.083 71.0562 22.7329C70.6162 18.9044 67.7931 16.3442 63.896 16.1325C61.4345 15.9985 59.0384 16.4133 57.1933 18.0942C55.357 19.7687 54.5881 22.2749 54.8211 24.7401C54.8256 24.7877 54.845 24.8327 54.8768 24.8685C54.9085 24.9042 54.9508 24.9289 54.9976 24.9389C58.276 25.6346 61.3169 25.1117 63.3406 22.2468C63.6847 21.7585 63.9962 21.2486 64.2751 20.7171ZM70.4462 34.199C70.8645 33.2786 71.0925 32.2833 71.1302 31.2131C71.1941 29.3954 71.1999 27.5603 71.1477 25.708C71.1467 25.6809 71.1397 25.6543 71.1273 25.6301C71.1148 25.6059 71.0972 25.5848 71.0756 25.5681C71.054 25.5514 71.0289 25.5396 71.0023 25.5336C70.9756 25.5275 70.9479 25.5273 70.9211 25.533C68.6441 26.0256 66.7714 25.4163 65.3032 23.7052C65.29 23.6897 65.2735 23.6772 65.2549 23.6689C65.2362 23.6605 65.2159 23.6564 65.1954 23.6568C65.175 23.6572 65.1549 23.6621 65.1366 23.6713C65.1183 23.6804 65.1023 23.6935 65.0898 23.7095C62.5193 26.9028 59.1654 28.0544 55.0281 27.1642C55.0005 27.1581 54.9719 27.1582 54.9444 27.1644C54.9169 27.1707 54.8911 27.1829 54.869 27.2003C54.8468 27.2177 54.8289 27.2398 54.8165 27.265C54.8041 27.2901 54.7975 27.3177 54.7972 27.3457C54.7623 30.2884 54.4661 32.9891 56.3569 35.4953C57.4286 36.9191 59.5067 38.7059 61.3822 39.0581C62.9419 39.3497 65.0854 39.2806 66.4403 38.384C67.8736 37.4333 69.7318 35.7675 70.4462 34.199ZM59.5372 40.8146C59.119 40.6698 58.7508 40.4343 58.3587 40.2096C58.3332 40.1951 58.3044 40.1869 58.275 40.1857C58.2455 40.1846 58.2161 40.1905 58.1893 40.203C58.1624 40.2154 58.1389 40.2341 58.1206 40.2574C58.1024 40.2808 58.0899 40.3081 58.0843 40.3371C57.9957 40.8268 57.9158 41.3144 57.8447 41.7998C57.7336 42.5668 58.2019 42.9579 58.6789 43.4677C60.0658 44.9571 61.383 46.4507 62.6304 47.9487C62.6676 47.9936 62.714 48.03 62.7666 48.0554C62.8192 48.0809 62.8767 48.0948 62.9352 48.0962C62.9937 48.0977 63.0518 48.0866 63.1056 48.0637C63.1594 48.0409 63.2076 48.0068 63.2469 47.9638C64.8429 46.2282 66.3888 44.4861 67.8845 42.7375C68.3355 42.2103 68.024 41.0371 67.9259 40.3717C67.9215 40.3419 67.9098 40.3137 67.8919 40.2895C67.8739 40.2653 67.8502 40.2459 67.8229 40.2329C67.7956 40.2199 67.7655 40.2137 67.7352 40.2149C67.7049 40.2161 67.6754 40.2247 67.6493 40.2399C65.1921 41.668 62.149 41.7263 59.5372 40.8146ZM71.1869 46.0085C71.2024 45.9595 71.2032 45.9071 71.1893 45.8577C71.1754 45.8082 71.1473 45.7638 71.1085 45.7298L69.6991 44.481C69.6727 44.4578 69.6419 44.44 69.6085 44.4287C69.5751 44.4173 69.5398 44.4126 69.5046 44.4148C69.4694 44.417 69.4349 44.4261 69.4033 44.4415C69.3716 44.457 69.3433 44.4785 69.3201 44.5048L64.8218 49.554C64.7971 49.5818 64.7785 49.6144 64.7672 49.6497C64.7559 49.685 64.7522 49.7223 64.7563 49.7591C64.7604 49.7959 64.7723 49.8315 64.791 49.8635C64.8098 49.8955 64.8351 49.9233 64.8654 49.9451L68.6557 52.6847C68.69 52.7096 68.7298 52.7261 68.7718 52.7328C68.8138 52.7395 68.8568 52.7361 68.8973 52.723C68.9377 52.7099 68.9744 52.6875 69.0044 52.6575C69.0344 52.6275 69.0567 52.5909 69.0695 52.5507L71.1869 46.0085ZM56.6379 44.5178C56.5955 44.4704 56.5361 44.4416 56.4724 44.4376C56.4088 44.4335 56.3461 44.4546 56.298 44.4962L54.88 45.7104C54.8437 45.7409 54.8173 45.7814 54.8041 45.8268C54.791 45.8721 54.7916 45.9203 54.8059 45.9653L56.9319 52.5766C56.9436 52.6128 56.9637 52.6457 56.9907 52.6726C57.0176 52.6995 57.0506 52.7197 57.087 52.7315C57.1234 52.7433 57.162 52.7464 57.1998 52.7405C57.2376 52.7346 57.2735 52.7199 57.3044 52.6976L61.1601 49.9256C61.1876 49.906 61.2106 49.8809 61.2277 49.8518C61.2448 49.8228 61.2555 49.7905 61.2592 49.7571C61.2629 49.7237 61.2595 49.6899 61.2491 49.6579C61.2388 49.6259 61.2218 49.5964 61.1993 49.5713L56.6379 44.5178ZM46.3584 49.8003C42.396 51.6195 43.1976 55.865 43.1257 59.2895C43.1228 59.4465 43.2012 59.525 43.361 59.525L61.6524 59.5271C61.6812 59.5271 61.7099 59.5215 61.7365 59.5105C61.7632 59.4995 61.7875 59.4835 61.8079 59.4632C61.8284 59.4429 61.8446 59.4189 61.8556 59.3924C61.8667 59.3659 61.8724 59.3376 61.8724 59.3089V52.4448C61.8721 52.4165 61.8641 52.3887 61.8493 52.3645C61.8344 52.3403 61.8133 52.3206 61.7882 52.3074C61.7631 52.2943 61.7349 52.2883 61.7067 52.2901C61.6786 52.2918 61.6515 52.3012 61.6284 52.3174C60.1515 53.3515 58.6601 54.4044 57.1541 55.4761C56.261 56.1091 55.6206 55.7699 55.3091 54.802C54.4958 52.2741 53.6841 49.7585 52.8737 47.2552C52.8636 47.2239 52.847 47.195 52.8251 47.1703C52.8031 47.1457 52.7762 47.1258 52.7461 47.112C52.716 47.0982 52.6834 47.0907 52.6502 47.0901C52.6171 47.0894 52.5841 47.0956 52.5535 47.1083C50.471 47.9624 48.406 48.8598 46.3584 49.8003ZM40.5684 81.3487C40.9663 82.3137 41.7345 82.7984 42.873 82.8027C50.8065 82.8373 58.7392 82.851 66.6712 82.8438C67.0517 82.8438 67.4786 82.7566 67.9521 82.5823C68.0248 82.556 68.0847 82.5035 68.1198 82.4354C68.3333 82.022 68.3914 81.5302 68.2941 80.9598C67.3676 75.4821 66.4236 70.0065 65.4622 64.5331C65.2074 63.0855 64.7848 61.7395 63.0225 61.7395C54.8175 61.7395 46.6125 61.7561 38.4075 61.7892C37.2138 61.7957 37.1549 62.3034 37.3227 63.2908C38.2318 68.6245 39.1365 73.9596 40.0369 79.2961C40.1806 80.1532 40.3578 80.8373 40.5684 81.3487ZM77.3995 82.8092C77.944 82.8027 78.6302 82.7422 78.7783 82.0984C78.9482 81.3724 79.137 80.5954 79.3447 79.7671C79.3523 79.7361 79.3526 79.7037 79.3458 79.6724C79.3389 79.6412 79.325 79.6119 79.3051 79.5867C79.2852 79.5615 79.2598 79.5412 79.2308 79.5272C79.2018 79.5131 79.17 79.5058 79.1378 79.5057H70.5965C70.5649 79.5057 70.5337 79.5129 70.5053 79.5267C70.4769 79.5405 70.452 79.5606 70.4327 79.5854C70.4133 79.6103 70.3999 79.6392 70.3936 79.6699C70.3873 79.7007 70.3882 79.7325 70.3961 79.7628C70.6561 80.7509 70.6968 81.7455 70.5181 82.7465C70.5156 82.7596 70.516 82.7731 70.5194 82.786C70.5228 82.7989 70.5291 82.8109 70.5379 82.8212C70.5466 82.8315 70.5575 82.8399 70.5699 82.8456C70.5823 82.8514 70.5959 82.8544 70.6096 82.8546C72.8693 82.8531 75.1325 82.838 77.3995 82.8092Z" fill="#E35800"/>
<path d="M75.1026 61.9981L74.8974 61.9984C74.4018 61.9993 74.0008 62.4449 74.0017 62.9938L74.0194 73.0062C74.0203 73.555 74.4229 73.9993 74.9186 73.9984L75.1237 73.9981C75.6193 73.9972 76.0203 73.5516 76.0194 73.0027L76.0017 62.9903C76.0008 62.4415 75.5982 61.9972 75.1026 61.9981Z" fill="#E35800"/>
<path d="M51.1579 70.98L50.8418 70.9854C50.3769 70.9935 50.0066 71.3753 50.0148 71.8383L50.0204 72.1614C50.0286 72.6244 50.4121 72.9932 50.877 72.9851L51.1931 72.9796C51.658 72.9716 52.0283 72.5897 52.0201 72.1268L52.0145 71.8037C52.0063 71.3407 51.6228 70.9719 51.1579 70.98Z" fill="#E35800"/>
</g>
<defs>
<clipPath id="clip0_421_47127">
<rect width="100" height="100" rx="20" fill="white"/>
</clipPath>
</defs>
</svg>
