<svg width="100" height="100" viewBox="0 0 100 100" fill="none" xmlns="http://www.w3.org/2000/svg">
<g clip-path="url(#clip0_421_47172)">
<rect width="100" height="100" fill="white"/>
<path d="M54.1771 34.5762C52.0914 36.3041 48.8359 36.4412 46.5483 35.086C43.8827 33.5034 42.085 30.0169 42.003 26.8744C41.843 20.7961 48.0761 17.5491 53.2992 19.6291C56.7967 21.0213 58.5024 24.5425 57.8705 28.2624C57.4426 30.7874 56.2114 32.892 54.1771 34.5762ZM45.3585 23.4718C41.6451 28.3075 48.596 38.0627 53.9231 31.5565C56.8247 28.0127 56.3527 22.5792 51.3075 21.4717C49.2419 21.0172 46.7263 21.6907 45.3585 23.4718Z" fill="#E35800"/>
<path d="M48.3905 36.2026C49.0235 36.1528 49.9313 35.966 50.5789 36.0054C51.6546 36.0677 53.6848 36.2469 56.6692 36.5431C61.4373 37.0184 64.927 40.1134 66.1347 44.6739C66.3013 45.3064 66.456 46.4024 66.599 47.962C66.9551 51.8313 67.5568 55.6756 67.9878 59.5366C68.1835 61.272 65.9619 61.4733 65.7203 59.9476C64.9971 55.3726 64.4905 51.4313 64.2004 48.1239C64.0851 46.8023 63.9623 45.8516 63.8318 45.2718C63.0114 41.635 60.213 39.3018 56.4693 38.9634C53.9874 38.7392 51.7032 38.5462 49.3108 38.6355C47.5299 38.7019 45.7545 38.8382 43.9847 39.0444C39.7058 39.5426 37.2197 42.8804 36.847 47.0341C36.4264 51.7268 35.9545 55.9988 35.4311 59.85C35.2937 60.8651 34.413 61.2969 33.5385 60.7821C32.9825 60.4562 32.9513 59.8023 33.0346 59.2273C33.5163 55.9351 34.0049 51.5413 34.5004 46.046C34.9606 40.9292 38.9313 37.1243 44.018 36.6033C45.4755 36.4538 46.933 36.3203 48.3905 36.2026Z" fill="#E35800"/>
<path d="M41.1112 47.0794L40.8838 47.0631C40.3957 47.0283 39.9668 47.4617 39.9258 48.0313L39.0696 59.9326C39.0286 60.5022 39.3911 60.9922 39.8792 61.027L40.1066 61.0433C40.5946 61.0781 41.0235 60.6447 41.0645 60.0751L41.9207 48.1738C41.9617 47.6042 41.5992 47.1142 41.1112 47.0794Z" fill="#E35800"/>
<path d="M58.0384 46.9258L57.9565 46.9317C57.4283 46.9694 57.0362 47.5028 57.0808 48.123L57.9238 59.841C57.9684 60.4611 58.4329 60.9333 58.9611 60.8956L59.043 60.8897C59.5713 60.852 59.9634 60.3187 59.9187 59.6985L59.0757 47.9805C59.0311 47.3603 58.5667 46.8881 58.0384 46.9258Z" fill="#E35800"/>
<path d="M49.6859 77.2322C49.5497 77.1623 49.4142 77.1629 49.2794 77.2343C47.0024 78.4309 44.7867 79.6008 42.6323 80.7439C41.3985 81.3985 40.5753 80.746 40.7918 79.3812C41.1731 76.9578 41.5728 74.4904 41.9909 71.9792C42.0079 71.8759 41.9994 71.77 41.9663 71.671C41.9332 71.5719 41.8764 71.4826 41.8009 71.4111C40.16 69.8549 38.5196 68.2507 36.88 66.5985C36.2815 65.9933 35.9363 65.7525 36.0098 64.9682C36.0752 64.2766 36.8637 64.0193 37.501 63.939C39.9087 63.6357 42.2864 63.2906 44.6342 62.9036C44.7176 62.8903 44.7965 62.8569 44.8644 62.8064C44.9323 62.7559 44.9872 62.6897 45.0244 62.6134C46.1247 60.3464 47.2292 58.1 48.3377 55.8742C48.9648 54.6144 50.1026 54.775 50.697 55.9791C51.7729 58.1583 52.8453 60.3539 53.9144 62.5661C53.9579 62.6562 54.0227 62.7344 54.1031 62.7939C54.1835 62.8534 54.2771 62.8925 54.376 62.9078C56.8995 63.3016 59.4399 63.6776 61.9974 64.0358C62.8983 64.1613 63.3354 65.3552 62.6981 65.9851C60.9958 67.6661 59.2908 69.3437 57.5831 71.0179C57.1786 71.4131 56.8641 71.4913 56.9887 72.1727C57.4258 74.5522 57.8316 76.9365 58.2061 79.3257C58.4349 80.7748 57.483 81.3923 56.194 80.6904C53.9947 79.4924 51.8253 78.3397 49.6859 77.2322ZM43.6925 69.9866C44.2665 70.5795 44.622 70.7441 44.4667 71.656C44.1453 73.5278 43.8103 75.4051 43.4617 77.2878C43.4576 77.31 43.4583 77.3328 43.4637 77.3547C43.4691 77.3766 43.479 77.3972 43.4929 77.415C43.5068 77.4329 43.5243 77.4477 43.5442 77.4584C43.5642 77.4691 43.5862 77.4755 43.6088 77.4772C43.6986 77.4841 43.7981 77.4573 43.907 77.3969C45.5766 76.472 47.2584 75.5718 48.9526 74.6963C49.2644 74.5344 49.5443 74.5117 49.7921 74.6284C50.8911 75.1416 52.4933 75.9787 54.5987 77.1396C54.8411 77.2727 55.1025 77.3901 55.3831 77.4916C55.3979 77.4969 55.4138 77.4981 55.4292 77.4953C55.4446 77.4925 55.459 77.4856 55.471 77.4754C55.483 77.4652 55.4921 77.452 55.4975 77.4372C55.5028 77.4223 55.5042 77.4063 55.5016 77.3907C55.1516 75.4737 54.8268 73.5408 54.5272 71.5922C54.4577 71.1414 54.4741 70.7688 54.7825 70.4621C56.177 69.072 57.594 67.6792 59.0334 66.2836C59.0634 66.2552 59.0814 66.2163 59.0841 66.1747C59.0867 66.1331 59.0738 66.0919 59.0477 66.0592C58.9987 65.9988 58.9088 65.9604 58.7781 65.9439C56.99 65.7134 55.204 65.4746 53.42 65.2276C52.8126 65.1425 52.3932 64.8605 52.1617 64.3816C51.301 62.5921 50.4335 60.815 49.5592 59.0503C49.5524 59.0364 49.5419 59.0246 49.5288 59.0163C49.5158 59.008 49.5007 59.0035 49.4853 59.0033C49.4699 59.0031 49.4547 59.0072 49.4414 59.0151C49.4282 59.023 49.4173 59.0345 49.4101 59.0482C48.5549 60.754 47.7201 62.4748 46.9057 64.2107C46.6361 64.7857 46.2541 65.1082 45.7598 65.1782C43.8845 65.4444 42.0113 65.7243 40.1402 66.018C40.0544 66.0317 39.9918 66.051 39.9523 66.0757C39.9332 66.0878 39.9171 66.1042 39.9053 66.1236C39.8934 66.1429 39.8862 66.1647 39.884 66.1872C39.8818 66.2097 39.8848 66.2323 39.8928 66.2533C39.9007 66.2743 39.9134 66.2931 39.9298 66.3083C41.2235 67.5104 42.4778 68.7365 43.6925 69.9866Z" fill="#E35800"/>
<path d="M32.6575 73.6555C32.5839 73.7272 32.5292 73.8157 32.4985 73.9131C32.4677 74.0105 32.4619 74.1136 32.4814 74.2132C32.8187 75.9742 33.1313 77.699 33.4194 79.3877C33.6488 80.7237 32.6637 81.3488 31.5025 80.736C29.9283 79.908 28.3241 79.0806 26.6898 78.254C26.6411 78.2287 26.587 78.2155 26.5321 78.2155C26.4772 78.2155 26.4231 78.2287 26.3744 78.254C24.7456 79.0874 23.1066 79.942 21.4573 80.8177C20.4456 81.355 19.4667 80.6379 19.6613 79.5389C19.9643 77.8229 20.2606 76.0763 20.5501 74.299C20.5722 74.1602 20.5602 74.018 20.5153 73.8847C20.4704 73.7513 20.3938 73.6306 20.292 73.533C19.1383 72.4312 17.9724 71.3022 16.7941 70.146C16.4405 69.8 16.1838 69.435 16.0241 69.051C15.9968 68.9843 15.9927 68.9162 16.0118 68.8467C16.1907 68.2216 16.6057 67.8621 17.257 67.7681C19.0537 67.5121 20.8177 67.2533 22.5489 66.9918C22.6549 66.9754 22.7555 66.9333 22.8418 66.8693C22.9281 66.8052 22.9977 66.7211 23.0445 66.6241C23.7613 65.1397 24.4978 63.645 25.2542 62.1401C25.9136 60.8286 26.9356 60.4874 27.7056 61.9787C28.3104 63.1527 29.047 64.6426 29.9153 66.4484C30.071 66.7726 30.3399 66.9619 30.7222 67.0163C32.4302 67.2601 34.1375 67.4984 35.8442 67.7313C36.9132 67.8764 37.4252 69.0163 36.5691 69.8477C35.2243 71.1551 33.9204 72.4244 32.6575 73.6555ZM27.4312 75.9312C28.4388 76.4522 29.4505 77.1222 30.5072 77.5226C30.5269 77.5303 30.5483 77.5325 30.5692 77.529C30.5901 77.5255 30.6097 77.5164 30.626 77.5027C30.6423 77.4889 30.6546 77.471 30.6618 77.4508C30.669 77.4306 30.6708 77.4089 30.6669 77.3878C30.4348 76.1362 30.2171 74.9071 30.0136 73.7005C29.9133 73.0999 30.1099 72.8752 30.5031 72.4789C31.3578 71.6154 32.2138 70.7813 33.0712 69.9764C33.0931 69.9558 33.1088 69.9294 33.1163 69.9002C33.1238 69.8711 33.1229 69.8405 33.1137 69.8119C33.1045 69.7832 33.0873 69.7578 33.0642 69.7385C33.0411 69.7191 33.013 69.7067 32.9832 69.7027C31.7448 69.5365 30.5168 69.3663 29.2989 69.192C28.877 69.1307 28.5705 68.9339 28.3794 68.6016C28.1459 68.1971 27.6387 67.1859 26.8577 65.568C26.7786 65.4032 26.6912 65.2643 26.5956 65.1512C26.5773 65.1294 26.5537 65.1126 26.527 65.1026C26.5003 65.0925 26.4714 65.0895 26.4432 65.0938C26.415 65.0981 26.3884 65.1096 26.3659 65.1272C26.3435 65.1448 26.3259 65.1678 26.315 65.1941C25.8522 66.2755 25.3696 67.32 24.8671 68.3278C24.6091 68.8453 24.1722 69.1484 23.5565 69.2369C22.4164 69.4017 21.2887 69.5522 20.1732 69.6884C20.1367 69.6928 20.1022 69.7076 20.0737 69.7309C20.0452 69.7542 20.0239 69.7851 20.0123 69.8199C20.0007 69.8548 19.9993 69.8923 20.0082 69.9279C20.0171 69.9636 20.036 69.996 20.0627 70.0213C20.9665 70.8916 21.858 71.7823 22.7373 72.6934C22.998 72.963 23.0991 73.2878 23.0404 73.6678C22.8561 74.8622 22.6526 76.0538 22.4301 77.2428C22.4123 77.3367 22.4151 77.4062 22.4383 77.4511C22.449 77.4734 22.4642 77.4932 22.483 77.5094C22.5017 77.5257 22.5235 77.538 22.5472 77.5456C22.571 77.5532 22.596 77.556 22.6209 77.5538C22.6458 77.5516 22.6701 77.5445 22.6922 77.5328C23.6766 77.0031 24.6623 76.4746 25.6495 75.9476C26.356 75.5697 26.7492 75.5799 27.4312 75.9312Z" fill="#E35800"/>
<path d="M77.359 66.9437C79.0958 67.2411 80.8642 67.4983 82.6643 67.7152C84.1389 67.8932 84.4128 69.0575 83.3851 70.0458C82.1535 71.2298 80.9308 72.4166 79.7171 73.6062C79.6288 73.6928 79.5629 73.7994 79.5253 73.9171C79.4876 74.0347 79.4792 74.1597 79.5009 74.2814C79.8043 75.9538 80.1029 77.6467 80.3967 79.3601C80.718 81.2323 79.1858 81.2221 78.0077 80.5735C76.5853 79.7904 75.1759 79.0368 73.7796 78.3124C73.7026 78.272 73.6169 78.2505 73.5298 78.2498C73.4427 78.249 73.3567 78.2691 73.2791 78.3083C71.718 79.0859 70.1624 79.8968 68.6123 80.7412C67.5701 81.308 66.3695 80.9561 66.5919 79.5626C66.8651 77.8575 67.1617 76.0896 67.4816 74.2589C67.5032 74.135 67.4938 74.0077 67.4543 73.8885C67.4148 73.7693 67.3464 73.6618 67.255 73.5755C65.9919 72.3709 64.7054 71.1316 63.3955 69.8575C62.7962 69.2744 62.8662 68.2472 63.6859 67.9014C63.9083 67.8072 64.1411 67.7438 64.3841 67.7111C66.0344 67.4873 67.6834 67.2589 69.331 67.0256C69.6784 66.9765 69.9441 66.7616 70.1281 66.381C70.8763 64.8328 71.6356 63.2892 72.4059 61.7505C72.966 60.6312 74.1091 60.842 74.626 61.8671C75.4388 63.4741 76.253 65.094 77.0686 66.7268C77.0967 66.7833 77.1376 66.8324 77.188 66.87C77.2385 66.9077 77.2971 66.933 77.359 66.9437ZM72.0475 67.84C71.6727 68.6728 71.3741 69.127 70.5667 69.2375C69.4052 69.3958 68.2443 69.5595 67.0841 69.7286C66.9921 69.7423 66.9351 69.7702 66.9132 69.8125C66.893 69.8529 66.8868 69.8986 66.8953 69.9427C66.9039 69.9867 66.9268 70.0265 66.9605 70.056C67.9244 70.9195 68.8429 71.8123 69.7162 72.7345C69.9674 73.0005 70.0635 73.3156 70.0045 73.6798C69.8068 74.8953 69.5823 76.1339 69.331 77.3957C69.3269 77.418 69.3287 77.441 69.3362 77.4625C69.3437 77.4839 69.3567 77.5029 69.3739 77.5177C69.391 77.5324 69.4117 77.5423 69.4338 77.5464C69.4559 77.5505 69.4787 77.5486 69.4999 77.541C70.5791 77.1563 71.58 76.477 72.5768 75.9204C73.126 75.6135 73.656 75.5862 74.1667 75.8386C75.2212 76.3597 76.2564 76.9183 77.2725 77.5144C77.5292 77.6644 77.6343 77.5935 77.5876 77.3016C77.4448 76.4217 77.2889 75.4709 77.1201 74.4492C76.9965 73.6941 76.8585 73.0598 77.3425 72.5871C78.2349 71.7155 79.1295 70.867 80.026 70.0417C80.0549 70.0149 80.0755 69.9805 80.0854 69.9426C80.0953 69.9046 80.0942 69.8646 80.0821 69.8273C80.07 69.79 80.0475 69.7568 80.0171 69.7317C79.9868 69.7066 79.9498 69.6907 79.9107 69.6856C78.7587 69.5492 77.5992 69.4121 76.4322 69.2744C75.9269 69.2143 75.5727 68.9954 75.3695 68.6175C74.7516 67.4785 74.1846 66.3183 73.6683 65.1369C73.6632 65.1255 73.6554 65.1154 73.6455 65.1076C73.6356 65.0999 73.624 65.0946 73.6118 65.0924C73.5995 65.0902 73.587 65.091 73.5753 65.0949C73.5636 65.0987 73.5531 65.1054 73.5448 65.1144C72.8857 65.7938 72.4347 66.9785 72.0475 67.84Z" fill="#E35800"/>
</g>
<defs>
<clipPath id="clip0_421_47172">
<rect width="100" height="100" rx="20" fill="white"/>
</clipPath>
</defs>
</svg>
