<svg width="100" height="100" viewBox="0 0 100 100" fill="none" xmlns="http://www.w3.org/2000/svg">
<g clip-path="url(#clip0_421_47185)">
<rect width="100" height="100" fill="white"/>
<path d="M51.3676 42.8901C51.3381 42.8898 51.3088 42.8955 51.2816 42.9069C51.2543 42.9183 51.2296 42.9351 51.209 42.9563C51.1884 42.9776 51.1723 43.0027 51.1617 43.0304C51.151 43.058 51.146 43.0875 51.147 43.1171C51.2984 47.0332 49.2891 50.5439 46.0593 52.728C46.0054 52.7653 45.9679 52.8225 45.9547 52.8875C45.7771 53.7994 46.0724 54.7433 46.9883 55.0491C47.5266 55.2293 48.4244 55.4031 49.6817 55.5708C50.3795 55.6633 50.9994 55.7634 51.5414 55.871C52.3694 56.0361 53.2292 56.1506 53.9825 56.4546C56.2852 57.3902 58.026 58.9814 59.2047 61.2281C60.0433 62.8243 60.8844 64.4061 61.728 65.9735C61.735 65.9863 61.7448 65.9974 61.7567 66.0059C61.7685 66.0145 61.7821 66.0202 61.7965 66.0227C61.8108 66.0252 61.8256 66.0245 61.8396 66.0205C61.8537 66.0165 61.8666 66.0095 61.8775 65.9998C62.4009 65.5494 62.8775 64.9096 63.2326 64.5062C65.6388 61.7641 68.0387 59.0158 70.4324 56.2613C70.6791 55.9761 70.7763 55.719 70.7763 55.3156C70.7701 41.7017 70.7695 33.1091 70.7745 29.5377C70.7757 28.9772 71.0175 28.5469 71.4997 28.2467C72.2025 27.8095 72.7314 28.0159 73.3744 28.5075C75.7893 30.3595 77.8957 32.1946 79.148 33.1854C80.2134 34.0279 80.3181 35.6172 79.2434 36.4897C77.2621 38.0971 75.2852 39.709 73.3127 41.3252C72.9557 41.6179 72.8716 41.9237 72.8716 42.4097C72.8803 46.3752 72.8797 50.3338 72.8697 54.2854C72.8699 54.3007 72.8732 54.3157 72.8795 54.3296C72.8858 54.3434 72.8949 54.3557 72.9063 54.3657C72.9176 54.3756 72.9309 54.383 72.9452 54.3873C72.9595 54.3915 72.9746 54.3927 72.9894 54.3905C73.7576 54.2854 74.4379 53.989 75.1874 54.2329C75.7126 54.4055 76.3145 54.5519 76.7612 54.8014C79.3985 56.28 79.8396 59.8133 77.9219 62.0462C75.5793 64.7745 73.2317 67.4984 70.8791 70.2179C70.1552 71.0535 69.6742 71.5608 69.4362 71.7397C68.9216 72.125 68.4699 72.0436 68.0811 71.4957C67.7584 71.0416 67.7764 70.6032 68.1353 70.1804C69.643 68.4041 71.2081 66.6046 72.8305 64.782C72.8932 64.7115 72.9268 64.6198 72.9244 64.5256C72.9219 64.4313 72.8837 64.3418 72.8174 64.2754L69.6904 61.1418C69.4175 60.8678 69.1552 60.8772 68.9035 61.1699C67.0107 63.3653 65.1267 65.5338 63.2513 67.6754C62.2887 68.7768 60.7337 68.5686 60.0496 67.272C59.2944 65.8434 58.5319 64.4186 57.7618 62.9975C57.0391 61.6615 56.441 60.7427 55.9674 60.2411C53.975 58.1302 51.4592 57.9632 48.7658 57.5053C48.5839 57.4741 48.4443 57.5366 48.3471 57.693C47.0051 59.864 44.9173 61.3895 42.4482 62.0856C38.5867 63.172 34.4634 61.6465 32.0056 58.5167C31.8249 58.2865 31.6785 58.0651 31.5663 57.8525C31.537 57.7967 31.4889 57.753 31.4306 57.729C31.3722 57.705 31.3071 57.7022 31.2467 57.7211C29.6094 58.2371 27.9683 58.6012 26.3104 59.0346C25.265 59.3098 24.47 59.6163 23.9254 59.954C21.989 61.1549 21.0258 63.0251 21.0358 65.5645C21.0545 70.2254 21.0501 74.8864 21.0227 79.5474C21.0171 80.4949 20.9087 81.0991 19.8003 80.9865C19.1181 80.9171 19.006 80.5944 19.0041 79.9658C18.9929 74.9308 19.0047 69.8958 19.0396 64.8608C19.0602 61.9092 20.6358 59.393 23.1647 57.9557C23.7441 57.6267 24.6401 57.3046 25.8525 56.9893C27.9172 56.4527 29.9882 55.9423 32.0654 55.4582C32.5812 55.3381 32.9532 55.173 33.3513 54.8784C33.9083 54.4674 33.8036 53.5724 33.7663 52.9832C33.7616 52.9068 33.7395 52.8325 33.7015 52.7661C33.6636 52.6997 33.6109 52.643 33.5476 52.6004C31.4187 51.1537 29.7309 48.9846 29.0561 46.4721C28.7365 45.2825 28.4524 44.3593 28.529 43.0927C28.5306 43.0703 28.5276 43.0477 28.5203 43.0264C28.513 43.0051 28.5015 42.9854 28.4865 42.9686C28.4715 42.9519 28.4533 42.9383 28.433 42.9286C28.4127 42.919 28.3907 42.9136 28.3683 42.9126C26.9042 42.8563 25.8425 42.1614 25.1833 40.8279C24.5142 39.4713 24.8675 38.2685 25.7385 37.1164C25.7754 37.0678 25.799 37.0104 25.8068 36.9498C25.8147 36.8892 25.8066 36.8276 25.7833 36.7712C25.017 34.8948 25.4974 33.4793 27.2244 32.5249C27.3714 32.4436 27.4456 32.2766 27.4468 32.0239C27.4543 29.851 27.4562 27.6775 27.4524 25.5034C27.4524 24.5896 27.8375 23.3699 28.2935 22.5631C29.3159 20.7524 31.2523 19.2006 33.3924 19.0467C33.7089 19.023 34.3008 19.0098 35.1681 19.0073C38.4241 18.9936 41.6794 18.9992 44.9341 19.0242C45.4176 19.028 45.8998 19.0486 46.3808 19.0861C49.7246 19.3413 52.2741 22.5237 52.3096 25.738C52.3408 28.4425 52.3489 30.5065 52.3339 31.9301C52.3283 32.3035 52.3993 32.4611 52.7451 32.6431C54.3021 33.4537 54.6609 35.225 53.9675 36.7768C53.9554 36.8047 53.9502 36.8351 53.9521 36.8654C53.9541 36.8958 53.9632 36.9252 53.9787 36.9513C54.2124 37.3416 54.4796 37.7169 54.6198 38.1203C55.4441 40.4714 53.9096 42.9145 51.3676 42.8901ZM47.4761 32.8514C46.549 32.1815 47.1752 30.7986 48.3004 31.0463C48.9309 31.1864 49.5465 31.3603 50.1471 31.5679C50.1634 31.5736 50.1809 31.5753 50.1981 31.5728C50.2152 31.5703 50.2315 31.5638 50.2456 31.5537C50.2597 31.5435 50.2712 31.5302 50.2791 31.5147C50.287 31.4993 50.291 31.4821 50.291 31.4647C50.2748 29.776 50.2648 28.0885 50.2611 26.4022C50.2573 25.3683 50.1415 24.4545 49.691 23.6439C48.5415 21.5817 46.8612 21.0019 44.5977 20.9982C41.5673 20.9957 38.5381 20.9963 35.5101 21.0001C34.2504 21.0026 33.3488 21.0976 32.8055 21.2853C31.0149 21.9064 29.5645 23.6908 29.544 25.6685C29.524 27.6137 29.5159 29.5395 29.5197 31.446C29.5196 31.4669 29.5245 31.4875 29.5341 31.5061C29.5437 31.5247 29.5577 31.5407 29.5747 31.5527C29.5918 31.5646 29.6116 31.5723 29.6322 31.575C29.6529 31.5776 29.6739 31.5752 29.6935 31.5679C30.952 31.1163 32.2311 30.7523 33.5308 30.4759C34.9793 30.1681 36.6746 30.0443 38.2521 29.8698C40.0072 29.6746 42.0987 29.9336 44.0482 30.1644C45.493 30.3351 45.0818 32.4273 43.6706 32.2096C41.4389 31.8669 39.3374 31.8125 37.3661 32.0464C36.4777 32.1515 35.5893 32.2597 34.7008 32.371C34.0317 32.4561 32.6442 32.8201 30.5383 33.4631C29.9925 33.6294 29.162 33.9628 28.0468 34.4632C26.9403 34.9586 27.772 36.6267 28.8262 36.1444C29.8231 35.6891 30.491 35.4133 30.8299 35.317C32.2822 34.9117 33.798 34.4632 35.2148 34.2343C38.7362 33.6701 42.2563 33.7458 45.7752 34.4613C46.478 34.6052 47.6194 34.9292 49.1994 35.4333C49.777 35.6191 50.4648 35.9962 51.1676 36.1688C51.7034 36.3002 52.0286 36.0944 52.1433 35.5515L52.1601 35.4764C52.2685 34.9636 52.0816 34.6058 51.5994 34.4031C50.6274 33.9941 49.6013 33.5663 48.5434 33.2679C48.0063 33.1166 47.6506 32.9777 47.4761 32.8514ZM72.9763 30.8661C72.9667 30.8584 72.9551 30.8535 72.9429 30.852C72.9307 30.8505 72.9183 30.8526 72.9071 30.8579C72.896 30.8632 72.8866 30.8715 72.88 30.8819C72.8734 30.8924 72.8698 30.9044 72.8697 30.9168L72.8828 38.8633C72.8829 38.8757 72.8864 38.8878 72.8931 38.8982C72.8997 38.9086 72.9091 38.917 72.9202 38.9223C72.9314 38.9276 72.9438 38.9296 72.956 38.9281C72.9682 38.9267 72.9798 38.9218 72.9894 38.914L77.8359 34.9323C77.8434 34.9261 77.8494 34.9184 77.8535 34.9096C77.8576 34.9009 77.8597 34.8913 77.8597 34.8816C77.8597 34.8719 77.8576 34.8624 77.8535 34.8536C77.8494 34.8449 77.8434 34.8371 77.8359 34.831L72.9763 30.8661ZM48.2967 47.1082C48.8487 45.9824 49.1303 44.8322 49.1415 43.6575C49.1602 41.7486 49.167 39.8703 49.162 38.0227C49.1615 37.9302 49.1342 37.8399 49.0834 37.7628C49.0326 37.6858 48.9605 37.6255 48.8761 37.5893C45.5921 36.1857 41.8202 35.8048 38.2876 35.9737C36.1344 36.0769 33.955 36.561 31.8972 37.1783C31.5221 37.2909 31.1296 37.4654 30.7196 37.7019C30.6947 37.7161 30.674 37.7368 30.6595 37.7618C30.6451 37.7869 30.6374 37.8154 30.6374 37.8445C30.6386 39.562 30.6417 41.2814 30.6467 43.0027C30.653 45.4357 31.3894 47.506 32.856 49.2135C37.3063 54.398 45.3547 53.1164 48.2967 47.1082ZM28.5122 40.4752L28.4561 38.4149C28.4552 38.3836 28.4481 38.3528 28.4352 38.3242C28.4224 38.2957 28.4041 38.27 28.3814 38.2485C28.3586 38.2271 28.3319 38.2104 28.3027 38.1993C28.2735 38.1883 28.2425 38.1831 28.2113 38.1841L28.116 38.186C27.9633 38.1902 27.8131 38.2256 27.6737 38.2901C27.5344 38.3546 27.4087 38.447 27.3039 38.562C27.199 38.677 27.1171 38.8124 27.0627 38.9603C27.0084 39.1083 26.9826 39.266 26.987 39.4244L26.9908 39.5482C26.995 39.7068 27.0294 39.8629 27.0918 40.0078C27.1542 40.1526 27.2436 40.2833 27.3547 40.3924C27.4658 40.5015 27.5965 40.5869 27.7393 40.6436C27.8821 40.7003 28.0342 40.7272 28.187 40.7229L28.2823 40.7191C28.3449 40.7171 28.4043 40.6904 28.4473 40.6447C28.4904 40.599 28.5137 40.5381 28.5122 40.4752ZM51.1938 38.398L51.1863 40.5183C51.1863 40.5736 51.2081 40.6265 51.2471 40.6656C51.286 40.7047 51.3387 40.7266 51.3938 40.7266H51.6311C51.9355 40.7275 52.2277 40.6016 52.4437 40.3764C52.6596 40.1511 52.7815 39.8452 52.7825 39.5257V39.3981C52.783 39.2399 52.7538 39.0831 52.6966 38.9368C52.6394 38.7904 52.5553 38.6573 52.4491 38.5451C52.3429 38.4329 52.2166 38.3438 52.0775 38.2828C51.9385 38.2218 51.7893 38.1902 51.6386 38.1897H51.4012C51.3462 38.1897 51.2934 38.2117 51.2545 38.2507C51.2156 38.2898 51.1938 38.3428 51.1938 38.398ZM33.8223 57.4096C36.8802 61.3369 43.0632 61.2093 46.0631 57.2971C46.0873 57.2652 46.104 57.2283 46.112 57.1891C46.12 57.1498 46.119 57.1092 46.1091 57.0702C46.0992 57.0313 46.0807 56.995 46.055 56.9641C46.0292 56.9332 45.9968 56.9085 45.9603 56.8918C44.713 56.3326 44.0295 55.3631 43.9099 53.9833C43.9049 53.9233 43.8725 53.8964 43.8127 53.9027C43.4401 53.9427 43.1853 53.9902 43.0482 54.0453C40.8913 54.914 38.196 54.6776 36.0671 53.8313C36.0502 53.8245 36.0319 53.8218 36.0137 53.8234C35.9955 53.825 35.978 53.8308 35.9625 53.8405C35.947 53.8502 35.934 53.8635 35.9246 53.8791C35.9152 53.8948 35.9096 53.9125 35.9082 53.9308C35.8111 55.3494 35.1407 56.3914 33.8971 57.0569C33.8669 57.0728 33.8406 57.0952 33.82 57.1226C33.7994 57.1499 33.7851 57.1815 33.778 57.2151C33.7708 57.2487 33.7711 57.2836 33.7788 57.3172C33.7864 57.3508 33.8013 57.3823 33.8223 57.4096ZM70.5932 59.1922L74.3744 62.8061C74.3848 62.8161 74.3987 62.8215 74.4131 62.8211C74.4274 62.8208 74.4411 62.8147 74.451 62.8043L76.2696 60.8885C76.522 60.6226 76.722 60.3115 76.8581 59.973C76.9943 59.6346 77.0639 59.2753 77.063 58.9158C77.0621 58.5564 76.9908 58.2037 76.8531 57.8779C76.7153 57.5522 76.5139 57.2598 76.2603 57.0175C75.7483 56.5283 75.055 56.2725 74.333 56.3062C73.6109 56.34 72.9192 56.6607 72.4099 57.1976L70.5913 59.1153C70.5814 59.1257 70.576 59.1397 70.5764 59.1541C70.5767 59.1686 70.5828 59.1823 70.5932 59.1922Z" fill="#E35800"/>
<path d="M35.0915 39H34.9085C34.4067 39 34 39.438 34 39.9782V42.0218C34 42.562 34.4067 43 34.9085 43H35.0915C35.5933 43 36 42.562 36 42.0218V39.9782C36 39.438 35.5933 39 35.0915 39Z" fill="#E35800"/>
<path d="M45.1361 39H44.8639C44.3868 39 44 39.4055 44 39.9058V42.0942C44 42.5945 44.3868 43 44.8639 43H45.1361C45.6132 43 46 42.5945 46 42.0942V39.9058C46 39.4055 45.6132 39 45.1361 39Z" fill="#E35800"/>
<path d="M38.998 46.2725C39.5944 46.559 40.053 46.5921 40.7146 46.3849C41.3763 46.18 42.3903 45.5586 42.8339 46.5304C43.3968 47.7622 42.4145 48.4431 41.5963 48.7296C40.673 49.0542 39.751 49.0866 38.8302 48.8265C38.0064 48.593 36.8992 48.2294 37.0074 46.9601C37.108 45.7613 38.2953 45.9332 38.998 46.2725Z" fill="#E35800"/>
<path d="M29.0907 72H28.9093C28.4071 72 28 72.4318 28 72.9646V80.0354C28 80.5682 28.4071 81 28.9093 81H29.0907C29.5929 81 30 80.5682 30 80.0354V72.9646C30 72.4318 29.5929 72 29.0907 72Z" fill="#E35800"/>
<path d="M56.3231 78.0797C56.1492 77.8412 56.0592 77.8713 56.0532 78.1701C56.0423 78.6773 56.0315 79.1971 56.0206 79.7294C56.0043 80.5956 55.8413 81.0721 54.912 80.9911C54.1603 80.9252 54.0136 80.5184 54.01 79.7783C54.0027 77.8462 54.0009 75.9141 54.0045 73.9819C54.0064 73.0761 53.8904 72.3831 54.7255 72.0837C56.2488 71.5376 56.0351 73.8143 56.026 74.5789C56.0243 74.6853 56.0435 74.791 56.0824 74.8894C56.1213 74.9879 56.1792 75.077 56.2524 75.1514C56.9214 75.8381 57.6001 76.5437 58.2884 77.2681C58.7401 77.7426 59.0975 78.0421 59.3608 78.1663C60.1559 78.543 61.0363 78.3471 61.6449 77.6296C62.774 76.2926 63.9019 74.9549 65.0285 73.6166C65.447 73.1175 66.0719 72.7353 66.6135 73.2889C67.2076 73.8972 67.0609 74.3642 66.5519 74.9668C65.6365 76.0478 64.7266 77.1344 63.8222 78.2266C63.1133 79.0816 62.5331 79.6471 62.0814 79.9233C59.8498 81.2924 57.745 80.0156 56.3231 78.0797Z" fill="#E35800"/>
</g>
<defs>
<clipPath id="clip0_421_47185">
<rect width="100" height="100" rx="20" fill="white"/>
</clipPath>
</defs>
</svg>
