<svg width="100" height="100" viewBox="0 0 100 100" fill="none" xmlns="http://www.w3.org/2000/svg">
<g clip-path="url(#clip0_421_47146)">
<rect width="100" height="100" fill="white"/>
<path d="M49.4674 22.964C49.4797 22.975 49.4954 22.981 49.5117 22.981C49.528 22.981 49.5437 22.975 49.556 22.964C52.847 19.9035 56.4944 16.6497 60.6499 14.9086C65.149 13.0241 70.4408 14.1718 74.0586 17.4191C79.9998 22.7553 80.7525 32.13 75.3953 38.1552C71.826 42.1676 66.0197 44.2521 60.9366 42.1307C56.8591 40.4309 52.9925 37.2618 49.828 34.1493C49.7415 34.0646 49.6272 34.0168 49.5082 34.0155C49.3892 34.0143 49.2744 34.0598 49.187 34.1427C45.6767 37.4531 41.6857 40.8157 37.1739 42.448C33.0543 43.9391 27.9375 42.2394 24.7898 39.3833C15.3636 30.8367 20.687 14.4174 33.4654 14.0153C35.9884 13.9356 38.4101 14.6529 40.7306 16.1671C40.907 16.2817 41.0348 16.4609 41.0884 16.6689C41.1419 16.8769 41.1173 17.0983 41.0195 17.2887L40.9288 17.4626C40.614 18.0741 40.1628 18.211 39.5753 17.8734C37.5499 16.7069 35.8998 16.1027 34.625 16.0606C30.8469 15.9346 27.7238 17.2445 25.2557 19.9905C19.3082 26.6091 21.9183 37.0206 30.0394 40.1288C34.0262 41.6547 37.3278 40.5635 40.7117 38.3117C42.8762 36.8699 44.9135 35.2614 46.8236 33.4863C48.3479 32.0691 49.5412 31.0649 51.2953 32.6756C54.2069 35.3513 57.0299 37.7792 60.5255 39.6289C62.8811 40.8765 65.3514 41.1591 67.9361 40.4766C73.9891 38.8768 77.8388 32.6669 76.7615 26.3069C76.0489 22.101 73.2701 18.519 69.4098 16.9257C66.2797 15.6317 63.2332 15.7926 60.2704 17.4083C57.843 18.7327 55.5977 20.3281 53.5343 22.1945C52.6713 22.9741 51.7957 23.7392 50.9074 24.4898C49.6888 25.5179 48.5229 24.9767 47.4793 24.0095C46.3169 22.9299 44.976 21.7707 43.4567 20.5317C42.9479 20.1158 42.8811 19.6355 43.2564 19.0906L43.3766 18.9146C43.4917 18.7478 43.6654 18.634 43.8608 18.5974C44.0562 18.5609 44.2577 18.6045 44.4223 18.7189C46.3113 20.0296 47.7998 21.5316 49.4674 22.964Z" fill="#E35800"/>
<path d="M25.1808 27.0155C26.0438 22.0024 31.7791 18.3959 36.1669 20.7233C39.6501 22.5694 42.6301 25.2045 45.5622 28.1649C46.4398 29.0506 45.8388 29.5187 45.1484 30.2198C43.0523 32.3486 40.7883 34.2534 38.3567 35.9339C37.2192 36.7207 35.9423 37.4701 34.6198 37.8305C32.4238 38.4283 29.5707 37.3668 27.9819 35.8636C25.5045 33.5164 24.5708 30.567 25.1808 27.0155ZM31.1469 35.3823C33.4656 36.4064 35.2395 35.5427 37.2816 34.1274C39.4457 32.6314 41.4579 30.9523 43.3184 29.0901C43.333 29.0755 43.3445 29.058 43.3525 29.0385C43.3604 29.0191 43.3644 28.9981 43.3644 28.9769C43.3644 28.9558 43.3604 28.9348 43.3525 28.9153C43.3445 28.8959 43.333 28.8783 43.3184 28.8638C41.4593 27.0133 39.4484 25.3364 37.2857 23.8331C36.2293 23.0991 34.6738 22.1277 33.3949 22.1211C30.1841 22.1057 27.4142 24.7826 27.0524 28.1187C26.703 31.345 28.3042 34.1274 31.1469 35.3823Z" fill="#E35800"/>
<path d="M54.7402 27.6565C54.848 27.9247 55.2214 28.1886 55.3978 28.3478C57.1306 29.9175 58.9686 31.3511 60.9117 32.6485C61.4469 33.0046 62.4786 33.5192 64.0068 34.1923C64.1812 34.2692 64.3197 34.4106 64.3938 34.5876C64.4679 34.7646 64.472 34.9635 64.4051 35.1434L64.3325 35.3403C64.1195 35.9157 63.7219 36.1147 63.1396 35.9373C62.1923 35.6482 61.3625 35.2844 60.6503 34.8459C58.2412 33.367 55.9952 31.6695 53.9125 29.7534C53.3088 29.1962 52.6782 28.6683 52.143 27.9959C51.7695 27.5287 52.2114 27.005 52.5143 26.7118C55.2837 24.0157 58.3331 21.4915 61.6979 19.7465C65.3033 17.878 69.5331 19.7319 71.6304 22.9285C74.4247 27.1852 72.763 32.9375 68.2822 35.2272C68.195 35.2717 68.0999 35.2982 68.0025 35.3053C67.9051 35.3124 67.8073 35.2999 67.7148 35.2685C67.6224 35.2371 67.537 35.1875 67.4639 35.1225C67.3907 35.0575 67.3311 34.9784 67.2886 34.8899L67.1973 34.6993C66.9248 34.1337 67.0541 33.6854 67.5852 33.3544C71.8192 30.7233 72.232 24.9123 67.9731 22.0571C65.936 20.6913 63.8353 20.6773 61.6709 22.0152C59.2383 23.5207 56.9495 25.3034 54.8045 27.3633C54.7174 27.447 54.6959 27.5448 54.7402 27.6565Z" fill="#E35800"/>
<path d="M39.2726 77.3721C40.6163 77.5295 41.9277 77.6317 41.96 79.2913C42.0103 81.7594 42.0132 83.4091 41.9686 84.2404C41.8911 85.7085 40.6378 86 39.3932 86C33.7584 85.9957 28.1237 85.9858 22.489 85.9702C21.1883 85.9681 19.8015 85.9021 19.7628 84.2382C19.7283 82.7361 19.7233 81.2325 19.7477 79.7275C19.7757 78.0189 20.5811 77.3231 22.2952 77.4338C22.3265 77.4358 22.3579 77.4314 22.3874 77.4209C22.417 77.4104 22.4441 77.394 22.4671 77.3727C22.4901 77.3514 22.5085 77.3256 22.5211 77.297C22.5338 77.2683 22.5404 77.2374 22.5407 77.2061C22.5478 76.0798 22.5464 74.9848 22.5364 73.9209C22.5277 72.957 22.1121 72.2443 21.4661 71.4144C19.5381 68.9434 17.6065 66.4746 15.6713 64.0078C14.0089 61.8865 14.0024 60.3843 14.0003 57.4204C13.9988 51.7848 14.0031 46.1498 14.0132 40.5156C14.0153 39.2411 13.9701 38.024 15.2212 37.3283C16.565 36.5772 18.7291 37.224 19.8597 38.1709C21.9635 39.9305 21.8774 41.8497 21.8839 44.8328C21.891 47.6513 21.891 50.4741 21.8839 53.3011C21.8838 53.3383 21.8911 53.3739 21.905 53.4046C21.9189 53.4354 21.939 53.4605 21.9635 53.4777C22.0095 53.5089 22.0755 53.5103 22.1617 53.482C23.758 52.9472 25.2051 53.0068 26.5029 53.6607C27.1432 53.9827 28.0641 54.7976 29.2657 56.1054C30.5578 57.5097 32.0587 58.963 33.1375 60.5247C33.4842 61.0269 32.5863 61.6737 32.2051 61.8482C32.1402 61.8767 32.0667 61.879 32.0006 61.8546C31.6919 61.7397 31.4091 61.5425 31.1521 61.2631C28.9083 58.8304 27.4705 57.2573 26.8388 56.5438C25.5597 55.0983 24.0567 54.8224 22.3296 55.7161C22.2349 55.7657 22.1143 55.8877 21.9679 56.082C21.9248 56.1416 21.9104 56.2069 21.9248 56.2778C21.975 56.5161 22.0942 56.7395 22.2823 56.948C24.7558 59.6999 27.2257 62.4532 29.6921 65.2079C30.4867 66.093 30.3898 66.8675 29.2528 67.3079C29.1853 67.3335 29.12 67.3292 29.0569 67.2952C28.6391 67.071 28.2752 66.7845 27.9651 66.4356C25.4786 63.6426 22.9843 60.8574 20.482 58.08C19.935 57.4715 19.7391 56.7565 19.7412 55.8842C19.7498 51.294 19.7506 46.703 19.7434 42.1114C19.7412 40.4794 18.0831 38.9922 16.4185 39.0836C16.3165 39.0896 16.2207 39.1335 16.1506 39.2063C16.0805 39.279 16.0416 39.3752 16.0417 39.4751C16.0288 45.9477 16.0259 52.3472 16.0331 58.6736C16.0331 60.3269 16.2829 61.395 17.2411 62.6184C19.3744 65.3348 21.4984 68.0576 23.6131 70.7868C24.9632 72.5272 24.679 75.1294 24.6531 77.2231C24.6529 77.2501 24.658 77.2769 24.6683 77.302C24.6785 77.327 24.6937 77.3498 24.7129 77.3689C24.7322 77.3881 24.755 77.4034 24.7803 77.4138C24.8055 77.4242 24.8325 77.4295 24.8599 77.4295L36.9125 77.4316C36.9401 77.4316 36.9666 77.4207 36.9863 77.4012C37.006 77.3817 37.0174 77.3552 37.018 77.3274C37.051 75.6607 37.0603 73.9925 37.046 72.323C37.0331 70.7229 36.9046 69.53 36.6605 68.7441C36.2442 67.3952 35.5034 66.0753 34.4382 64.7844C34.3751 64.7079 34.3278 64.6198 34.2992 64.5253C34.2705 64.4307 34.261 64.3314 34.2712 64.2332C34.2814 64.135 34.3111 64.0397 34.3586 63.9529C34.4061 63.866 34.4705 63.7892 34.548 63.727L34.7203 63.5887C35.25 63.1645 35.7381 63.2071 36.1846 63.7163C38.183 65.9973 39.1778 68.6541 39.1692 71.6868C39.1649 73.5308 39.1542 75.3756 39.1369 77.221C39.1362 77.2581 39.1497 77.2941 39.1748 77.3221C39.1999 77.35 39.2348 77.3678 39.2726 77.3721ZM39.8669 79.7168C39.8669 79.6897 39.8615 79.6629 39.851 79.6378C39.8405 79.6128 39.8251 79.5901 39.8057 79.5709C39.7864 79.5517 39.7633 79.5365 39.738 79.5261C39.7126 79.5158 39.6855 79.5104 39.658 79.5104H22.0734C22.0459 79.5104 22.0188 79.5158 21.9934 79.5261C21.9681 79.5365 21.9451 79.5517 21.9257 79.5709C21.9063 79.5901 21.8909 79.6128 21.8804 79.6378C21.8699 79.6629 21.8645 79.6897 21.8645 79.7168V83.751C21.8645 83.7781 21.8699 83.8049 21.8804 83.83C21.8909 83.855 21.9063 83.8778 21.9257 83.8969C21.9451 83.9161 21.9681 83.9313 21.9934 83.9417C22.0188 83.952 22.0459 83.9574 22.0734 83.9574H39.658C39.6855 83.9574 39.7126 83.952 39.738 83.9417C39.7633 83.9313 39.7864 83.9161 39.8057 83.8969C39.8251 83.8778 39.8405 83.855 39.851 83.83C39.8615 83.8049 39.8669 83.7781 39.8669 83.751V79.7168Z" fill="#E35800"/>
<path d="M59.7807 77.4369C59.7967 77.4375 59.8128 77.4348 59.8278 77.4291C59.8428 77.4233 59.8564 77.4146 59.8679 77.4034C59.8794 77.3923 59.8884 77.3789 59.8945 77.3642C59.9006 77.3495 59.9035 77.3337 59.9032 77.3177C59.8717 75.6664 59.8653 74.0193 59.8839 72.3765C59.9025 70.7152 60.0186 69.4519 60.2322 68.5865C60.8688 65.9989 62.3976 64.0943 64.3201 62.0174C66.4288 59.7404 68.5176 57.4457 70.5862 55.1333C72.3165 53.1996 74.426 52.6627 76.9147 53.5224C76.9388 53.5309 76.9646 53.5336 76.9899 53.5302C77.0153 53.5268 77.0394 53.5174 77.0603 53.5028C77.0812 53.4881 77.0982 53.4688 77.1099 53.4462C77.1216 53.4237 77.1277 53.3988 77.1276 53.3734C77.1376 49.736 77.1405 46.1595 77.1362 42.644C77.1319 40.2266 78.4328 38.1476 80.71 37.3134C81.7064 36.9474 82.6081 36.902 83.4152 37.1772C84.4732 37.5361 85.0014 38.437 85 39.8798C84.9971 46.2638 84.9964 52.6478 84.9978 59.0318C84.9978 61.9195 84.0839 63.0239 82.1486 65.5116C80.4585 67.6836 78.764 69.8534 77.0652 72.0211C76.1642 73.1724 76.448 75.7728 76.4588 77.2326C76.4595 77.2692 76.4735 77.3042 76.498 77.3312C76.5225 77.3582 76.5559 77.3753 76.5921 77.3795C78.6887 77.622 79.2306 77.8221 79.265 80.0692C79.2922 81.9816 79.2865 83.357 79.2478 84.1954C79.1704 85.8638 77.8737 86 76.519 86C70.8923 85.9972 65.2655 85.9936 59.6387 85.9894C57.7916 85.9872 56.9831 85.4574 57.0003 83.5038C57.0146 81.6752 57.0347 80.292 57.0605 79.3542C57.1035 77.7795 58.4173 77.3688 59.7807 77.4369ZM79.2177 56.3186C79.2134 57.1719 78.736 57.9274 78.149 58.5679C75.8897 61.0307 73.3501 63.8439 70.5303 67.0076C70.3869 67.1684 70.1868 67.2689 69.9712 67.2882C69.7556 67.3076 69.5409 67.2445 69.3712 67.1118L69.1799 66.9629C68.6437 66.5429 68.6007 66.0776 69.0508 65.5669C72.2506 61.9351 74.8274 59.0481 76.7814 56.9059C77.2243 56.4207 77.0953 55.8909 76.5126 55.6227C74.8726 54.8708 73.4361 55.1702 72.2033 56.5208C70.0271 58.9055 67.8488 61.2875 65.6683 63.6666C64.0534 65.4286 62.9266 66.765 62.3396 68.8653C62.1246 69.6328 62.0063 70.7826 61.9848 72.3148C61.9604 73.9633 61.9669 75.6047 62.0041 77.239C62.0053 77.2913 62.0271 77.3411 62.0648 77.3777C62.1026 77.4143 62.1534 77.4348 62.2063 77.4348L66.2468 77.4454C66.4584 77.4454 66.6616 77.528 66.8125 77.6753C66.9633 77.8226 67.0498 78.0228 67.0532 78.2328L67.0575 78.4647C67.0689 79.1599 66.7234 79.5082 66.021 79.5096L59.3721 79.5202C59.3447 79.5202 59.3176 79.5255 59.2923 79.5358C59.267 79.546 59.244 79.5611 59.2246 79.5801C59.2052 79.599 59.1899 79.6215 59.1794 79.6463C59.1689 79.6711 59.1635 79.6977 59.1635 79.7245L59.1549 83.8167C59.1549 83.9174 59.2065 83.9678 59.3097 83.9678L76.9405 83.9699C76.9914 83.9699 77.0403 83.95 77.0766 83.9145C77.1128 83.8791 77.1334 83.8309 77.134 83.7805L77.1598 79.7288C77.1598 79.674 77.1378 79.6215 77.0987 79.5828C77.0596 79.5441 77.0066 79.5224 76.9512 79.5224L71.0184 79.5138C70.3289 79.5124 69.9784 79.1698 69.9669 78.486L69.9626 78.2434C69.9609 78.1388 69.9803 78.0348 70.0196 77.9377C70.059 77.8405 70.1175 77.7521 70.1918 77.6776C70.266 77.6031 70.3546 77.544 70.4522 77.5038C70.5498 77.4636 70.6546 77.443 70.7604 77.4433L74.173 77.4539C74.1963 77.4542 74.2195 77.4499 74.2411 77.4413C74.2628 77.4326 74.2824 77.4198 74.2991 77.4036C74.3157 77.3874 74.3288 77.368 74.3378 77.3467C74.3468 77.3254 74.3515 77.3025 74.3515 77.2794C74.3558 75.2429 74.0332 72.5382 75.3471 70.8529C77.5232 68.0595 79.6893 65.2583 81.8454 62.4494C82.5909 61.4776 82.9643 60.2675 82.9658 58.819C82.9715 52.6123 82.9715 46.4056 82.9658 40.199C82.9658 39.9152 82.9478 39.6329 82.912 39.352C82.9012 39.2741 82.8624 39.2027 82.8028 39.1508C82.7432 39.0988 82.6667 39.0698 82.5873 39.069C80.8735 39.0583 79.2629 40.4692 79.2607 42.1674C79.2564 46.8844 79.2421 51.6015 79.2177 56.3186Z" fill="#E35800"/>
</g>
<defs>
<clipPath id="clip0_421_47146">
<rect width="100" height="100" rx="20" fill="white"/>
</clipPath>
</defs>
</svg>
