<svg width="100" height="100" viewBox="0 0 100 100" fill="none" xmlns="http://www.w3.org/2000/svg">
<g clip-path="url(#clip0_421_47136)">
<rect width="100" height="100" fill="white"/>
<path d="M52.092 25.1335C56.7732 21.0803 64.3753 23.0757 65.7978 29.132C66.0639 30.2646 66.0673 31.5156 65.8081 32.8848C64.6229 39.148 58.2879 44.0711 52.6283 46.8545C51.9487 47.188 51.304 46.8993 50.5794 46.4819C46.4365 44.0906 42.8872 41.5744 40.169 37.6675C39.8108 37.1506 39.4833 36.544 39.9172 35.9686C40.3819 35.3542 41.3808 35.3815 41.8249 36.0349C44.3856 39.8053 47.7711 42.5048 51.8239 44.5997C51.9849 44.6816 52.1425 44.6796 52.2967 44.5938C55.7927 42.6628 59.1946 40.211 61.5137 37.0375C63.7448 33.9849 65.0569 29.1964 61.5178 26.4657C59.4034 24.835 55.6679 24.7414 53.75 26.6666C53.095 27.3258 52.2046 28.5683 51.3736 27.7199C50.8148 27.1483 49.7872 26.1945 48.9685 25.8103C46.4345 24.6244 43.0981 25.27 41.481 27.4526C40.6732 28.5436 40.2932 29.7607 40.3409 31.104C40.356 31.524 40.3723 31.9453 40.3901 32.3679C40.4371 33.4622 38.9818 33.8991 38.4067 33.1599C38.2675 32.9791 38.1624 32.6436 38.0914 32.1534C36.9964 24.6322 45.9821 20.0836 51.9712 25.1335C51.9882 25.1475 52.0099 25.1553 52.0321 25.1553C52.0544 25.1553 52.0757 25.1475 52.092 25.1335Z" fill="#E35800"/>
<path d="M21.8223 70.5793C21.8058 70.5974 21.8003 70.6309 21.8058 70.6798C21.9918 72.313 21.3387 74.0022 19.3012 74.008C17.2692 74.0145 15.2371 74.0119 13.2051 74.0003C10.5373 73.9829 9.99589 73.1653 10 70.7784C10.0124 62.6454 10.0221 54.5117 10.029 46.3775C10.029 44.752 10.031 43.1053 12.3269 43.0551C14.3644 43.01 16.4013 42.9926 18.4374 43.0029C19.2378 43.0067 19.6739 43.0132 19.7455 43.0222C21.4669 43.2445 22.0228 44.897 21.8016 46.2924C21.7945 46.3377 21.7979 46.3839 21.8116 46.4278C21.8252 46.4717 21.8488 46.5124 21.8808 46.5471C21.9127 46.5817 21.9523 46.6095 21.9967 46.6286C22.0412 46.6477 22.0895 46.6576 22.1385 46.6577C23.4472 46.6616 24.756 46.6951 26.0648 46.7582C28.9344 46.8961 31.678 47.4772 34.2955 48.5015C35.8123 49.0968 37.6825 50.1966 39.2592 50.8518C41.6439 51.8433 43.9294 52.2086 46.87 52.5236C49.8898 52.847 52.9096 53.1672 55.9294 53.4842C57.097 53.6059 58.3678 53.7721 59.3949 54.2263C62.0069 55.3744 63.3377 57.5275 63.6187 60.243C63.6257 60.308 63.6573 60.3684 63.7078 60.4132C63.7583 60.458 63.8243 60.484 63.8936 60.4865L66.5552 60.6005C66.8062 60.6106 67.0538 60.5456 67.2619 60.415C72.2945 57.244 77.3642 54.0749 82.4712 50.9078C85.5977 48.9693 89.6335 50.931 89.9766 54.3964C90.084 55.4788 89.8216 56.4451 89.1893 57.2955C88.9592 57.6061 88.2332 58.2755 87.0112 59.3037C82.4663 63.1241 77.9242 66.9464 73.3849 70.7707C70.9568 72.8174 68.6651 73.5229 65.3876 73.9578C58.6 74.8571 51.8144 75.7681 45.0308 76.6907C42.9148 76.9786 40.9475 77.2744 38.879 76.5361C33.2526 74.5273 27.6256 72.5282 21.998 70.5387C21.9675 70.5279 21.9344 70.526 21.9029 70.5333C21.8715 70.5405 21.8434 70.5566 21.8223 70.5793ZM22.2253 68.3064C28.1602 70.3725 34.0393 72.4889 39.9597 74.5453C40.807 74.8391 41.6184 74.9338 42.394 74.8294C50.383 73.751 58.3734 72.6744 66.3651 71.5998C68.9916 71.2481 70.5001 70.2662 72.6306 68.4707C77.0446 64.7495 81.4655 61.0354 85.8932 57.3284C86.7033 56.6507 87.2151 56.1179 87.4286 55.73C88.2118 54.3075 87.1682 52.6589 85.5543 52.3922C84.8421 52.2736 84.1471 52.4276 83.4693 52.8541C78.372 56.0599 73.2692 59.2579 68.1608 62.4483C67.7255 62.7201 67.3163 62.84 66.9334 62.8077C64.4068 62.5964 62.7708 62.5288 62.0255 62.6048C56.1044 63.2143 50.1798 63.7915 44.2518 64.3366C43.8151 64.3778 43.4913 64.3759 43.2805 64.3308C41.7693 64.0151 39.2013 63.4224 35.5767 62.5526C33.9215 62.1545 34.4526 60.1502 35.99 60.4363C37.004 60.6244 39.4238 61.1765 43.2495 62.0926C43.5884 62.1719 44.1547 62.1815 44.4977 62.1467C50.0276 61.5875 55.5444 61.0528 61.0481 60.5426C61.0758 60.5401 61.1027 60.5326 61.1273 60.5204C61.1519 60.5082 61.1737 60.4915 61.1914 60.4714C61.209 60.4513 61.2223 60.4281 61.2303 60.4031C61.2384 60.3782 61.241 60.352 61.2382 60.3261C61.0005 57.9739 59.6036 56.0953 56.9626 55.8054C53.3133 55.4047 49.6639 55.0052 46.0145 54.6071C43.0346 54.2843 40.8462 53.8514 38.3417 52.8464C36.7691 52.2163 34.6696 50.9677 32.8883 50.2951C29.4662 49.0002 25.7734 48.7934 22.0269 48.9016C21.9921 48.9025 21.9579 48.9101 21.9264 48.9239C21.8948 48.9377 21.8666 48.9574 21.8434 48.9818C21.8202 49.0062 21.8025 49.0348 21.7914 49.0659C21.7803 49.097 21.7761 49.1299 21.7789 49.1625C21.8347 49.7965 21.9835 51.074 21.44 51.5186C20.8387 52.0133 19.5306 51.7524 19.4996 50.8228C19.4417 49.0678 19.4355 47.2929 19.481 45.4981C19.4851 45.2842 19.3728 45.1772 19.1442 45.1772L12.5232 45.1637C12.4503 45.1637 12.3804 45.1908 12.3288 45.239C12.2773 45.2872 12.2483 45.3526 12.2483 45.4207L12.2566 71.5515C12.2566 71.6202 12.2858 71.6861 12.3377 71.7346C12.3896 71.7832 12.4601 71.8105 12.5335 71.8105L19.2557 71.8298C19.31 71.8298 19.362 71.8096 19.4004 71.7738C19.4388 71.7379 19.4603 71.6892 19.4603 71.6385C19.4603 66.3092 19.461 60.9807 19.4624 55.6527C19.4624 54.7424 19.5554 54.0273 20.694 54.0273C21.6053 54.0292 21.8306 54.7598 21.8326 55.4614C21.8368 59.5846 21.834 63.6865 21.8244 67.7672C21.8245 67.8846 21.8629 67.9991 21.9346 68.0955C22.0062 68.1918 22.1077 68.2654 22.2253 68.3064Z" fill="#E35800"/>
</g>
<defs>
<clipPath id="clip0_421_47136">
<rect width="100" height="100" rx="20" fill="white"/>
</clipPath>
</defs>
</svg>
