<svg width="100" height="100" viewBox="0 0 100 100" fill="none" xmlns="http://www.w3.org/2000/svg">
<g clip-path="url(#clip0_421_47157)">
<rect width="100" height="100" fill="white"/>
<path d="M41.329 32.6435L41.3591 29.9808C41.3603 29.8874 41.3892 29.7964 41.4422 29.7195C41.4953 29.6426 41.57 29.5832 41.6568 29.549L46.2109 27.7498C46.2491 27.7348 46.2832 27.7109 46.3105 27.6802C46.3378 27.6495 46.3576 27.6128 46.3683 27.573C46.3789 27.5332 46.3801 27.4914 46.3717 27.4511C46.3634 27.4108 46.3457 27.3729 46.3202 27.3407C46.0149 26.9544 45.7147 26.5611 45.4195 26.1608C44.9786 25.5586 45.1539 24.2196 45.1633 23.5038C45.2405 18.6404 51.888 17.5381 53.5348 22.0417C53.8909 23.0114 53.8834 24.5397 53.8023 25.5434C53.7552 26.1362 53.0411 26.8048 52.6454 27.282C52.616 27.3177 52.5954 27.3598 52.5853 27.405C52.5751 27.4502 52.5758 27.4971 52.5872 27.542C52.5986 27.5869 52.6204 27.6284 52.6508 27.6632C52.6812 27.698 52.7194 27.7251 52.7623 27.7422L57.3182 29.5603C57.4049 29.595 57.4791 29.6551 57.5312 29.7328C57.5833 29.8105 57.6108 29.9022 57.6103 29.9959L57.5877 32.5034C57.5852 32.814 57.6831 32.8499 57.8816 32.6113C58.7634 31.547 59.2439 30.2175 59.5981 28.8539C60.3801 25.8597 59.5717 22.4053 57.7177 20.0645C54.0793 15.4644 47.5807 14.6311 43.0379 18.2711C42.9969 18.3037 42.9458 18.3207 42.8939 18.319C42.8421 18.3173 42.7929 18.2969 42.7553 18.2616C42.3985 17.9295 42.0889 17.5867 41.8264 17.2332C41.5978 16.9264 41.6179 16.6752 41.8867 16.4795C43.2508 15.4871 44.7601 14.6973 46.4144 14.3356C49.2501 13.7163 52.6454 13.9019 55.2626 15.3318C59.2665 17.5192 61.4635 21.0891 61.9741 25.6381C62.0137 25.9904 62.2793 26.3559 62.5638 26.6381C64.9153 28.9789 67.2599 31.3279 69.5976 33.6851C69.7269 33.8152 69.8482 33.9667 69.9612 34.1397C69.9918 34.1863 70.0049 34.2423 69.9984 34.2977C69.9918 34.3532 69.966 34.4045 69.9254 34.4427L68.8062 35.4881C68.7546 35.5361 68.6865 35.5622 68.6162 35.5608C68.546 35.5594 68.4789 35.5306 68.4294 35.4805L61.9571 28.9524C61.9457 28.9407 61.9315 28.9322 61.9158 28.9276C61.9001 28.9231 61.8835 28.9227 61.8675 28.9265C61.8515 28.9303 61.8366 28.9382 61.8243 28.9493C61.8119 28.9604 61.8025 28.9745 61.797 28.9903C61.5772 29.6316 61.3441 30.2781 61.0979 30.9296C57.4483 40.5844 44.4906 41.8533 38.9605 33.2344C36.1003 28.7782 36.3999 22.8902 39.6614 18.7161C39.6903 18.679 39.7264 18.6481 39.7676 18.6254C39.8087 18.6027 39.8539 18.5887 39.9006 18.5841C39.9473 18.5795 39.9944 18.5844 40.0391 18.5987C40.0838 18.6129 40.1252 18.6361 40.1607 18.6669L41.2084 19.5664C41.2719 19.6211 41.3126 19.6977 41.3224 19.781C41.3322 19.8642 41.3103 19.9479 41.2611 20.0153C39.0767 23.0177 38.5259 26.2757 39.6087 29.7895C39.9252 30.8122 40.5169 31.7818 41.084 32.7117C41.0989 32.7365 41.1214 32.7558 41.1482 32.7665C41.1749 32.7773 41.2045 32.7789 41.2323 32.7712C41.26 32.7634 41.2845 32.7468 41.302 32.7237C41.3195 32.7007 41.3289 32.6725 41.329 32.6435ZM51.5262 22.6459C50.9497 20.9092 48.4361 20.8107 47.5581 22.3618C47.1907 23.0114 47.1982 23.8863 47.2529 24.6401C47.3075 25.3768 47.8709 26.0453 48.3306 26.5718C48.8507 27.1665 49.4724 27.2176 50.1884 27.0226C50.2461 27.0078 50.2986 26.9755 50.3392 26.9298C50.721 26.4866 51.079 26.0239 51.4132 25.5416C51.92 24.8124 51.7674 23.375 51.5262 22.6459ZM43.7859 35.2324C47.4055 37.452 51.6638 37.5296 55.2758 35.1813C55.3497 35.1336 55.4105 35.0679 55.4527 34.9901C55.4948 34.9123 55.5169 34.825 55.517 34.7362V31.4087C55.5168 31.3162 55.4895 31.2259 55.4385 31.1494C55.3875 31.0728 55.3151 31.0134 55.2306 30.9788C53.9405 30.4511 52.7013 29.9498 51.513 29.4751C50.3844 29.0225 48.8488 28.9732 47.7051 29.405C46.4351 29.8835 45.0898 30.4258 43.6691 31.0318C43.5885 31.0664 43.5201 31.1245 43.4727 31.1988C43.4253 31.2731 43.4012 31.3601 43.4035 31.4485C43.4273 32.4409 43.4342 33.4743 43.4242 34.5487C43.4204 34.8972 43.5033 35.0601 43.7859 35.2324Z" fill="#E35800"/>
<path d="M18.2074 55.7859C18.222 55.7959 18.2391 55.8018 18.2569 55.8028C18.2746 55.8038 18.2923 55.7999 18.3079 55.7915C18.3236 55.7831 18.3366 55.7706 18.3455 55.7552C18.3545 55.7399 18.359 55.7225 18.3587 55.7048L18.319 53.0941C18.3173 52.9826 18.3497 52.8732 18.4118 52.7806C18.474 52.6879 18.563 52.6163 18.6669 52.5753L23.245 50.7758C23.2808 50.7618 23.3125 50.7394 23.3377 50.7105C23.3628 50.6816 23.3806 50.647 23.3896 50.6098C23.3985 50.5726 23.3982 50.5338 23.3889 50.4967C23.3795 50.4595 23.3613 50.4252 23.3358 50.3966C22.8196 49.8232 22.2485 49.2007 22.1653 48.4047C22.0291 47.1088 22.0764 45.5733 22.7137 44.4622C24.1073 42.0345 27.3315 41.4573 29.3908 43.387C30.8942 44.798 30.8601 46.3882 30.8072 48.2915C30.7807 49.2026 30.1567 49.7496 29.6253 50.4079C29.6027 50.4363 29.587 50.4696 29.5796 50.5051C29.5722 50.5406 29.5732 50.5773 29.5826 50.6123C29.5919 50.6474 29.6094 50.6797 29.6336 50.7068C29.6578 50.7339 29.688 50.7549 29.7218 50.7682L34.1921 52.5187C34.3262 52.5713 34.4416 52.6625 34.5234 52.7808C34.6053 52.8991 34.6499 53.039 34.6516 53.1827L34.6762 55.4595C34.68 55.8745 34.7972 55.9097 35.0279 55.5652C37.5732 51.7736 37.6035 46.6711 34.6819 43.1022C34.6361 43.0461 34.6126 42.9753 34.6157 42.9033C34.6189 42.8312 34.6485 42.7631 34.6989 42.7117C35.0267 42.3747 35.4036 42.0691 35.8297 41.795C36.2439 41.5271 36.3441 41.7761 36.5445 42.0496C40.3776 47.3125 39.6723 54.5447 34.784 58.8643C29.0599 63.9254 20.0776 62.7162 15.9476 56.2744C14.2634 53.6487 13.6715 50.689 14.172 47.3955C14.8981 42.6004 18.4816 38.8052 23.0881 37.4753C23.9239 37.2338 24.9054 37.1225 25.8055 37.0094C25.9894 36.9861 26.1604 36.9025 26.2915 36.7717L33.9274 29.1566C34.1404 28.9453 34.351 28.9478 34.559 29.1641L35.5082 30.1526C35.5544 30.2003 35.5799 30.2643 35.5792 30.3307C35.5785 30.397 35.5516 30.4604 35.5045 30.5072L28.9408 37.0697C28.9267 37.0836 28.9166 37.1011 28.9117 37.1203C28.9068 37.1394 28.9071 37.1596 28.9128 37.1785C28.9184 37.1975 28.9291 37.2146 28.9437 37.228C28.9582 37.2414 28.9762 37.2506 28.9956 37.2546C30.9698 37.6721 32.7442 38.5128 34.3188 39.7766C34.3459 39.7983 34.3681 39.8253 34.3843 39.856C34.4004 39.8867 34.41 39.9205 34.4124 39.9551C34.4149 39.9898 34.4102 40.0247 34.3987 40.0576C34.3871 40.0904 34.369 40.1207 34.3453 40.1463L33.2485 41.3328C33.2141 41.3704 33.1667 41.3936 33.1158 41.3978C33.065 41.402 33.0144 41.3869 32.9743 41.3555C28.1692 37.5998 21.3446 38.6278 17.8651 43.5889C15.3614 47.1578 15.4862 52.0019 18.0145 55.5803C18.0826 55.6771 18.1469 55.7456 18.2074 55.7859ZM28.6836 47.7652C28.8992 46.5146 28.5985 44.9319 27.3107 44.466C25.9246 43.9643 24.3834 44.8867 24.2511 46.2693C24.166 47.1427 24.1338 47.9727 24.5782 48.6103C24.843 48.9913 25.1171 49.3629 25.4008 49.7251C25.8641 50.3212 26.9892 50.2533 27.4998 49.8081C27.6776 49.6547 27.9221 49.3384 28.2335 48.8593C28.4718 48.4921 28.6218 48.1274 28.6836 47.7652ZM20.8718 58.3003C24.6312 60.5036 28.6136 60.5356 32.25 58.1608C32.4606 58.0237 32.5652 57.8942 32.5639 57.7722C32.5476 56.6718 32.5394 55.5438 32.5394 54.3881C32.5394 54.3026 32.5136 54.2192 32.4653 54.1488C32.4171 54.0784 32.3486 54.0244 32.2689 53.9939C31.2453 53.6053 30.2197 53.2035 29.1923 52.7885C28.2442 52.4062 27.5049 52.1949 26.9741 52.1547C26.0488 52.0843 25.1411 52.2339 24.2511 52.6036C23.0408 53.1054 21.8482 53.5701 20.6733 53.9976C20.5979 54.0248 20.5327 54.0745 20.4867 54.14C20.4406 54.2055 20.416 54.2836 20.4161 54.3636C20.4186 55.4639 20.4142 56.5215 20.4029 57.5364C20.3972 57.9551 20.5352 58.1042 20.8718 58.3003Z" fill="#E35800"/>
<path d="M50.5813 30.9945L49.4187 30.9985C49.1875 30.9993 49.0007 31.1868 49.0015 31.4173L49.0055 32.5827C49.0063 32.8132 49.1944 32.9993 49.4257 32.9985L50.5882 32.9945C50.8195 32.9937 51.0063 32.8062 51.0055 32.5757L51.0014 31.4103C51.0006 31.1798 50.8125 30.9937 50.5813 30.9945Z" fill="#E35800"/>
<path d="M65.189 55.779C65.2026 55.7883 65.2186 55.7937 65.2351 55.7946C65.2516 55.7955 65.268 55.7918 65.2826 55.7841C65.2972 55.7763 65.3093 55.7647 65.3178 55.7505C65.3263 55.7364 65.3307 55.7202 65.3306 55.7037L65.357 53.0077C65.3582 52.9079 65.389 52.8109 65.4455 52.729C65.502 52.6471 65.5816 52.584 65.6741 52.548L70.3348 50.7111C70.3642 50.6994 70.3903 50.6808 70.411 50.6569C70.4316 50.6329 70.4461 50.6044 70.4531 50.5738C70.4602 50.5431 70.4596 50.5113 70.4515 50.4811C70.4434 50.4508 70.428 50.4231 70.4065 50.4002C69.8421 49.7955 69.2871 49.1813 69.2079 48.326C69.021 46.2988 69.2305 44.3394 70.9464 43.0527C72.23 42.09 74.1158 41.9204 75.5524 42.7173C77.7987 43.9645 77.9459 46.0821 77.8157 48.3486C77.7647 49.219 77.1852 49.7182 76.6585 50.3324C76.51 50.507 76.5421 50.637 76.7548 50.7224L81.3513 52.5442C81.4558 52.5857 81.5449 52.6583 81.6064 52.7521C81.6679 52.8458 81.6988 52.9562 81.6949 53.068L81.6118 55.6509C81.6116 55.6685 81.6159 55.6858 81.6245 55.7012C81.6331 55.7165 81.6456 55.7293 81.6607 55.7383C81.6758 55.7473 81.6931 55.7521 81.7107 55.7523C81.7283 55.7525 81.7456 55.7481 81.761 55.7395C81.8692 55.6767 81.9654 55.5844 82.0498 55.4625C84.7284 51.6003 84.566 46.5626 81.6024 42.9246C81.5508 42.8618 81.5564 42.8046 81.6194 42.7531L82.8841 41.7094C82.9234 41.6773 82.9687 41.6534 83.0175 41.6394C83.0662 41.6254 83.1172 41.6214 83.1674 41.6277C83.2177 41.6341 83.266 41.6506 83.3095 41.6763C83.353 41.702 83.3906 41.7364 83.4202 41.7772C89.3759 49.9914 84.466 60.9977 74.3631 61.9322C73.8874 61.9755 73.5722 62.3203 73.2248 62.6669C70.947 64.9478 68.6705 67.2299 66.3952 69.5133C66.214 69.6954 66.0347 69.8455 65.8572 69.9636C65.8131 69.9921 65.7605 70.0044 65.7085 69.9986C65.6565 69.9927 65.6083 69.9691 65.5722 69.9316L64.6472 68.9613C64.432 68.7365 64.4352 68.5142 64.6567 68.2944L71.0597 61.9152C71.0733 61.9017 71.0831 61.8848 71.088 61.8663C71.0929 61.8477 71.0928 61.8282 71.0876 61.8098C71.0824 61.7913 71.0723 61.7746 71.0585 61.7613C71.0446 61.7481 71.0274 61.7387 71.0087 61.7343C67.1931 60.8099 64.3823 58.7331 62.5764 55.504C58.0573 47.4179 63.7827 37.3009 73.0323 37.007C75.9708 36.914 78.6494 37.753 81.0682 39.524C81.3614 39.7387 81.4124 39.9717 81.2211 40.2229C80.9203 40.6186 80.6126 40.9903 80.298 41.3382C80.2748 41.3646 80.2426 41.3815 80.2075 41.3857C80.1723 41.3899 80.1367 41.381 80.1073 41.3609C79.3957 40.8748 78.6161 40.3548 77.861 40.0138C71.9639 37.3385 65.1928 40.5413 63.441 46.7001C62.7728 49.0494 63.0465 51.866 64.2036 54.1155C64.4131 54.5205 64.8284 55.536 65.189 55.779ZM75.643 48.2186C75.9469 47.0976 75.8978 45.5735 74.8634 44.7746C73.6534 43.8402 71.6449 44.3884 71.3768 45.8975C71.2466 46.6266 71.122 47.8644 71.5486 48.5106C72.1432 49.4074 72.6831 50.3475 73.9535 50.0611C74.2215 49.9996 74.4764 49.8288 74.718 49.5487C75.268 48.9081 75.5763 48.4648 75.643 48.2186ZM69.4759 59.0685C72.7869 60.3873 75.9463 60.1461 78.954 58.345C79.3032 58.1359 79.5977 57.9871 79.592 57.6291C79.5756 56.4987 79.5618 55.3715 79.5505 54.2474C79.5499 54.1846 79.5303 54.1234 79.4943 54.072C79.4582 54.0205 79.4074 53.9812 79.3485 53.9591C78.1039 53.4956 76.8479 53.0077 75.5807 52.4952C74.2121 51.9414 72.8171 51.9602 71.4221 52.5179C70.1851 53.0127 68.9587 53.485 67.743 53.9346C67.6636 53.9636 67.5953 54.0168 67.5475 54.0868C67.4998 54.1567 67.4751 54.2398 67.4769 54.3246C67.4995 55.4676 67.4945 56.5665 67.4618 57.6216C67.4429 58.1962 69.0172 58.8857 69.4759 59.0685Z" fill="#E35800"/>
<path d="M49.7448 44.8051C51.153 43.7786 52.9261 43.7414 54.2939 44.7326C56.199 46.1142 56.5181 48.8923 55.2034 50.789C54.9271 51.1882 54.5384 51.6146 54.0372 52.0684C52.6425 53.3365 51.2141 54.6159 49.7521 55.9064C49.6831 55.9671 49.5947 56.0003 49.5033 56C49.412 55.9997 49.3238 55.9657 49.2552 55.9045C47.88 54.6711 46.4877 53.4115 45.0783 52.126C44.0148 51.1591 43.2227 50.2423 43.0339 48.7417C42.6048 45.3369 46.3398 42.5774 49.2717 44.8014C49.3401 44.8527 49.4227 44.8807 49.5077 44.8814C49.5927 44.882 49.6757 44.8553 49.7448 44.8051ZM49.3047 47.9458C48.7107 46.964 47.7132 45.6567 46.4443 46.1365C45.9749 46.315 45.6015 46.6262 45.324 47.07C44.5502 48.3066 45.2984 49.5859 46.239 50.4431C47.3012 51.4113 48.3586 52.3609 49.4111 53.2919C49.4408 53.3182 49.4789 53.3327 49.5184 53.3327C49.5578 53.3327 49.5959 53.3182 49.6256 53.2919C50.7319 52.3051 51.8204 51.3239 52.8913 50.3483C53.2409 50.0285 53.5134 49.6987 53.709 49.359C54.4516 48.076 53.819 46.5642 52.4512 46.0863C51.2153 45.6549 50.249 47.2094 49.5981 47.97C49.5795 47.9922 49.5559 48.0095 49.5293 48.0206C49.5028 48.0318 49.474 48.0363 49.4453 48.034C49.4167 48.0316 49.389 48.0224 49.3646 48.0071C49.3401 47.9917 49.3196 47.9707 49.3047 47.9458Z" fill="#E35800"/>
<path d="M27.6158 55.0085L26.3842 55.002C26.172 55.0009 25.9991 55.1705 25.998 55.3808L25.9915 56.6192C25.9904 56.8295 26.1616 57.0009 26.3737 57.002L27.6053 57.0084C27.8175 57.0096 27.9904 56.84 27.9915 56.6297L27.998 55.3913C27.9991 55.181 27.828 55.0096 27.6158 55.0085Z" fill="#E35800"/>
<path d="M73.6434 54.9971L72.3566 54.9994C72.1597 54.9997 72.0003 55.1591 72.0006 55.3554L72.0029 56.6446C72.0032 56.8409 72.1632 56.9997 72.3601 56.9994L73.6469 56.9971C73.8438 56.9968 74.0032 56.8374 74.0029 56.6411L74.0006 55.3519C74.0003 55.1556 73.8403 54.9968 73.6434 54.9971Z" fill="#E35800"/>
<path d="M41.1718 79.8244C41.2811 79.9707 41.3364 79.9524 41.3377 79.7696L41.364 77.0854C41.3652 76.9824 41.3968 76.8823 41.4549 76.7977C41.513 76.7131 41.5949 76.6479 41.6901 76.6106L46.3227 74.7889C46.3511 74.7782 46.3765 74.7608 46.3968 74.7383C46.4171 74.7157 46.4318 74.6885 46.4397 74.659C46.4476 74.6295 46.4485 74.5985 46.4422 74.5685C46.436 74.5385 46.4228 74.5103 46.4038 74.4863L45.3389 73.1319C45.2349 73.0006 45.1761 72.8387 45.1712 72.6703C45.1372 71.6129 45.0619 70.3341 45.3578 69.3656C46.1248 66.8479 48.9142 65.4972 51.353 66.6946C52.5618 67.2886 53.3546 68.2912 53.7316 69.7023C53.8861 70.285 53.8239 71.331 53.8314 72.2655C53.839 73.1829 53.1416 73.8431 52.5366 74.4371C52.5169 74.4569 52.5019 74.4811 52.4929 74.5076C52.4839 74.5342 52.4811 74.5624 52.4848 74.5901C52.4885 74.6177 52.4984 74.6441 52.514 74.6671C52.5295 74.6902 52.5502 74.7092 52.5743 74.7227C52.5957 74.7353 52.6221 74.7479 52.6535 74.7606C54.199 75.3924 55.8726 75.939 57.3615 76.6749C57.4434 76.7158 57.5121 76.7788 57.5598 76.8568C57.6075 76.9348 57.6322 77.0245 57.631 77.1156L57.5933 79.7242C57.5933 79.7487 57.6017 79.7725 57.6172 79.7914C57.6327 79.8104 57.6542 79.8234 57.6781 79.8282C57.7359 79.8396 57.7925 79.8106 57.8478 79.7412C59.6137 77.5261 60.2659 74.2858 59.6948 71.5145C58.106 63.7872 49.1724 60.5487 43.0169 65.3554C42.9684 65.3936 42.9069 65.4112 42.8453 65.4045C42.7837 65.3978 42.727 65.3673 42.6871 65.3194L41.6166 64.0407C41.6024 64.0238 41.5916 64.0042 41.5851 63.9831C41.5785 63.9621 41.5762 63.9399 41.5783 63.918C41.5804 63.8961 41.5869 63.8749 41.5973 63.8557C41.6078 63.8365 41.6221 63.8196 41.6392 63.8061C43.5905 62.2449 45.7699 61.3338 48.1773 61.0727C55.8085 60.2423 62.4917 66.6398 61.9715 74.3368C61.6021 79.8093 57.452 84.9375 51.8525 85.8058C48.1264 86.3827 44.6679 85.7093 41.7221 83.3145C38.939 81.0509 37.3772 78.1131 37.0367 74.5014C37.0009 74.1117 36.7804 73.7561 36.4807 73.4553C34.1035 71.063 31.7256 68.672 29.3471 66.2823C29.229 66.1637 29.126 66.0212 29.038 65.8548C28.9739 65.7362 28.9909 65.6303 29.0889 65.537L30.1179 64.5533C30.27 64.407 30.4208 64.4089 30.5703 64.559L37.016 71.0586C37.0366 71.079 37.0623 71.0934 37.0904 71.1003C37.1185 71.1071 37.1479 71.1063 37.1755 71.0977C37.2031 71.0892 37.2279 71.0733 37.2473 71.0518C37.2667 71.0303 37.2799 71.0039 37.2855 70.9754C37.621 69.2635 38.5407 66.8838 39.8431 65.6694C39.8775 65.6378 39.9223 65.62 39.969 65.6197C40.0156 65.6193 40.0608 65.6364 40.0956 65.6675L41.3094 66.7514C41.352 66.789 41.3785 66.8416 41.3834 66.8984C41.3883 66.9551 41.3712 67.0115 41.3358 67.0559C38.356 70.7711 38.373 76.0639 41.1718 79.8244ZM51.5114 72.4641C51.6144 72.309 51.6766 72.1394 51.6979 71.9553C51.8581 70.6557 51.8223 69.2692 50.454 68.6109C49.6599 68.2275 48.9035 68.2792 48.1848 68.766C47.1878 69.4413 47.1614 70.6954 47.2915 71.7699C47.3367 72.1444 47.4938 72.5347 47.7627 72.9408C48.1044 73.4553 48.3746 73.7883 48.5731 73.9396C48.9312 74.212 50.1412 74.3009 50.4465 73.9226C50.8297 73.4446 51.1847 72.9585 51.5114 72.4641ZM45.0543 83.0081C48.5737 84.534 51.9517 84.2868 55.1884 82.2665C55.4146 82.1253 55.5283 81.9582 55.5296 81.7653C55.5333 80.6769 55.5302 79.5874 55.5201 78.4965C55.5189 78.3829 55.4835 78.2723 55.4186 78.1795C55.3536 78.0866 55.2622 78.0157 55.1564 77.9763C53.8961 77.5085 52.6177 77.0166 51.321 76.5009C49.9998 75.975 48.6598 76.0998 47.3179 76.6484C45.6342 77.3357 44.5203 77.7594 43.9763 77.9196C43.6018 78.0293 43.4171 78.2859 43.4222 78.6895C43.4335 79.6189 43.4316 80.5489 43.4165 81.4796C43.4108 81.839 43.507 82.0963 43.8217 82.3082C44.2866 82.6196 44.6975 82.8529 45.0543 83.0081Z" fill="#E35800"/>
<path d="M50.6349 77.9971L49.3651 77.9994C49.1635 77.9997 49.0003 78.1649 49.0006 78.3683L49.0028 79.6317C49.0032 79.8351 49.1669 79.9997 49.3686 79.9994L50.6384 79.9971C50.84 79.9968 51.0032 79.8316 51.0028 79.6282L51.0006 78.3648C51.0003 78.1614 50.8365 77.9968 50.6349 77.9971Z" fill="#E35800"/>
</g>
<defs>
<clipPath id="clip0_421_47157">
<rect width="100" height="100" rx="20" fill="white"/>
</clipPath>
</defs>
</svg>
