<svg width="35" height="35" viewBox="0 0 35 35" fill="none" xmlns="http://www.w3.org/2000/svg">
<path d="M16.2233 0.0453444C13.2071 0.34332 10.754 1.19838 8.37864 2.78543C5.92557 4.41134 4.02265 6.59433 2.69579 9.29555C1.75081 11.213 1.21359 13.2016 1.03883 15.43L1 16H1.99029C5.57605 16 8.80583 15.6113 10.6958 14.9571C12.0032 14.5101 12.9288 13.9595 13.8479 13.085C15.5761 11.4526 16.4563 9.11417 16.8058 5.24696C16.9029 4.11984 17 2.09231 17 0.984615V0L16.7282 0.0129557C16.5728 0.0129557 16.3463 0.0323887 16.2233 0.0453444Z" fill="#E35800"/>
<path d="M19 0.913534C19 3.98384 19.3041 7.3701 19.7505 9.23151C20.2034 11.1479 21.051 12.7964 22.1573 13.9022C24.26 16.004 27.152 16.8008 33.2273 16.9588L35 17L34.9547 16.3543C34.6506 12.0614 33.0137 8.23556 30.1929 5.22707C28.7695 3.70909 27.4691 2.72 25.6963 1.79273C23.7618 0.789898 21.8209 0.233536 19.5693 0.0480804L19 0V0.913534Z" fill="#E35800"/>
<path d="M1.03883 17.5629C1.27832 20.552 2.17799 23.2175 3.77023 25.6049C4.99353 27.4424 6.7411 29.1763 8.5534 30.3409C10.8835 31.8419 13.589 32.7412 16.4045 32.9547L17 33V32.0036C17 28.5293 16.6375 25.3785 16.0227 23.5087C14.8835 20.0279 12.5016 18.1646 8.2945 17.4594C6.79935 17.207 3.89968 17 1.86084 17H1L1.03883 17.5629Z" fill="#E35800"/>
<path d="M31.668 17.0712C26.5956 17.317 23.93 18.1452 22.0279 20.0732C19.9705 22.1565 19.2006 25.0485 19.0388 31.292L19 33L19.6082 32.9547C23.6001 32.6571 27.1456 31.072 29.9794 28.3223C32.7808 25.5985 34.4501 22.2147 34.903 18.3199C34.9547 17.8605 35 17.3753 35 17.2459V17L33.8872 17.0065C33.2725 17.0129 32.2762 17.0453 31.668 17.0712Z" fill="#E35800"/>
</svg>
