<svg width="44" height="44" viewBox="0 0 44 44" fill="none" xmlns="http://www.w3.org/2000/svg">
<path fill-rule="evenodd" clip-rule="evenodd" d="M30.1285 14.7752C29.4407 14.1749 28.4515 14.1886 27.8838 14.363C28.2556 13.9085 29.1216 13.5358 29.3769 13.4907C29.5713 13.5632 30.1285 14.1333 30.1285 14.7752ZM32.3248 12.2894C31.8725 9.88055 26.2486 11.4766 23.4165 10.4534C23.3622 11.1557 24.2883 12.2808 25.1742 12.6973C23.6599 14.0054 22.3003 16.6412 22.026 19.8614C21.7525 16.6412 20.3929 14.0054 18.8785 12.6973C19.7644 12.2808 20.6914 11.1557 20.6364 10.4534C17.8043 11.4766 12.1802 9.88055 11.7271 12.2894C11.6318 12.7992 11.8782 13.5761 12.1444 13.7995C12.192 13.6379 12.4406 13.1094 13.2245 12.9908C17.1867 12.395 20.4948 18.4736 17.5088 20.9313C17.4633 20.9686 17.4888 21.0376 17.5505 21.0376H26.5029C26.5639 21.0376 26.5895 20.9686 26.5447 20.9313C23.5579 18.4736 26.8659 12.395 30.8282 12.9908C31.6128 13.1094 31.8606 13.6379 31.9083 13.7994C32.1746 13.5761 32.421 12.7992 32.3248 12.2894ZM33.2885 6.76075C33.2174 6.53319 35.5405 6.52755 35.5405 7.97493C35.5405 8.94502 34.151 9.40447 34.151 10.4111C34.151 10.88 34.6577 11.2239 34.8131 11.2239C34.4553 9.60766 35.9352 10.4534 36.3349 10.7557C35.5406 8.58227 37.3286 8.59599 37.1526 7.59946C37.03 6.90294 35.4761 7.11333 34.9136 6.76075C33.9157 6.13543 32.735 3.70209 31.9569 6.13543C33.4074 7.47597 32.5634 9.449 30.722 9.449C30.722 9.449 30.7116 9.73826 30.7285 9.76122C32.9249 9.65422 33.6904 8.04753 33.2885 6.76075ZM7.66444 10.7557C8.06418 10.4534 9.54393 9.60766 9.18695 11.2239C9.34155 11.2239 9.8483 10.88 9.8483 10.4111C9.8483 9.40447 8.45864 8.94502 8.45864 7.97493C8.45864 6.52747 10.7819 6.53319 10.7107 6.76075C10.3095 8.04745 11.0753 9.6543 13.2715 9.76122C13.2876 9.73826 13.2774 9.449 13.2774 9.449C11.4367 9.449 10.5927 7.47589 12.0426 6.13543C11.2644 3.70209 10.0837 6.13543 9.08567 6.76075C8.52325 7.11341 6.96931 6.90294 6.84677 7.59946C6.67143 8.59599 8.45864 8.58235 7.66444 10.7557ZM13.9007 14.7751C14.5892 14.1748 15.5786 14.1885 16.1455 14.3629C15.7751 13.9084 14.9076 13.5357 14.6531 13.4906C14.4588 13.5631 13.9007 14.1332 13.9007 14.7751ZM23.0711 1.30027L21.9996 0L20.9282 1.30027L21.9997 2.66882L23.0711 1.30027ZM29.187 5.23219L28.4251 4.30804L27.6639 5.23219L28.4251 6.13536L29.187 5.23219ZM35.3669 31.9432L34.4011 30.9258L33.4352 31.9432L34.4011 32.8357L35.3669 31.9432ZM16.3361 5.23204L15.5741 4.30789L14.8129 5.23204L15.5741 6.13529L16.3361 5.23204ZM14.1536 9.76114H16.9953C19.3845 9.76114 20.4596 8.30148 20.7844 7.0356H23.2155C23.5404 8.30155 24.6146 9.76122 27.0046 9.76122H29.8463C29.8463 9.76122 30.3434 9.08987 30.468 8.75754C30.9169 7.56125 30.3434 7.00333 29.5067 7.00333L28.425 7.97918L27.3433 7.00333C26.5066 7.00333 25.9332 7.56125 26.3819 8.75754C26.4391 8.91053 26.5763 9.1351 26.7061 9.33258C25.6977 9.19468 24.4107 8.50762 24.1283 7.0356C24.1283 7.0356 24.8734 5.85743 25.0605 5.38069C25.7322 3.66623 24.8743 2.96531 23.6195 2.96531L21.9996 4.8609L20.3797 2.96531C19.1249 2.96531 18.267 3.66615 18.9394 5.38069C19.1258 5.8575 19.8716 7.03567 19.8716 7.03567C19.5885 8.50769 18.3015 9.19477 17.2932 9.33258C17.4237 9.13519 17.5602 8.91053 17.6173 8.75754C18.0653 7.56133 17.4934 7.00341 16.6558 7.00341L15.5743 7.97925L14.4926 7.00341C13.6552 7.00341 13.0831 7.56133 13.5313 8.75754C13.6559 9.08996 14.1536 9.76114 14.1536 9.76114ZM43.5331 18.5295C42.9845 18.8059 39.7667 20.3065 35.6446 19.7514C35.6874 19.5557 35.7235 19.3586 35.7532 19.1605C38.4966 18.8338 40.7267 18.3707 42.1478 17.5838C43.7678 16.6864 44.4762 14.5438 43.6585 12.9499C43.6374 12.9097 43.5787 12.9025 43.5494 12.9362C43.1013 13.4496 40.2837 16.5004 35.845 17.4488C35.8336 17.22 35.8126 16.9917 35.7819 16.7646C37.9378 15.5475 40.0425 14.1452 41.045 12.863C42.5602 10.9242 42.4207 8.45152 40.979 7.1907C40.964 7.17787 40.9444 7.17215 40.9248 7.17493C40.9053 7.17765 40.8879 7.18865 40.877 7.20507C40.4209 7.95388 36.1515 14.823 31.4641 17.7883C31.4069 17.8248 31.3492 17.8605 31.2911 17.8954C31.1569 17.9765 31.1422 18.1502 31.2566 18.2537C31.7969 18.7411 32.1329 19.4197 32.1329 20.1729C32.1329 21.4825 31.1187 22.5716 29.7782 22.8079C29.0968 22.9392 28.1134 22.9012 27.1689 22.5904C27.1264 22.5767 27.0824 22.6046 27.0824 22.6471V26.795C27.0824 26.8617 27.1844 26.8782 27.2085 26.8142C27.7826 25.3001 29.5016 24.9783 30.2533 24.9783C30.5239 26.5968 31.0071 27.9373 31.6349 28.6589C32.657 29.8314 34.3261 29.8149 35.0499 29.0042C35.0619 28.9908 35.0671 28.9727 35.0639 28.955C35.0607 28.9374 35.0497 28.9222 35.0338 28.9136C34.6085 28.6704 32.1753 27.1835 31.6883 24.7465C31.8806 24.6804 32.0681 24.6057 32.2479 24.5173C33.0333 25.8113 34.1765 26.9636 35.0968 27.4038C36.6427 28.142 38.058 27.7829 38.6858 26.7024C38.7086 26.6643 38.6806 26.6168 38.6344 26.6126C37.6782 26.5365 34.7435 25.6993 33.4938 23.6594C33.6369 23.5286 33.7769 23.3922 33.9074 23.2472C35.2149 24.2381 37.0638 25.1141 38.3874 25.2928C39.9361 25.5025 41.691 25.0107 41.7336 23.2177C41.7343 23.1818 41.7021 23.1524 41.664 23.1547C41.1131 23.1876 37.4677 23.3456 34.8703 21.8615C34.9605 21.6907 35.0447 21.5168 35.1226 21.3402C35.1226 21.3402 39.0475 22.2636 40.9071 21.9576C42.7552 21.654 43.8376 20.2826 43.6285 18.5767C43.6227 18.5342 43.5727 18.5093 43.5331 18.5295ZM8.87652 21.3404C8.9547 21.5171 9.03903 21.6909 9.1295 21.8616C6.53283 23.3451 2.8889 23.1885 2.33604 23.1549C2.29717 23.1526 2.26491 23.1835 2.26557 23.2187C2.30898 25.0108 4.06311 25.5027 5.61176 25.293C6.93484 25.1142 8.78429 24.2383 10.0918 23.2475C10.223 23.3924 10.3624 23.5288 10.5053 23.6595C9.25503 25.6993 6.32097 26.5366 5.3647 26.6127C5.31851 26.6169 5.29137 26.6643 5.31345 26.7025C5.94118 27.783 7.35651 28.142 8.90314 27.4038C9.82274 26.9637 10.966 25.8114 11.7514 24.5175C11.9317 24.6058 12.1194 24.6805 12.3108 24.7466C11.8239 27.1835 9.39074 28.6705 8.96533 28.9137C8.94969 28.9223 8.93871 28.9377 8.93564 28.9552C8.93248 28.9728 8.9374 28.9908 8.94925 29.0043C9.67306 29.8149 11.3429 29.8314 12.365 28.659C12.9929 27.9373 13.4754 26.5969 13.7459 24.9784C14.4983 24.9784 16.2165 25.3002 16.7907 26.8143C16.8156 26.8783 16.9175 26.8617 16.9175 26.795V22.6471C16.9175 22.6047 16.8728 22.5768 16.8303 22.5904C15.8858 22.9012 14.9025 22.9393 14.2219 22.8079C12.8806 22.5717 11.8664 21.4826 11.8664 20.1729C11.8664 19.4196 12.2029 18.7404 12.7427 18.2529C12.8578 18.1502 12.8424 17.9764 12.709 17.8953C12.6504 17.8603 12.5922 17.8247 12.5345 17.7882C7.8499 14.8245 3.58264 7.96033 3.12284 7.20639C3.10149 7.17119 3.05016 7.16408 3.01863 7.19129C1.5791 8.45284 1.43903 10.9248 2.95409 12.8628C3.95663 14.145 6.06115 15.5474 8.21649 16.7644C8.18613 16.9916 8.16531 17.2198 8.15423 17.4486C3.71903 16.5009 0.903771 13.4549 0.451227 12.9381C0.421234 12.9029 0.360954 12.9101 0.340494 12.9503C-0.475558 14.545 0.232768 16.6861 1.8513 17.5836C3.27251 18.3705 5.5025 18.8336 8.24597 19.1603C8.2756 19.3585 8.31175 19.5555 8.35443 19.7512C4.23676 20.3056 1.02037 18.8086 0.467434 18.5299C0.426367 18.5091 0.3765 18.535 0.371367 18.578C0.163247 20.2841 1.24477 21.654 3.09277 21.9576C4.95177 22.2636 8.87652 21.3404 8.87652 21.3404ZM34.401 34.1459L32.9709 33.0259C32.4004 33.3641 31.981 33.9013 31.8181 34.5309C30.958 34.6508 28.6126 34.1324 28.8407 33.7886C31.4111 30.1899 29.4449 28.0474 27.0822 28.1665V30.5834C27.0822 31.3595 26.4017 31.9885 25.5635 31.9885H23.9319C22.7615 31.9885 21.9996 33.1595 21.9996 33.1595C21.9996 33.1595 21.2377 31.9885 20.0673 31.9885H18.4357C17.5969 31.9885 16.9177 31.3595 16.9177 30.5834V28.1666C14.5549 28.0475 12.5873 30.19 15.1584 33.7887C15.3843 34.129 12.9738 34.6739 11.8432 34.536C11.5453 34.2287 11.1155 34.0349 10.6345 34.0349C10.4299 34.035 10.2271 34.0711 10.0353 34.1419C10.0353 34.1419 5.59211 29.9545 5.51071 29.9136L5.54738 29.8287C5.80037 29.3579 5.41318 28.8444 5.16832 28.8805C5.45278 28.5409 5.46605 27.0538 3.88792 26.7098C3.93405 27.0085 3.95751 27.6181 3.95751 27.6181C3.95751 27.6181 2.73952 26.9625 2.12784 27.5283C1.59038 28.1617 2.33626 29.3104 2.33626 29.3104C2.33626 29.3104 1.71285 29.3255 1.40566 29.2997C1.85739 30.8204 3.37246 30.7127 3.70026 30.4125C3.67892 30.6546 4.22687 30.9991 4.691 30.7227L4.89486 30.6244C4.93079 30.6724 9.25819 34.7421 9.25819 34.7421C9.05949 35.0358 8.96489 35.3962 9.03007 35.7804C9.13275 36.3807 9.6352 36.8782 10.2769 37.0073C10.73 37.0979 11.1561 37.0103 11.4978 36.8114L12.6433 37.8697C12.7453 37.9617 12.8831 38.0191 13.0371 38.0083C13.3172 37.9897 13.527 37.7634 13.5057 37.5044C13.4968 37.3872 13.4368 37.2868 13.3538 37.2106C13.3356 37.1905 12.1871 36.1293 12.1871 36.1293C13.1345 35.468 14.8996 35.0021 16.3648 35.0021C16.6223 35.0021 16.7431 34.7853 16.6545 34.5727C15.9908 32.9837 17.4179 31.8329 18.8941 32.7698C19.538 33.1784 20.1922 33.9832 20.685 35.3258C18.2627 35.9097 15.2217 37.5178 14.6064 39.2734C14.3695 39.9514 15.152 40.8753 16.1024 41.0614C16.1192 41.065 16.1368 41.0619 16.1513 41.0526C16.1658 41.0433 16.1759 41.0285 16.1794 41.0118C16.6759 38.3911 19.5072 36.4379 20.9806 36.1062C21.0546 36.3037 21.0303 36.2398 21.1044 36.4366C19.4999 37.1919 17.9437 38.7851 17.4994 40.6791C17.2955 41.5466 18.2672 42.3284 19.0694 42.5425C19.1097 42.5532 19.1494 42.5252 19.1516 42.4865C19.3041 40.0912 20.3667 38.0571 21.3185 37.1316C21.3446 37.3124 21.3642 37.4942 21.3772 37.6765C21.3772 37.6765 20.4027 40.3799 20.4027 42.3522C20.4027 43.2698 21.7725 43.9102 21.9749 44C22.2278 43.9102 23.5971 43.2698 23.5971 42.3522C23.5971 40.3798 22.6225 37.6765 22.6225 37.6765C22.6357 37.4942 22.6555 37.3124 22.6819 37.1316C23.633 38.0571 24.6962 40.0904 24.8481 42.4857C24.8503 42.5244 24.8907 42.5532 24.9301 42.5425C25.7332 42.3285 26.7041 41.5466 26.501 40.6793C26.0558 38.7852 24.5004 37.1921 22.8958 36.4367C22.9692 36.2399 22.945 36.3037 23.0191 36.1063C24.4932 36.438 27.3238 38.391 27.8202 41.0117C27.8238 41.0285 27.8339 41.0431 27.8484 41.0524C27.8629 41.0618 27.8805 41.0649 27.8973 41.0613C28.8469 40.8753 29.6308 39.9513 29.3925 39.2735C28.7788 37.5179 25.7368 35.9098 23.3147 35.3259C23.8081 33.9832 24.4623 33.1784 25.1062 32.7698C26.5816 31.8329 28.0087 32.9839 27.345 34.5728C27.2562 34.7853 27.3765 35.0021 27.6347 35.0021C29.292 35.0021 31.3335 35.598 32.1415 36.3972C32.658 37.1683 33.612 37.6616 34.6886 37.5559C35.9117 37.4369 36.9091 36.522 37.047 35.3913C37.1672 34.4004 36.6524 33.5108 35.8318 33.0261L34.401 34.1459ZM23.8607 26.9278C24.3704 26.7399 25.169 26.8921 25.1419 27.6243C25.1353 27.7902 25.3693 27.7902 25.3861 27.6207C25.5386 26.5243 24.7943 26.2084 24.0155 26.3369C23.9187 25.9599 23.8396 25.6304 23.7494 25.3037C23.6775 25.0396 23.651 24.5434 23.9583 24.5434C24.1242 24.5434 24.0574 25.005 24.0421 25.2038C24.028 25.3784 24.0911 25.4839 24.2335 25.489C24.3223 25.4925 24.4329 25.3798 24.499 25.3051C24.9449 24.8032 25.0483 24.0264 24.5261 23.6517C24.0891 23.3371 22.9949 23.5712 22.6941 24.0192C22.6487 23.8504 22.4317 23.5719 22.3274 23.4505C22.2264 23.3321 22.2 23.2509 22.3401 23.1468C22.406 23.0966 22.6055 22.8992 22.6055 22.6952C22.6055 22.5746 22.5116 22.352 22.2131 22.352C21.9778 22.352 21.716 22.5143 21.716 22.8761C21.716 22.9566 21.7358 23.0429 21.7878 23.1355C21.6389 23.111 21.2349 23.121 21.0274 23.172L23.8969 31.0105C24.7183 30.6069 25.3203 29.968 25.3203 29.2823C25.3203 28.6978 24.4555 28.8916 24.0355 29.3476C23.9005 28.6067 23.7802 27.9224 23.649 27.2401C23.6132 27.0521 23.709 26.9845 23.8607 26.9278ZM19.8032 21.6033L20.406 23.2705C19.8898 23.3925 19.0597 23.7672 19.0597 24.2634C19.0597 24.924 20.2337 25.354 20.9128 25.3024C20.879 25.4531 20.9179 25.5874 21.0236 25.7102C20.7771 25.7102 20.3123 25.8243 20.1597 25.988C19.7996 25.6541 19.2364 25.5328 18.9687 25.736C18.6996 25.9406 18.6916 26.2874 18.9724 26.6795C19.1682 26.9509 19.2416 27.2188 19.0215 27.5332C19.84 27.5332 19.5385 26.4741 19.859 26.4741C19.8172 26.6795 19.8429 26.9172 19.9361 27.1806C19.9977 27.3559 19.9977 27.48 19.8921 27.6488C19.6281 28.0688 19.2174 29.0338 19.2732 29.9062C19.0048 29.9047 18.8684 29.8393 18.963 29.4746C18.9982 29.3388 18.9139 29.242 18.8025 29.4093C18.6791 29.5938 18.6198 29.909 18.6198 30.0439C18.6198 30.8209 19.5496 30.9773 19.9045 30.8129C20.9313 31.802 22.9479 31.5381 23.6233 31.2064L20.0725 21.5083C19.9999 21.3252 19.7395 21.413 19.8032 21.6033ZM19.68 29.5917C19.6067 29.1924 20.1648 28.4788 20.8746 27.7902C20.7235 28.2389 20.8174 29.0123 21.1137 29.2787C20.5988 29.2787 19.9872 29.3748 19.68 29.5917Z" fill="#E35800"/>
</svg>
