<svg width="1361" height="548" viewBox="0 0 1361 548" fill="none" xmlns="http://www.w3.org/2000/svg">
<path d="M725.401 367.33L724.682 366.637C628.772 457.548 483.247 516.891 343.875 538.005C274.194 548.561 206.072 549.558 146.481 540.177C86.9812 530.811 36.0235 511.103 0.5 480.272V479.572V478.642V477.71V476.777V475.842V474.905V473.967V473.027V472.085V471.142V470.197V469.251V468.303V467.353V466.402V465.449V464.495V463.539V462.582V461.623V460.663V459.701V458.738V457.773V456.807V455.84V454.87V453.9V452.928V451.955V450.98V450.004V449.027V448.048V447.068V446.086V445.103V444.119V443.134V442.147V441.159V440.169V439.179V438.187V437.194V436.2V435.204V434.207V433.21V432.21V431.21V430.209V429.206V428.202V427.197V426.191V425.184V424.176V423.166V422.156V421.144V420.132V419.118V418.104V417.088V416.071V415.053V414.035V413.015V411.994V410.973V409.95V408.926V407.902V406.877V405.85V404.823V403.795V402.766V401.736V400.705V399.674V398.641V397.608V396.574V395.539V394.504V393.467V392.43V391.392V390.353V389.314V388.273V387.233V386.191V385.149V384.106V383.062V382.018V380.973V379.927V378.881V377.834V376.786V375.738V374.689V373.64V372.59V371.54V370.489V369.437V368.385V367.333V366.279V365.226V364.172V363.117V362.062V361.007V359.951V358.895V357.838V356.781V355.723V354.665V353.607V352.548V351.489V350.43V349.37V348.31V347.25V346.189V345.128V344.067V343.005V341.943V340.881V339.819V338.757V337.694V336.631V335.568V334.505V333.441V332.377V331.314V330.25V329.186V328.121V327.057V325.993V324.928V323.864V322.799V321.734V320.669V319.605V318.54V317.475V316.41V315.345V314.281V313.216V312.151V311.086V310.022V308.957V307.893V306.828V305.764V304.7V303.636V302.572V301.508V300.444V299.381V298.318V297.255V296.192V295.129V294.067V293.004V291.942V290.881V289.819V288.758V287.697V286.636V285.576V284.516V283.456V282.397V281.338V280.279V279.221V278.163V277.106V276.049V274.992V273.936V272.88V271.824V270.769V269.715V268.661V267.607V266.555V265.502V264.45V263.399V262.348V261.297V260.247V259.198V258.15V257.102V256.054V255.007V253.961V252.916V251.871V250.826V249.783V248.74V247.698V246.656V245.615V244.575V243.536V242.497V241.459V240.422V239.386V238.35V237.316V236.282V235.249V234.216V233.185V232.154V231.124V230.096V229.068V228.04V227.014V225.989V224.965V223.941V222.919V221.897V220.877V219.857V218.839V217.821V216.804V215.789V214.774V213.761V212.748V211.737V210.727V209.717V208.709V207.702V206.697V205.692V204.688V203.686V202.684V201.684V200.685V199.687V198.691V197.696V196.701V195.708V194.717V193.726V192.737V191.749V190.763V189.778V188.794V187.811V186.83V185.85V184.871V183.894V182.918V181.943V180.97V179.999V179.028V178.059V177.092V176.126V175.162V174.199V173.237V172.277V171.318V170.361V169.406V168.452V167.499V166.548V165.599V164.651V163.705V162.76V161.817V160.876V159.936V158.998V158.062V157.127V156.194V155.263V154.333V153.405V152.478V151.554V150.631V149.71V148.791V147.873V146.957V146.043V145.131V144.221V143.312V142.405V141.5V140.597V139.696V138.797V137.899V137.004V136.11V135.219V134.329V133.441V132.555V131.671V130.789V129.909V129.031V128.155V127.281V126.409V125.539V124.672V123.806V122.942V122.08V121.221V120.363V119.508V118.655V117.804V116.955V116.108V115.263V114.421V113.581V112.742V111.907V111.073V110.241V109.412V108.585V107.761V106.938V106.118V105.3V104.485V103.671V102.86V102.052V101.246V100.442V99.6402V98.841V98.0443V97.2499V96.458V95.6684V94.8813V94.0967V93.3145V92.5348V91.7575V90.9827V90.2104V89.4406V88.6733V87.9086V87.1464V86.3867V85.6296V84.8751V84.1232V83.3738V82.627V81.8829V81.1413V80.4025V79.6662V78.9326V78.2017V77.4734V76.7479V76.025V75.3048V74.5874V73.8727V73.1607V72.4515V71.745V71.0413V70.3404V69.6423V68.947V68.2545V67.5648V66.878V66.194V65.5129V64.8346V64.1592V63.4867V62.8171V62.1504V61.4867V60.8258V60.168V59.513V58.8611V58.2121V57.566V56.923V56.283V55.646V55.0121V54.3812V53.7533V53.1285V52.5067V51.8881V51.2725V50.66V50.0507V49.4445V48.8414V48.2414V47.6446V47.051V46.4606V45.8733V45.2893V44.7084V44.1308V43.5564V42.9852V42.4173V41.8527V41.2913V40.7333V40.1785V39.627V39.0788V38.534V37.9925V37.4544V36.9196V36.3881V35.8601V35.3355V34.8142V34.2964V33.782V33.271V32.7635V32.2594V31.7588V31.2617V30.768V30.2779V29.7912V29.3081V28.8285V28.3525V27.88V27.4111V26.9457V26.4839V26.0257V25.5712V25.1202V24.6729V24.2292V23.7891V23.3527V22.92V22.491V22.0656V21.6439V21.226V20.8118V20.4013V19.9946C0.5 9.22518 9.23027 0.5 20 0.5H1340.05C1350.82 0.5 1359.55 9.09808 1359.55 19.8632V20.2296V20.599V20.9715V21.347V21.7255V22.107V22.4915V22.8789V23.2694V23.6628V24.0591V24.4584V24.8607V25.2658V25.6739V26.0849V26.4988V26.9156V27.3353V27.7579V28.1833V28.6116V29.0427V29.4767V29.9135V30.3532V30.7956V31.2409V31.6889V32.1398V32.5934V33.0498V33.509V33.9709V34.4356V34.903V35.3731V35.8459V36.3215V36.7998V37.2807V37.7644V38.2507V38.7397V39.2313V39.7256V40.2225V40.7221V41.2243V41.7291V42.2365V42.7465V43.2591V43.7743V44.2921V44.8124V45.3353V45.8607V46.3886V46.9191V47.4521V47.9876V48.5256V49.0661V49.6091V50.1546V50.7025V51.2529V51.8058V52.361V52.9188V53.4789V54.0414V54.6064V55.1738V55.7435V56.3156V56.8901V57.467V58.0462V58.6278V59.2116V59.7979V60.3864V60.9773V61.5704V62.1659V62.7636V63.3636V63.9659V64.5704V65.1772V65.7862V66.3974V67.0109V67.6266V68.2445V68.8646V69.4868V70.1113V70.7379V71.3667V71.9977V72.6308V73.266V73.9033V74.5428V75.1844V75.8281V76.4738V77.1217V77.7716V78.4236V79.0777V79.7338V80.3919V81.0521V81.7143V82.3785V83.0447V83.7129V84.3831V85.0553V85.7295V86.4056V87.0836V87.7637V88.4456V89.1295V89.8153V90.503V91.1926V91.8841V92.5774V93.2727V93.9698V94.6688V95.3696V96.0723V96.7767V97.4831V98.1912V98.9011V99.6128V100.326V101.042V101.759V102.478V103.198V103.92V104.644V105.37V106.098V106.827V107.558V108.29V109.025V109.761V110.498V111.238V111.979V112.721V113.465V114.211V114.959V115.708V116.458V117.21V117.964V118.72V119.477V120.235V120.995V121.757V122.52V123.284V124.05V124.818V125.587V126.358V127.13V127.903V128.678V129.455V130.233V131.012V131.793V132.575V133.358V134.143V134.929V135.717V136.506V137.297V138.088V138.881V139.676V140.472V141.269V142.067V142.867V143.668V144.47V145.274V146.078V146.885V147.692V148.5V149.31V150.121V150.933V151.747V152.561V153.377V154.194V155.012V155.832V156.652V157.474V158.296V159.12V159.945V160.771V161.599V162.427V163.256V164.087V164.918V165.751V166.584V167.419V168.254V169.091V169.929V170.767V171.607V172.448V173.289V174.132V174.976V175.82V176.666V177.512V178.359V179.208V180.057V180.907V181.758V182.61V183.462V184.316V185.17V186.025V186.882V187.739V188.596V189.455V190.314V191.174V192.035V192.897V193.759V194.623V195.487V196.351V197.217V198.083V198.95V199.818V200.686V201.555V202.424V203.295V204.166V205.038V205.91V206.783V207.656V208.531V209.405V210.281V211.157V212.033V212.911V213.788V214.667V215.545V216.425V217.305V218.185V219.066V219.948V220.829V221.712V222.595V223.478V224.362V225.246V226.131V227.016V227.902V228.788V229.674V230.561V231.449V232.336V233.224V234.113V235.001V235.89V236.78V237.67V238.56V239.45V240.341V241.232V242.123V243.015V243.906V244.799V245.691V246.583V247.476V248.369V249.263V250.156V251.05V251.944V252.838V253.732V254.626V255.521V256.416V257.311V258.206V259.101V259.996V260.891V261.787V262.682V263.578V264.473V265.369V266.265V267.161V268.057V268.952V269.848V270.744V271.64V272.536V273.432V274.328V275.224V276.119V277.015V277.911V278.806V279.702V280.597V281.493V282.388V283.283V284.178V285.073V285.968V286.862V287.757V288.651V289.545V290.439V291.333V292.226V293.12V294.013V294.906V295.798V296.691V297.583V298.475V299.366V300.258V301.149V302.04V302.93V303.82V304.71V305.599V306.489V307.377V308.266V309.154V310.042V310.929V311.816V312.702V313.589V314.474V315.36V316.244V317.129V318.013V318.896V319.779V320.662V321.544V322.425V323.306V324.187V325.067V325.947V326.825V327.704V328.582V329.459V330.336V331.212V332.087V332.962V333.837V334.71V335.583V336.456V337.328V338.199V339.069V339.939V340.808V341.677V342.544V343.411V344.278V345.143V346.008V346.872V347.736V348.598V349.46V350.321V351.182V352.041V352.9V353.758V354.615V355.471V356.327V357.181V358.035V358.888V359.74V360.591V361.441V362.29V363.139V363.986V364.833V365.679V366.523V367.367V368.21V369.052V369.893V370.732V371.571V372.409V373.246V374.082V374.917V375.751V376.583V377.415V378.246V379.075V379.904V380.731V381.557V382.383V383.207V384.03V384.851V385.672V386.492V387.31V388.127V388.943V389.758V390.572V391.384V392.196V393.006V393.814V394.622V395.428V396.233V397.037V397.84V398.641V399.441V400.239V401.037V401.833V402.628V403.421V404.213V405.004V405.793V406.581V407.368V408.153V408.937V409.719V410.131C1107.02 488.268 930.968 497.228 826.813 476.759C774.698 466.518 740.661 448.924 724.011 429.023C715.694 419.082 711.726 408.579 711.979 398.125C712.233 387.67 716.71 377.2 725.401 367.33Z" fill="#F9F5E9" stroke="#E35800"/>
</svg>
