<svg width="450" height="76" viewBox="0 0 450 76" fill="none" xmlns="http://www.w3.org/2000/svg">
<path fill-rule="evenodd" clip-rule="evenodd" d="M3.74119 54.752C1.67499 54.752 0 56.4269 0 58.4931V72.0108C0 74.077 1.67497 75.7519 3.74117 75.7519H446.259C448.325 75.7519 450 74.077 450 72.0108V58.4931C450 56.4269 448.325 54.752 446.259 54.752H3.74119ZM80.8401 59.0647H78.3357V70.752H80.8401V65.6596H81.8419L85.5818 70.752H88.5203L83.7619 64.5911L88.3534 59.0647H85.5818L81.8419 63.8231H80.8401V59.0647ZM91.0997 70.9356C91.2333 70.9467 91.3446 70.9523 91.4337 70.9523C92.0013 70.9523 92.5022 70.8577 92.9363 70.6685C93.3815 70.4792 93.7544 70.0952 94.055 69.5164C94.3555 68.9265 94.5837 68.0917 94.7395 67.012C94.8953 65.9323 94.9732 64.5076 94.9732 62.7378V61.135H98.613V70.752H101.117V59.0647H92.6024V62.4039C92.6024 63.8064 92.5746 64.925 92.5189 65.7598C92.4633 66.5835 92.3686 67.2124 92.2351 67.6465C92.1126 68.0806 91.9512 68.3644 91.7509 68.498C91.5505 68.6204 91.3057 68.6816 91.0163 68.6816C90.905 68.6816 90.8215 68.6761 90.7658 68.6649V70.9022C90.8549 70.9245 90.9662 70.9356 91.0997 70.9356ZM106.671 70.9356C106.793 70.9467 106.916 70.9523 107.038 70.9523C107.583 70.9523 108.051 70.8967 108.44 70.7853C108.841 70.6852 109.192 70.5238 109.492 70.3012C109.793 70.0674 110.06 69.7724 110.294 69.4163C110.539 69.0489 110.778 68.6037 111.012 68.0806L114.969 59.0647H112.364L109.759 65.3257L106.487 59.0647H103.782L108.541 67.7633C108.44 67.9748 108.351 68.1585 108.274 68.3143C108.196 68.459 108.107 68.5815 108.006 68.6816C107.906 68.7707 107.778 68.8375 107.622 68.882C107.478 68.9265 107.283 68.9488 107.038 68.9488H106.671C106.559 68.9376 106.459 68.9265 106.37 68.9154V70.9022C106.459 70.9133 106.559 70.9245 106.671 70.9356ZM125.912 59.0647H117.647V70.752H122.322C123.124 70.752 123.814 70.6629 124.392 70.4848C124.982 70.3067 125.467 70.0563 125.845 69.7335C126.235 69.4107 126.524 69.0267 126.713 68.5815C126.902 68.1251 126.997 67.6186 126.997 67.0621C126.997 66.5056 126.902 66.0047 126.713 65.5595C126.524 65.1031 126.235 64.7135 125.845 64.3907C125.467 64.0679 124.982 63.8175 124.392 63.6394C123.814 63.4613 123.124 63.3723 122.322 63.3723H120.152V61.135H125.912V59.0647ZM123.958 68.2642C123.613 68.5425 122.984 68.6816 122.072 68.6816H120.152V65.4426H122.072C122.984 65.4426 123.613 65.5873 123.958 65.8767C124.315 66.155 124.493 66.5501 124.493 67.0621C124.493 67.5741 124.315 67.9748 123.958 68.2642ZM135.4 68.6816H134.097V72.9224H136.335V70.752H143.547V72.9224H145.785V68.6816H144.516V59.0647H136.285V61.7361C136.285 62.3371 136.268 62.966 136.235 63.6227C136.201 64.2683 136.151 64.9027 136.084 65.5261C136.018 66.1383 135.928 66.7226 135.817 67.2792C135.706 67.8246 135.567 68.2921 135.4 68.6816ZM142.011 61.135V68.6816H137.821C138.088 67.8914 138.294 66.9731 138.438 65.9268C138.583 64.8805 138.655 63.5949 138.655 62.07V61.135H142.011ZM151.548 70.6184C152.216 70.841 152.917 70.9523 153.652 70.9523C154.387 70.9523 155.082 70.841 155.739 70.6184C156.407 70.3958 156.991 70.0452 157.492 69.5665C158.004 69.0879 158.411 68.4757 158.711 67.73C159.012 66.9731 159.162 66.0603 159.162 64.9918V64.6579C159.162 63.6338 159.012 62.7601 158.711 62.0366C158.411 61.302 158.004 60.7009 157.492 60.2334C156.991 59.7659 156.407 59.4209 155.739 59.1982C155.082 58.9756 154.387 58.8643 153.652 58.8643C152.917 58.8643 152.216 58.9756 151.548 59.1982C150.892 59.4209 150.307 59.7659 149.795 60.2334C149.294 60.7009 148.894 61.302 148.593 62.0366C148.293 62.7601 148.142 63.6338 148.142 64.6579V64.9918C148.142 66.0603 148.293 66.9731 148.593 67.73C148.894 68.4757 149.294 69.0879 149.795 69.5665C150.307 70.0452 150.892 70.3958 151.548 70.6184ZM154.737 68.6649C154.392 68.7874 154.031 68.8486 153.652 68.8486C153.274 68.8486 152.906 68.7874 152.55 68.6649C152.205 68.5314 151.899 68.3143 151.632 68.0138C151.365 67.7133 151.148 67.3181 150.981 66.8284C150.825 66.3386 150.747 65.7264 150.747 64.9918V64.6579C150.747 63.9678 150.825 63.389 150.981 62.9215C151.148 62.454 151.365 62.0755 151.632 61.7861C151.899 61.4967 152.205 61.2908 152.55 61.1684C152.906 61.0348 153.274 60.968 153.652 60.968C154.031 60.968 154.392 61.0348 154.737 61.1684C155.094 61.2908 155.405 61.4967 155.672 61.7861C155.939 62.0755 156.151 62.454 156.307 62.9215C156.474 63.389 156.557 63.9678 156.557 64.6579V64.9918C156.557 65.7264 156.474 66.3386 156.307 66.8284C156.151 67.3181 155.939 67.7133 155.672 68.0138C155.405 68.3143 155.094 68.5314 154.737 68.6649ZM165.135 70.6184C165.781 70.841 166.488 70.9523 167.256 70.9523C167.923 70.9523 168.547 70.88 169.126 70.7353C169.704 70.5906 170.211 70.3568 170.645 70.034C171.079 69.7112 171.43 69.2938 171.697 68.7818C171.964 68.2698 172.125 67.6465 172.181 66.9118H169.576C169.487 67.5463 169.237 68.0305 168.825 68.3644C168.413 68.6872 167.89 68.8486 167.256 68.8486C166.933 68.8486 166.61 68.7874 166.287 68.6649C165.976 68.5314 165.692 68.3199 165.436 68.0305C165.191 67.73 164.99 67.3348 164.835 66.8451C164.679 66.3442 164.601 65.7264 164.601 64.9918V64.6579C164.601 63.9566 164.673 63.3723 164.818 62.9048C164.974 62.4373 165.174 62.0588 165.419 61.7694C165.664 61.48 165.942 61.2741 166.254 61.1517C166.577 61.0292 166.91 60.968 167.256 60.968C167.857 60.968 168.363 61.1239 168.775 61.4355C169.187 61.7472 169.454 62.2369 169.576 62.9048H172.181C172.136 62.2035 171.975 61.5969 171.697 61.0849C171.43 60.5729 171.073 60.1555 170.628 59.8327C170.194 59.4988 169.688 59.2539 169.109 59.0981C168.53 58.9422 167.912 58.8643 167.256 58.8643C166.521 58.8643 165.831 58.9756 165.185 59.1982C164.551 59.4209 163.994 59.7659 163.516 60.2334C163.048 60.7009 162.675 61.302 162.397 62.0366C162.13 62.7601 161.996 63.6338 161.996 64.6579V64.9918C161.996 66.0603 162.124 66.9731 162.38 67.73C162.647 68.4868 163.015 69.1046 163.482 69.5832C163.95 70.0507 164.501 70.3958 165.135 70.6184ZM176.652 70.9356C176.775 70.9467 176.897 70.9523 177.02 70.9523C177.565 70.9523 178.032 70.8967 178.422 70.7853C178.823 70.6852 179.173 70.5238 179.474 70.3012C179.774 70.0674 180.042 69.7724 180.275 69.4163C180.52 69.0489 180.759 68.6037 180.993 68.0806L184.95 59.0647H182.346L179.741 65.3257L176.469 59.0647H173.764L178.522 67.7633C178.422 67.9748 178.333 68.1585 178.255 68.3143C178.177 68.459 178.088 68.5815 177.988 68.6816C177.888 68.7707 177.76 68.8375 177.604 68.882C177.459 68.9265 177.264 68.9488 177.02 68.9488H176.652C176.541 68.9376 176.441 68.9265 176.352 68.9154V70.9022C176.441 70.9133 176.541 70.9245 176.652 70.9356ZM195.309 59.0647H187.629V70.752H190.133V61.135H195.309V59.0647ZM198.794 68.3644H203.118L204.02 70.752H206.658L202.317 59.0647H199.812L195.471 70.752H197.909L198.794 68.3644ZM202.367 66.2941H199.562L200.964 62.2369L202.367 66.2941ZM216.857 59.0647H214.353V70.752H216.757L221.866 62.9883V70.752H224.371V59.0647H221.95L216.857 66.8284V59.0647ZM243.074 59.0647H233.223V70.752H235.728V61.135H240.57V70.752H243.074V59.0647ZM248.634 70.9356C248.756 70.9467 248.879 70.9523 249.001 70.9523C249.547 70.9523 250.014 70.8967 250.404 70.7853C250.804 70.6852 251.155 70.5238 251.456 70.3012C251.756 70.0674 252.023 69.7724 252.257 69.4163C252.502 69.0489 252.741 68.6037 252.975 68.0806L256.932 59.0647H254.327L251.723 65.3257L248.45 59.0647H245.746L250.504 67.7633C250.404 67.9748 250.315 68.1585 250.237 68.3143C250.159 68.459 250.07 68.5815 249.97 68.6816C249.87 68.7707 249.742 68.8375 249.586 68.882C249.441 68.9265 249.246 68.9488 249.001 68.9488H248.634C248.523 68.9376 248.423 68.9265 248.333 68.9154V70.9022C248.423 70.9133 248.523 70.9245 248.634 70.9356ZM258.935 61.135H262.691V70.752H265.196V61.135H268.952V59.0647H258.935V61.135ZM279.966 59.0647H271.785V70.752H279.966V68.6816H274.306V65.7431H279.465V63.7396H274.306V61.135H279.966V59.0647ZM285.812 59.0647H283.307V70.752H297.165V59.0647H294.661V68.6816H291.488V59.0647H288.984V68.6816H285.812V59.0647ZM309.19 59.0647H301.009V70.752H309.19V68.6816H303.53V65.7431H308.689V63.7396H303.53V61.135H309.19V59.0647ZM315.088 70.6184C315.733 70.841 316.44 70.9523 317.208 70.9523C317.876 70.9523 318.499 70.88 319.078 70.7353C319.657 70.5906 320.163 70.3568 320.598 70.034C321.032 69.7112 321.382 69.2938 321.649 68.7818C321.917 68.2698 322.078 67.6465 322.134 66.9118H319.529C319.44 67.5463 319.189 68.0305 318.778 68.3644C318.366 68.6872 317.843 68.8486 317.208 68.8486C316.885 68.8486 316.563 68.7874 316.24 68.6649C315.928 68.5314 315.644 68.3199 315.388 68.0305C315.143 67.73 314.943 67.3348 314.787 66.8451C314.631 66.3442 314.553 65.7264 314.553 64.9918V64.6579C314.553 63.9566 314.626 63.3723 314.771 62.9048C314.926 62.4373 315.127 62.0588 315.372 61.7694C315.616 61.48 315.895 61.2741 316.206 61.1517C316.529 61.0292 316.863 60.968 317.208 60.968C317.809 60.968 318.316 61.1239 318.728 61.4355C319.139 61.7472 319.407 62.2369 319.529 62.9048H322.134C322.089 62.2035 321.928 61.5969 321.649 61.0849C321.382 60.5729 321.026 60.1555 320.581 59.8327C320.147 59.4988 319.64 59.2539 319.061 59.0981C318.483 58.9422 317.865 58.8643 317.208 58.8643C316.474 58.8643 315.783 58.9756 315.138 59.1982C314.503 59.4209 313.947 59.7659 313.468 60.2334C313.001 60.7009 312.628 61.302 312.35 62.0366C312.082 62.7601 311.949 63.6338 311.949 64.6579V64.9918C311.949 66.0603 312.077 66.9731 312.333 67.73C312.6 68.4868 312.967 69.1046 313.435 69.5832C313.902 70.0507 314.453 70.3958 315.088 70.6184ZM324.014 61.135H327.77V70.752H330.275V61.135H334.031V59.0647H324.014V61.135ZM341.873 59.0647H336.864V70.752H342.09C342.824 70.752 343.453 70.674 343.977 70.5182C344.5 70.3624 344.923 70.1398 345.245 69.8504C345.579 69.561 345.824 69.2159 345.98 68.8152C346.136 68.4034 346.214 67.947 346.214 67.4461C346.214 66.6892 346.019 66.077 345.629 65.6095C345.251 65.1309 344.728 64.8137 344.06 64.6579C344.572 64.4686 344.973 64.1626 345.262 63.7396C345.563 63.3055 345.713 62.7879 345.713 62.1868C345.713 61.2073 345.401 60.4449 344.778 59.8995C344.155 59.3429 343.186 59.0647 341.873 59.0647ZM343.259 68.4479C342.958 68.715 342.418 68.8486 341.639 68.8486H339.368V65.5929H341.622C342.413 65.5929 342.958 65.7431 343.259 66.0436C343.559 66.333 343.709 66.7393 343.709 67.2625C343.709 67.7856 343.559 68.1808 343.259 68.4479ZM342.791 63.4891C342.524 63.7563 342.051 63.8898 341.372 63.8898H339.368V60.968H341.389C342.068 60.968 342.541 61.0905 342.808 61.3353C343.075 61.5802 343.208 61.9364 343.208 62.4039C343.208 62.8603 343.069 63.222 342.791 63.4891ZM351.885 59.0647H349.381V70.752H351.785L356.894 62.9883V70.752H359.398V59.0647H356.978L351.885 66.8284V59.0647ZM365.739 59.0647H363.235V70.752H365.639L370.748 62.9883V70.752H373.252V59.0647H370.831L365.739 66.8284V59.0647ZM365.839 57.6789C366.351 58.1575 367.153 58.3968 368.243 58.3968C369.334 58.3968 370.136 58.1575 370.648 57.6789C371.16 57.1891 371.416 56.4823 371.416 55.5585H369.312C369.312 56.0928 369.223 56.4601 369.045 56.6604C368.867 56.8608 368.6 56.961 368.243 56.961C367.887 56.961 367.62 56.8608 367.442 56.6604C367.264 56.4601 367.175 56.0928 367.175 55.5585H365.071C365.071 56.4823 365.327 57.1891 365.839 57.6789Z" fill="#E35800"/>
<path d="M16.7762 5.48653C17.3344 3.98418 19.6472 5.48653 19.6472 5.48653C17.0154 11.5152 11.6562 25.5718 11.2734 33.5689C11.2734 34.5396 13.2672 34.9364 14.2641 35.0134L7.20621 35.8802C7.28596 33.6459 8.21105 27.259 11.2734 19.5855C14.3358 11.912 16.2179 6.98888 16.7762 5.48653Z" fill="#E35800"/>
<path d="M37.5909 5.83323C35.976 5.85249 31.3704 5.74077 25.8677 5.13984C24.8135 5.02471 23.7116 4.87295 22.5782 4.72322C22.1048 4.66068 21.6259 4.5985 21.1427 4.53949C15.4206 3.84066 9.09718 3.58733 4.15355 8.46307C3.83048 8.78171 3.56059 9.15273 3.38122 9.56954C2.53495 11.536 2.80644 13.107 3.25859 13.9806C3.75703 14.9436 0.168513 17.2742 0.0289503 15.6563C-0.110612 14.0383 0.184462 10.2709 2.48126 8.14452C5.35225 5.48653 8.76107 3.00187 19.6472 2.82852C28.3561 2.68985 36.7139 2.77074 39.8042 2.82852C42.8945 2.88631 39.2058 5.81397 37.5909 5.83323Z" fill="#E35800"/>
<path fill-rule="evenodd" clip-rule="evenodd" d="M17.7932 16.9275C18.9895 11.1954 21.4817 6.40296 22.5782 4.72322C22.1048 4.66068 21.6259 4.5985 21.1427 4.53949C19.3683 8.91921 15.5084 19.0539 14.2641 24.5548C12.7087 31.4309 14.9223 36.5158 22.5782 36.7469C30.2342 36.978 35.2585 29.2352 33.3445 24.5548C31.4305 19.8744 25.3894 16.9275 17.7932 16.9275ZM15.9391 31.8354C14.4557 28.5996 16.278 21.5886 17.3746 18.4876C17.8331 18.1409 20.0063 17.956 25.0305 19.99C31.3108 22.5324 30.6529 29.3507 27.6623 32.9332C24.6717 36.5158 17.7932 35.8802 15.9391 31.8354Z" fill="#E35800"/>
<path fill-rule="evenodd" clip-rule="evenodd" d="M59.5022 18.4009C59.9072 14.2691 56.3773 7.76014 45.5558 20.0423C39.2481 26.9474 38.6694 39.1731 49.0858 34.8715C52.1876 33.6489 56.4737 26.5135 58.229 23.0987C56.5509 28.0794 52.9514 36.5469 58.229 36.2299C60.5052 36.1167 66.6894 33.1281 73.217 22.0799C66.8515 29.6049 59.5022 38.0977 59.5022 31.4755C59.5022 26.1778 63.4372 17.4953 65.4048 13.8163L65.6362 13.4201H61.2961L59.5022 18.4009ZM49.0858 18.4009C53.6091 12.8227 57.3804 14.8437 57.5962 17.9381C57.6756 19.0771 57.4898 20.245 57.3304 21.3756C56.9071 24.3756 54.6891 27.5787 52.2686 30.2303C49.3751 33.3999 46.9447 35.2111 44.9192 30.6831C43.2989 27.0607 47.0218 20.9856 49.0858 18.4009Z" fill="#E35800"/>
<path fill-rule="evenodd" clip-rule="evenodd" d="M72.4647 13.8163C73.4276 13.5578 76.386 13.1222 80.6346 13.4009C80.7734 13.41 80.8678 13.5413 80.8196 13.6717C79.2591 17.8929 73.1009 36.3701 70.3815 45.6814C70.3224 45.8838 70.2657 45.9623 70.4393 46.048C70.6708 46.1321 70.6129 45.7925 71.4231 43.5306C72.8093 39.6606 79.6405 11.609 88.4365 12.9673C92.1454 13.5401 95.0615 17.2688 91.735 24.7967C88.7837 31.4754 81.4923 40.8711 75.9369 34.4753L71.7703 47.3228H66.7357L75.5318 19.6461C76.4384 17.6651 77.2447 13.9068 73.217 14.7219C71.7819 14.7219 72.1175 14.1182 72.4647 13.8163ZM88.4365 15.9671C83.8533 14.7445 78.541 26.1362 76.4577 31.9848C77.1328 33.796 79.571 36.5355 83.9227 33.0036C89.3624 28.5889 91.3299 16.6463 88.4365 15.9671Z" fill="#E35800"/>
<path d="M106.607 12.6276C101.301 15.3569 98.1943 20.7055 97.2651 23.1257C97.5942 22.5042 100.334 19.2097 101.746 17.7217C105.334 13.9426 107.707 22.3629 101.746 28.702C95.4386 35.4105 95.3229 34.3055 93.7604 32.3811L91.2142 34.6451C91.3878 35.1356 92.1401 36.162 93.7604 36.3431C97.0936 37.2487 102.672 30.4566 105.045 26.9474C104.89 29.0794 105.068 33.7169 107.012 35.2111C111.058 39.168 117.994 30.018 120.206 27.1712L121.479 25.4166C123.158 23.0394 123.331 21.9667 123.042 22.3628C116.792 30.9207 112.336 34.8411 110.832 33.8527C106.954 31.3057 107.434 25.1928 108.459 23.5514C113.876 14.8783 116.902 15.0642 117.907 16.3966C117.993 16.5116 118.167 16.5336 118.264 16.4268L120.256 14.2293C120.298 14.1829 120.317 14.1201 120.304 14.0589C120.165 13.4195 119.561 12.3696 118.065 12.6276C113.297 13.8954 109.404 19.2309 108.054 21.7402C108.98 17.0424 108.054 12.0051 106.607 12.6276Z" fill="#E35800"/>
<path fill-rule="evenodd" clip-rule="evenodd" d="M139.419 18.401C139.824 14.2692 136.294 7.76025 125.472 20.0424C120.302 25.7022 120.096 33.7784 125.406 35.493C128.126 36.3712 130.932 34.6843 132.669 32.4144C134.74 29.7065 136.733 26.2061 138.146 23.0988C136.467 28.0796 132.868 36.547 138.146 36.23C140.422 36.1168 146.606 33.1283 153.134 22.08C147.983 28.4192 139.419 38.0978 139.419 31.4756C139.419 26.1778 143.354 17.4954 145.321 13.8164L145.37 13.7329C145.451 13.5944 145.351 13.4202 145.191 13.4202H141.359C141.271 13.4202 141.193 13.4752 141.163 13.5576L139.419 18.401ZM129.1 18.401C133.306 13.2142 136.945 14.5977 137.632 17.3051C138.017 18.8211 137.704 20.4836 137.336 22.0037C136.655 24.8181 134.438 27.7631 132.185 30.2304C129.292 33.4 126.404 34.1895 124.836 30.6832C123.216 27.0608 127.036 20.9857 129.1 18.401Z" fill="#E35800"/>
<path d="M153.076 14.51C153.11 14.5384 153.159 14.5506 153.204 14.5481C156.841 14.3417 157.119 15.6068 154.175 24.7402L150.877 35.6074H155.391C156.779 30.3625 163.087 16.4096 168.006 15.2314C170.841 14.5522 170.321 16.5898 167.543 25.3061L164.302 35.6074H168.99C170.764 30.57 177.959 14.2692 182.242 15.2314C186.003 15.6276 182.415 22.8158 180.274 28.8153C179.541 30.5888 178.515 34.4301 180.274 35.6074C182.033 36.7847 184.826 35.1168 186.003 34.1358C188.241 32.3623 193.399 27.5475 196.13 22.4762C192.6 26.5513 185.172 36.7394 182.994 32.0416C182.392 30.2757 184.981 23.9855 186.35 21.0612C188.55 16.3634 186.489 8.62055 179.175 15.2314C177.014 17.8727 171.953 25.0685 168.99 32.7208C172.832 21.8536 173.6 16.5332 173.503 15.2314C173.294 12.4014 168.284 9.93366 161.756 19.7594C160.541 21.6838 157.566 26.8344 155.391 32.0416C158.261 23.4384 160.174 16.7973 160.772 14.5522C160.968 13.8164 161.455 13.4202 159.326 13.4202C156.719 13.4202 152.282 13.8543 153.076 14.51Z" fill="#E35800"/>
<path d="M157.358 9.57143C162.856 9.7601 175.83 8.91488 183.746 4.02467C185.295 2.79071 185.99 3.3354 186.848 4.00631L186.871 4.02467C187.739 4.70386 189.996 4.64725 186.871 6.06224C183.746 7.47724 165.923 11.4392 157.358 10.0808C156.548 9.91102 157.069 9.56265 157.358 9.57143Z" fill="#E35800"/>
<path d="M195.942 14.2985C195.944 14.5021 196.243 14.5079 196.439 14.4541C197.874 14.0609 199.999 14.3124 198.966 18.0614C197.855 22.0913 195.185 30.4568 193.989 34.1358L193.642 35.6074H197.056L201.57 22.4762C203.537 22.5705 208.294 22.4196 211.581 21.0612C208.225 30.2303 206.315 34.7584 210.482 36.0036C214.648 37.2488 222.46 26.891 225.354 22.4762C218.41 30.3435 213.028 35.7206 211.581 32.0416C211.026 30.6832 214.474 21.8913 216.268 17.6652C216.268 17.6652 217.147 15.3878 217.83 13.7067C217.885 13.5697 217.784 13.4202 217.636 13.4202C215.908 13.4202 215.02 13.4202 213.991 13.4202C213.9 13.4202 213.82 13.4792 213.793 13.5663C213.23 15.4209 212.681 17.9454 212.681 17.9454C212.218 20.1528 212.137 21.0612 204.637 21.0612C201.975 21.0612 201.616 20.7895 202.959 17.6652L204.637 13.4202C202.21 13.2138 195.933 13.4779 195.942 14.2985Z" fill="#E35800"/>
<path d="M270.318 13.4202C266.059 13.4202 263.103 13.8353 262.158 14.0428C261.753 14.3635 261.279 14.9144 262.621 14.5522C265.677 14.19 265.746 15.4578 265.399 16.137C265.399 16.4766 265.04 18.4462 263.605 23.6081C261.811 30.0605 260.075 36.4564 265.399 36.0036C270.583 35.5626 273.04 31.6328 278.335 21.3919C278.478 21.0994 278.622 20.8186 278.767 20.5518C278.621 20.8364 278.477 21.1164 278.335 21.3919C275.509 27.1791 272.285 38.1515 279.75 35.8904C283.222 35.2083 293.465 22.4762 292.076 22.4762C289.935 25.0043 284.878 30.5926 281.776 32.7208C278.674 34.8489 278.709 31.834 279.114 30.0605C280.483 25.7589 283.35 16.8275 283.859 15.5144C284.496 13.873 285.306 13.4202 283.222 13.4202C281.139 13.4202 280.561 13.024 279.75 15.005C276.105 24.0043 270.318 33.0575 267.598 33.7933C263.431 35.1064 264.909 30.6237 265.399 29.2115C267.154 24.1553 270.596 13.9183 270.318 13.4202Z" fill="#E35800"/>
<path d="M275.005 6.06224C276.51 5.00572 279.889 2.59836 281.371 1.42108C283.222 -0.0505115 283.165 1.19468 283.859 2.38327C284.553 3.57187 284.322 3.79827 283.222 4.47746C282.123 5.15666 278.188 6.85464 275.7 7.59044C273.709 8.17908 274.407 6.81691 275.005 6.06224Z" fill="#E35800"/>
<path d="M337.598 9.4558C337.676 9.61121 337.906 9.62379 337.983 9.4676L339.934 5.49626C340.262 5.32646 340.038 4.74914 336.52 3.79827C332.121 2.60967 319.275 -1.86172 310.768 16.986C302.261 35.8337 319.795 38.3242 327.955 35.381C331.46 34.4565 333.259 32.8657 333.944 31.877C334.052 31.7218 333.895 31.5557 333.721 31.6288C329.311 33.4811 320.819 35.4439 316.497 31.985C310.768 27.4004 311.231 11.2128 325.467 4.47746C317.324 9.73156 311.226 27.2208 321.749 30.6367C322.242 30.7965 322.786 30.7951 323.242 30.5516C323.683 30.3167 324.211 29.9479 324.681 29.4165C324.877 29.1953 324.744 28.8702 324.451 28.8313C322.15 28.5256 317.213 28.0998 318.002 19.9292C319.036 9.20876 331.396 -2.85171 337.598 9.4558Z" fill="#E35800"/>
<path fill-rule="evenodd" clip-rule="evenodd" d="M224.775 14.5522C226.241 14.0617 228.791 14.3597 227.263 19.4764C225.354 25.8721 220.898 33.0604 225.875 35.6074C228.745 36.8752 231.932 35.7206 233.166 34.9848C238.123 37.9806 245.943 27.8078 250.064 17.6652C247.517 24.8533 241.974 36.0036 248.038 36.0036C250.083 36.0413 255.862 33.3886 262.621 22.4762C259.091 26.2117 250.874 37.079 249.138 32.0416C248.258 30.1398 252.784 18.8349 255.156 13.4202H250.758C248.386 19.5141 242.159 32.0303 236.233 33.3434C243.737 28.9852 246.534 19.0802 239.069 17.1558C235.117 16.137 225.812 21.0837 229.376 30.8642C229.748 31.883 230.731 33.1353 231.893 33.683C231.141 34.6452 226.28 34.5885 227.09 30.0605C227.9 25.5325 227.437 24.5703 232.703 13.4202C228.247 13.4202 223.271 13.4202 224.775 14.5522ZM233.166 21.0612C227.888 26.2683 231.276 31.419 233.629 33.3434C237.796 31.0794 241.557 27.2844 240.458 22.8696C239.358 18.4548 235.134 19.4764 233.166 21.0612Z" fill="#E35800"/>
<path fill-rule="evenodd" clip-rule="evenodd" d="M344.158 25.7023C349.714 27.2278 358.128 24.8873 357.989 15.5144C357.989 9.85442 345.707 10.8166 341.438 23.6081C337.793 34.5319 341.438 37.4752 349.714 36.0036C356.334 34.8263 367.011 21.7376 364.644 22.4762C360.262 27.4621 350.968 34.6885 345.911 33.2513C344.602 32.8792 343.83 31.5751 343.55 30.2429C343.133 28.2586 343.492 26.829 344.158 25.7023ZM344.853 22.929C345.258 20.2122 348.614 14.5494 353.707 14.5494C356.6 14.5494 354.054 26.8316 344.853 22.929Z" fill="#E35800"/>
<path fill-rule="evenodd" clip-rule="evenodd" d="M366.785 22.4762C367.653 19.1556 371.53 12.5599 380.095 12.741C387.675 12.741 382.178 22.9289 377.201 23.6081C380.029 24.3835 381.08 27.4784 380.798 31.1926C380.766 31.6192 380.716 32.054 380.649 32.4944C379.725 38.576 375.575 45.7239 369.968 47.1531C360.419 49.5869 348.151 44.3238 359.378 36.3998C363.59 33.5924 372.9 32.4378 377.028 32.2114C377.818 28.4192 377.491 23.0988 368.579 26.3815C387.733 16.8728 376.16 8.60923 366.785 22.4762ZM358.625 39.965C359.791 35.2559 371.553 33.4566 377.028 33.1736C376.661 36.1545 374.84 42.3399 370.72 44.8303C365.57 47.9433 357.169 45.8513 358.625 39.965Z" fill="#E35800"/>
<path fill-rule="evenodd" clip-rule="evenodd" d="M396.298 19.9858C390.233 27.8192 383.438 30.7209 380.798 31.1926C380.766 31.6192 380.716 32.054 380.649 32.4944C384.287 32.5397 389.858 27.8343 392.189 25.4759C390.511 34.7583 395.372 38.494 402.085 34.9848C411.749 38.7741 423.243 19.3604 421.066 21.6272C420.384 22.3364 419.861 23.4465 417.938 25.5604C415.446 28.3007 412.918 31.2495 409.524 32.7339C407.204 33.7487 405.03 33.8334 404.168 33.3434C411.344 28.4758 415.395 16.8134 411.749 14.2692C405.788 10.8732 401.217 14.439 396.298 19.9858ZM395.256 29.4379C394.608 24.3213 400.079 18.0614 402.895 15.571C396.298 21.797 397.224 30.9662 400.58 33.5132C398.555 34.0226 395.835 34.0791 395.256 29.4379ZM402.548 17.269C397.548 23.0648 398.497 30.9662 402.316 32.6076C408.103 29.6823 412.2 16.8502 406.598 15.1748C405.943 15.0239 404.214 15.2314 402.548 17.269Z" fill="#E35800"/>
<path d="M420.588 14.2955C420.591 14.4991 420.889 14.5049 421.086 14.4511C422.521 14.0578 424.646 14.3094 423.612 18.0584C422.501 22.0883 419.831 30.4537 418.635 34.1327L418.288 35.6043H421.702L426.216 22.4732C428.184 22.5675 432.94 22.4166 436.227 21.0582C432.871 30.2273 430.961 34.7553 435.128 36.0005C439.294 37.2457 447.107 26.8879 450 22.4732C443.056 30.3405 437.674 35.7175 436.227 32.0385C435.672 30.6801 439.121 21.8883 440.915 17.6622L442.593 13.4172H438.484L437.095 18.0584C436.632 20.2658 436.783 21.0582 429.283 21.0582C426.621 21.0582 426.262 20.7865 427.605 17.6622L429.283 13.4172C426.856 13.2107 420.579 13.4749 420.588 14.2955Z" fill="#E35800"/>
</svg>
