<svg width="195" height="32" viewBox="0 0 195 32" fill="none" xmlns="http://www.w3.org/2000/svg">
<path fill-rule="evenodd" clip-rule="evenodd" d="M1.62118 23.0398C0.725829 23.0398 0 23.7656 0 24.661V30.3786C0 31.274 0.725831 31.9998 1.62119 31.9998H193.379C194.274 31.9998 195 31.274 195 30.3786V24.661C195 23.7656 194.274 23.0398 193.379 23.0398H1.62118ZM35.0307 24.8284H33.9455V29.8929H35.0307V27.6862H35.4648L37.0854 29.8929H38.3588L36.2968 27.2232L38.2865 24.8284H37.0854L35.4648 26.8904H35.0307V24.8284ZM39.4766 29.9725C39.5344 29.9773 39.5827 29.9797 39.6213 29.9797C39.8672 29.9797 40.0843 29.9387 40.2724 29.8567C40.4653 29.7747 40.6269 29.6083 40.7571 29.3575C40.8874 29.1019 40.9863 28.7401 41.0538 28.2723C41.1213 27.8044 41.1551 27.187 41.1551 26.4201V25.7256H42.7323V29.8929H43.8175V24.8284H40.1277V26.2754C40.1277 26.8832 40.1156 27.3679 40.0915 27.7297C40.0674 28.0866 40.0264 28.3591 39.9685 28.5472C39.9155 28.7353 39.8455 28.8583 39.7587 28.9162C39.6719 28.9693 39.5658 28.9958 39.4404 28.9958C39.3921 28.9958 39.356 28.9934 39.3319 28.9885V29.958C39.3704 29.9677 39.4187 29.9725 39.4766 29.9725ZM46.224 29.9725C46.277 29.9773 46.3301 29.9797 46.3831 29.9797C46.6195 29.9797 46.8221 29.9556 46.9909 29.9074C47.1645 29.864 47.3165 29.794 47.4467 29.6976C47.5769 29.5963 47.6927 29.4685 47.794 29.3141C47.9001 29.155 48.0038 28.962 48.1051 28.7353L49.8198 24.8284H48.6911L47.5624 27.5416L46.1444 24.8284H44.9723L47.0343 28.5979C46.9909 28.6895 46.9523 28.7691 46.9185 28.8366C46.8848 28.8993 46.8462 28.9524 46.8028 28.9958C46.7594 29.0344 46.7039 29.0633 46.6364 29.0826C46.5737 29.1019 46.4893 29.1115 46.3831 29.1115H46.224C46.1757 29.1067 46.1323 29.1019 46.0937 29.0971V29.958C46.1323 29.9629 46.1757 29.9677 46.224 29.9725ZM54.5618 24.8284H50.9805V29.8929H53.0063C53.3535 29.8929 53.6526 29.8543 53.9034 29.7772C54.159 29.7 54.3688 29.5915 54.5328 29.4516C54.7017 29.3117 54.8271 29.1453 54.9091 28.9524C54.9911 28.7546 55.0321 28.5352 55.0321 28.294C55.0321 28.0528 54.9911 27.8358 54.9091 27.6428C54.8271 27.4451 54.7017 27.2763 54.5328 27.1364C54.3688 26.9965 54.159 26.888 53.9034 26.8108C53.6526 26.7336 53.3535 26.6951 53.0063 26.6951H52.0657V25.7256H54.5618V24.8284ZM53.7153 28.8149C53.5658 28.9355 53.2932 28.9958 52.8977 28.9958H52.0657V27.5922H52.8977C53.2932 27.5922 53.5658 27.6549 53.7153 27.7803C53.8696 27.9009 53.9468 28.0721 53.9468 28.294C53.9468 28.5159 53.8696 28.6895 53.7153 28.8149ZM58.6732 28.9958H58.1089V30.8335H59.0784V29.8929H62.2039V30.8335H63.1734V28.9958H62.6235V24.8284H59.0567V25.986C59.0567 26.2465 59.0494 26.519 59.035 26.8036C59.0205 27.0833 58.9988 27.3583 58.9699 27.6284C58.9409 27.8937 58.9023 28.1469 58.8541 28.388C58.8059 28.6244 58.7456 28.827 58.6732 28.9958ZM61.5383 25.7256V28.9958H59.7223C59.8381 28.6533 59.9273 28.2554 59.99 27.802C60.0527 27.3486 60.084 26.7915 60.084 26.1307V25.7256H61.5383ZM65.671 29.835C65.9604 29.9315 66.2643 29.9797 66.5826 29.9797C66.9009 29.9797 67.2024 29.9315 67.487 29.835C67.7764 29.7386 68.0296 29.5866 68.2466 29.3792C68.4685 29.1718 68.6446 28.9066 68.7748 28.5834C68.905 28.2554 68.9701 27.8599 68.9701 27.3969V27.2522C68.9701 26.8084 68.905 26.4298 68.7748 26.1163C68.6446 25.7979 68.4685 25.5375 68.2466 25.3349C68.0296 25.1323 67.7764 24.9828 67.487 24.8863C67.2024 24.7898 66.9009 24.7416 66.5826 24.7416C66.2643 24.7416 65.9604 24.7898 65.671 24.8863C65.3864 24.9828 65.1332 25.1323 64.9113 25.3349C64.6943 25.5375 64.5206 25.7979 64.3904 26.1163C64.2602 26.4298 64.195 26.8084 64.195 27.2522V27.3969C64.195 27.8599 64.2602 28.2554 64.3904 28.5834C64.5206 28.9066 64.6943 29.1718 64.9113 29.3792C65.1332 29.5866 65.3864 29.7386 65.671 29.835ZM67.0529 28.9885C66.9033 29.0416 66.7466 29.0681 66.5826 29.0681C66.4186 29.0681 66.2594 29.0416 66.1051 28.9885C65.9556 28.9307 65.8229 28.8366 65.7072 28.7064C65.5914 28.5762 65.4973 28.4049 65.425 28.1927C65.3575 27.9805 65.3237 27.7152 65.3237 27.3969V27.2522C65.3237 26.9531 65.3575 26.7023 65.425 26.4997C65.4973 26.2971 65.5914 26.1331 65.7072 26.0077C65.8229 25.8823 65.9556 25.7931 66.1051 25.74C66.2594 25.6822 66.4186 25.6532 66.5826 25.6532C66.7466 25.6532 66.9033 25.6822 67.0529 25.74C67.2072 25.7931 67.3423 25.8823 67.458 26.0077C67.5738 26.1331 67.6654 26.2971 67.733 26.4997C67.8053 26.7023 67.8415 26.9531 67.8415 27.2522V27.3969C67.8415 27.7152 67.8053 27.9805 67.733 28.1927C67.6654 28.4049 67.5738 28.5762 67.458 28.7064C67.3423 28.8366 67.2072 28.9307 67.0529 28.9885ZM71.5586 29.835C71.8383 29.9315 72.1446 29.9797 72.4774 29.9797C72.7668 29.9797 73.0369 29.9484 73.2877 29.8857C73.5385 29.823 73.758 29.7217 73.9461 29.5818C74.1342 29.4419 74.2862 29.2611 74.4019 29.0392C74.5177 28.8173 74.5876 28.5472 74.6117 28.2289H73.4831C73.4445 28.5038 73.336 28.7136 73.1575 28.8583C72.979 28.9982 72.7523 29.0681 72.4774 29.0681C72.3375 29.0681 72.1977 29.0416 72.0578 28.9885C71.9227 28.9307 71.7997 28.839 71.6888 28.7136C71.5827 28.5834 71.4959 28.4122 71.4283 28.1999C71.3608 27.9829 71.327 27.7152 71.327 27.3969V27.2522C71.327 26.9483 71.3584 26.6951 71.4211 26.4925C71.4886 26.2899 71.5754 26.1259 71.6816 26.0005C71.7877 25.8751 71.9083 25.7859 72.0433 25.7328C72.1832 25.6797 72.3279 25.6532 72.4774 25.6532C72.7379 25.6532 72.9573 25.7207 73.1358 25.8558C73.3143 25.9909 73.43 26.2031 73.4831 26.4925H74.6117C74.5924 26.1886 74.5225 25.9257 74.4019 25.7039C74.2862 25.482 74.1318 25.3011 73.9389 25.1612C73.7508 25.0165 73.5313 24.9104 73.2805 24.8429C73.0297 24.7754 72.762 24.7416 72.4774 24.7416C72.1591 24.7416 71.86 24.7898 71.5803 24.8863C71.3053 24.9828 71.0642 25.1323 70.8568 25.3349C70.6542 25.5375 70.4926 25.7979 70.372 26.1163C70.2563 26.4298 70.1984 26.8084 70.1984 27.2522V27.3969C70.1984 27.8599 70.2539 28.2554 70.3648 28.5834C70.4806 28.9114 70.6397 29.1791 70.8423 29.3865C71.0449 29.5891 71.2836 29.7386 71.5586 29.835ZM76.5493 29.9725C76.6023 29.9773 76.6554 29.9797 76.7085 29.9797C76.9448 29.9797 77.1474 29.9556 77.3162 29.9074C77.4898 29.864 77.6418 29.794 77.772 29.6976C77.9022 29.5963 78.018 29.4685 78.1193 29.3141C78.2254 29.155 78.3291 28.962 78.4304 28.7353L80.1451 24.8284H79.0164L77.8878 27.5416L76.4697 24.8284H75.2976L77.3596 28.5979C77.3162 28.6895 77.2776 28.7691 77.2439 28.8366C77.2101 28.8993 77.1715 28.9524 77.1281 28.9958C77.0847 29.0344 77.0292 29.0633 76.9617 29.0826C76.899 29.1019 76.8146 29.1115 76.7085 29.1115H76.5493C76.5011 29.1067 76.4576 29.1019 76.4191 29.0971V29.958C76.4576 29.9629 76.5011 29.9677 76.5493 29.9725ZM84.6339 24.8284H81.3058V29.8929H82.391V25.7256H84.6339V24.8284ZM86.144 28.8583H88.0179L88.4086 29.8929H89.5517L87.6706 24.8284H86.5853L84.7042 29.8929H85.7606L86.144 28.8583ZM87.6923 27.9612H86.4768L87.0846 26.2031L87.6923 27.9612ZM93.9715 24.8284H92.8863V29.8929H93.9281L96.142 26.5287V29.8929H97.2273V24.8284H96.1782L93.9715 28.1927V24.8284ZM105.332 24.8284H101.063V29.8929H102.149V25.7256H104.247V29.8929H105.332V24.8284ZM107.741 29.9725C107.794 29.9773 107.848 29.9797 107.901 29.9797C108.137 29.9797 108.339 29.9556 108.508 29.9074C108.682 29.864 108.834 29.794 108.964 29.6976C109.094 29.5963 109.21 29.4685 109.311 29.3141C109.417 29.155 109.521 28.962 109.622 28.7353L111.337 24.8284H110.209L109.08 27.5416L107.662 24.8284H106.49L108.552 28.5979C108.508 28.6895 108.47 28.7691 108.436 28.8366C108.402 28.8993 108.364 28.9524 108.32 28.9958C108.277 29.0344 108.221 29.0633 108.154 29.0826C108.091 29.1019 108.007 29.1115 107.901 29.1115H107.741C107.693 29.1067 107.65 29.1019 107.611 29.0971V29.958C107.65 29.9629 107.693 29.9677 107.741 29.9725ZM112.205 25.7256H113.833V29.8929H114.918V25.7256H116.546V24.8284H112.205V25.7256ZM121.319 24.8284H117.773V29.8929H121.319V28.9958H118.866V27.7224H121.102V26.8542H118.866V25.7256H121.319V24.8284ZM123.852 24.8284H122.766V29.8929H128.772V24.8284H127.686V28.9958H126.312V24.8284H125.226V28.9958H123.852V24.8284ZM133.982 24.8284H130.437V29.8929H133.982V28.9958H131.53V27.7224H133.765V26.8542H131.53V25.7256H133.982V24.8284ZM136.538 29.835C136.818 29.9315 137.124 29.9797 137.457 29.9797C137.746 29.9797 138.016 29.9484 138.267 29.8857C138.518 29.823 138.737 29.7217 138.926 29.5818C139.114 29.4419 139.266 29.2611 139.381 29.0392C139.497 28.8173 139.567 28.5472 139.591 28.2289H138.463C138.424 28.5038 138.315 28.7136 138.137 28.8583C137.959 28.9982 137.732 29.0681 137.457 29.0681C137.317 29.0681 137.177 29.0416 137.037 28.9885C136.902 28.9307 136.779 28.839 136.668 28.7136C136.562 28.5834 136.475 28.4122 136.408 28.1999C136.34 27.9829 136.307 27.7152 136.307 27.3969V27.2522C136.307 26.9483 136.338 26.6951 136.401 26.4925C136.468 26.2899 136.555 26.1259 136.661 26.0005C136.767 25.8751 136.888 25.7859 137.023 25.7328C137.163 25.6797 137.307 25.6532 137.457 25.6532C137.717 25.6532 137.937 25.7207 138.115 25.8558C138.294 25.9909 138.409 26.2031 138.463 26.4925H139.591C139.572 26.1886 139.502 25.9257 139.381 25.7039C139.266 25.482 139.111 25.3011 138.918 25.1612C138.73 25.0165 138.511 24.9104 138.26 24.8429C138.009 24.7754 137.741 24.7416 137.457 24.7416C137.139 24.7416 136.839 24.7898 136.56 24.8863C136.285 24.9828 136.044 25.1323 135.836 25.3349C135.634 25.5375 135.472 25.7979 135.352 26.1163C135.236 26.4298 135.178 26.8084 135.178 27.2522V27.3969C135.178 27.8599 135.233 28.2554 135.344 28.5834C135.46 28.9114 135.619 29.1791 135.822 29.3865C136.024 29.5891 136.263 29.7386 136.538 29.835ZM140.406 25.7256H142.034V29.8929H143.119V25.7256H144.747V24.8284H140.406V25.7256ZM148.145 24.8284H145.974V29.8929H148.239C148.557 29.8929 148.83 29.8592 149.056 29.7916C149.283 29.7241 149.466 29.6276 149.606 29.5022C149.751 29.3768 149.857 29.2273 149.925 29.0537C149.992 28.8752 150.026 28.6774 150.026 28.4604C150.026 28.1324 149.942 27.8671 149.773 27.6645C149.609 27.4571 149.382 27.3197 149.093 27.2522C149.315 27.1702 149.488 27.0375 149.614 26.8542C149.744 26.6661 149.809 26.4418 149.809 26.1814C149.809 25.7569 149.674 25.4265 149.404 25.1902C149.134 24.949 148.714 24.8284 148.145 24.8284ZM148.745 28.8945C148.615 29.0103 148.381 29.0681 148.044 29.0681H147.06V27.6573H148.036C148.379 27.6573 148.615 27.7224 148.745 27.8527C148.876 27.9781 148.941 28.1541 148.941 28.3808C148.941 28.6075 148.876 28.7787 148.745 28.8945ZM148.543 26.7457C148.427 26.8615 148.222 26.9193 147.928 26.9193H147.06V25.6532H147.935C148.229 25.6532 148.434 25.7063 148.55 25.8124C148.666 25.9185 148.724 26.0728 148.724 26.2754C148.724 26.4732 148.663 26.6299 148.543 26.7457ZM152.484 24.8284H151.398V29.8929H152.44L154.654 26.5287V29.8929H155.739V24.8284H154.69L152.484 28.1927V24.8284ZM158.487 24.8284H157.402V29.8929H158.444L160.657 26.5287V29.8929H161.743V24.8284H160.694L158.487 28.1927V24.8284ZM158.53 24.2279C158.752 24.4353 159.1 24.539 159.572 24.539C160.045 24.539 160.392 24.4353 160.614 24.2279C160.836 24.0157 160.947 23.7094 160.947 23.3091H160.035C160.035 23.5406 159.997 23.6998 159.919 23.7866C159.842 23.8734 159.727 23.9168 159.572 23.9168C159.418 23.9168 159.302 23.8734 159.225 23.7866C159.148 23.6998 159.109 23.5406 159.109 23.3091H158.198C158.198 23.7094 158.308 24.0157 158.53 24.2279Z" fill="#F9F5E9"/>
<path d="M7.26968 2.01978C7.51159 1.37878 8.51378 2.01978 8.51378 2.01978C7.37335 4.592 5.05104 10.5895 4.88516 14.0016C4.88516 14.4158 5.74912 14.585 6.1811 14.6179L3.12269 14.9877C3.15725 14.0344 3.55812 11.3094 4.88516 8.03533C6.2122 4.76129 7.02777 2.66078 7.26968 2.01978Z" fill="#F9F5E9"/>
<path d="M16.2894 2.1677C15.5896 2.17592 13.5938 2.12826 11.2093 1.87186C10.7525 1.82274 10.275 1.75798 9.7839 1.6941C9.57876 1.66742 9.37123 1.64089 9.16185 1.61571C6.68331 1.31767 3.94447 1.20955 1.80264 3.28709C1.6608 3.42467 1.54199 3.58541 1.46313 3.7666C1.09892 4.6034 1.21649 5.27186 1.41206 5.6439C1.62804 6.0548 0.0730221 7.04917 0.0125451 6.35886C-0.0479318 5.66855 0.0799337 4.06112 1.07521 3.15386C2.31931 2.01978 3.79647 0.959659 8.51378 0.885698C12.2876 0.826528 15.9094 0.861044 17.2485 0.885698C18.5876 0.910352 16.9892 2.15949 16.2894 2.1677Z" fill="#F9F5E9"/>
<path fill-rule="evenodd" clip-rule="evenodd" d="M7.71041 6.90125C8.22878 4.45558 9.30873 2.41079 9.7839 1.6941C9.57876 1.66742 9.37123 1.64089 9.16185 1.61571C8.39293 3.48439 6.72029 7.80851 6.1811 10.1556C5.5071 13.0894 6.46631 15.2589 9.7839 15.3575C13.1015 15.4562 15.2787 12.1525 14.4493 10.1556C13.6199 8.1586 11.0021 6.90125 7.71041 6.90125ZM6.90693 13.262C6.26414 11.8813 7.0538 8.89 7.52898 7.5669C7.72769 7.41898 8.6694 7.34009 10.8466 8.20791C13.568 9.29268 13.2829 12.2018 11.987 13.7304C10.6911 15.2589 7.71041 14.9877 6.90693 13.262Z" fill="#F9F5E9"/>
<path fill-rule="evenodd" clip-rule="evenodd" d="M25.7842 7.53022C25.9597 5.76732 24.4301 2.99016 19.7408 8.23054C17.0075 11.1767 16.7567 16.393 21.2704 14.5577C22.6145 14.036 24.4719 10.9916 25.2325 9.5346C24.5053 11.6597 22.9456 15.2725 25.2325 15.1373C26.2189 15.089 28.8987 13.8138 31.7273 9.09991C28.9689 12.3106 25.7842 15.9342 25.7842 13.1087C25.7842 10.8483 27.4894 7.14383 28.342 5.57413L28.4423 5.40508H26.5616L25.7842 7.53022ZM21.2704 7.53022C23.2194 5.16371 24.8462 6.0028 24.9565 7.31034C24.9988 7.81067 24.9144 8.32555 24.8398 8.82208C24.6483 10.0955 23.6923 11.4528 22.6496 12.5774C21.3958 13.9298 20.3426 14.7025 19.4649 12.7706C18.7628 11.2251 20.3761 8.63303 21.2704 7.53022Z" fill="#F9F5E9"/>
<path fill-rule="evenodd" clip-rule="evenodd" d="M31.4013 5.57413C31.8185 5.46385 33.1002 5.27802 34.9408 5.39684C35.0012 5.40074 35.0421 5.45816 35.0209 5.51479C34.3432 7.32032 31.6765 15.1988 30.4986 19.1699C30.473 19.2563 30.4484 19.2897 30.5236 19.3263C30.624 19.3622 30.5989 19.2173 30.9499 18.2522C31.5506 16.601 34.5108 4.63234 38.3224 5.21189C39.9296 5.45626 41.1933 7.04721 39.7518 10.2591C38.4729 13.1087 35.3132 17.1175 32.9059 14.3886L31.1004 19.8702H28.9188L32.7304 8.06149C33.1232 7.21626 33.4726 5.61275 31.7273 5.96049C31.1054 5.96049 31.2509 5.70292 31.4013 5.57413ZM38.3224 6.49178C36.3364 5.97015 34.0343 10.8306 33.1316 13.326C33.4242 14.0988 34.4807 15.2676 36.3665 13.7607C38.7236 11.8771 39.5762 6.78157 38.3224 6.49178Z" fill="#F9F5E9"/>
<path d="M46.1964 5.06696C43.897 6.23144 42.5508 8.51352 42.1482 9.54614C42.2908 9.28097 43.4778 7.87532 44.09 7.24042C45.6447 5.62803 46.6729 9.22066 44.09 11.9254C41.3567 14.7876 41.3065 14.3162 40.6294 13.4951L39.5261 14.4611C39.6013 14.6704 39.9273 15.1083 40.6294 15.1856C42.0739 15.5719 44.4912 12.674 45.5194 11.1767C45.4525 12.0864 45.5294 14.065 46.372 14.7026C48.125 16.3908 51.1308 12.4869 52.0894 11.2722L52.6411 10.5236C53.3683 9.5093 53.4435 9.0516 53.3181 9.22065C50.6099 12.872 48.679 14.5447 48.027 14.123C46.3469 13.0363 46.5547 10.4281 46.9989 9.72778C49.3466 6.02634 50.658 6.10659 51.0931 6.67546C51.1307 6.72463 51.2053 6.73409 51.2472 6.68855L52.1101 5.75103C52.1287 5.7308 52.1374 5.70327 52.1314 5.67644C52.0706 5.40353 51.8087 4.957 51.1615 5.06696C49.0953 5.60789 47.4084 7.88436 46.8233 8.95498C47.2246 6.9506 46.8233 4.80135 46.1964 5.06696Z" fill="#F9F5E9"/>
<path fill-rule="evenodd" clip-rule="evenodd" d="M60.4148 7.53026C60.5903 5.76737 59.0606 2.99021 54.3713 8.23059C52.1255 10.6513 52.041 14.1081 54.3596 14.8282C55.5311 15.192 56.735 14.4801 57.4878 13.5116C58.3862 12.3559 59.2504 10.8613 59.8631 9.53464C59.1359 11.6598 57.5761 15.2725 59.8631 15.1373C60.8494 15.089 63.5292 13.8139 66.3579 9.09996C64.1261 11.8047 60.4148 15.9342 60.4148 13.1087C60.4148 10.8484 62.1199 7.14387 62.9725 5.57418L62.9921 5.54116C63.0278 5.48112 62.9845 5.40513 62.9147 5.40513H61.2551C61.2173 5.40513 61.1835 5.42875 61.1705 5.46426L60.4148 7.53026ZM55.9433 7.53026C57.7501 5.33636 59.3156 5.8975 59.6325 7.03281C59.8174 7.69531 59.6743 8.43114 59.5045 9.09767C59.2009 10.2893 58.248 11.5336 57.2802 12.5775C56.0264 13.9298 54.7751 14.2667 54.0955 12.7707C53.3934 11.2251 55.0489 8.63308 55.9433 7.53026Z" fill="#F9F5E9"/>
<path d="M66.3329 5.87023C66.3478 5.88227 66.3688 5.88743 66.3879 5.88636C67.9643 5.79819 68.0851 6.33774 66.8092 10.235L65.3799 14.8717H67.3358C67.9377 12.6338 70.671 6.6806 72.8025 6.1779C74.0313 5.88811 73.8056 6.75748 72.6019 10.4765L71.1976 14.8717H73.2288C73.9978 12.7224 77.1157 5.76736 78.9713 6.1779C80.6013 6.34694 79.0465 9.41389 78.1187 11.9737C77.8011 12.7304 77.3564 14.3693 78.1187 14.8717C78.881 15.374 80.0914 14.6624 80.6013 14.2438C81.5709 13.4871 83.806 11.4328 84.9897 9.269C83.46 11.0077 80.241 15.3546 79.2973 13.3502C79.0365 12.5968 80.1583 9.91298 80.7517 8.66527C81.7051 6.66088 80.8119 3.35727 77.6423 6.1779C76.7061 7.30486 74.5127 10.3751 73.2288 13.64C74.8939 9.00338 75.2266 6.73333 75.1848 6.1779C75.0939 4.97044 72.9229 3.91753 70.0943 8.10983C69.5676 8.93091 68.2787 11.1285 67.3358 13.3502C68.5796 9.67956 69.4088 6.84602 69.668 5.88811C69.7529 5.57417 69.9639 5.40513 69.041 5.40513C67.9114 5.40513 65.9882 5.5904 66.3329 5.87023Z" fill="#F9F5E9"/>
<path d="M68.1884 3.76298C70.5707 3.84347 76.1928 3.48285 79.6233 1.39636C80.2942 0.869869 80.5958 1.10227 80.9673 1.38852L80.9774 1.39636C81.3536 1.68615 82.3316 1.66199 80.9774 2.26572C79.6233 2.86946 71.8998 4.5599 68.1884 3.98031C67.8374 3.90787 68.0631 3.75923 68.1884 3.76298Z" fill="#F9F5E9"/>
<path d="M84.9082 5.78059C84.9101 5.86763 85.0379 5.86952 85.1219 5.84675C85.7437 5.67826 86.6667 5.78423 86.2184 7.38535C85.7369 9.10478 84.5801 12.6741 84.0618 14.2438L83.9114 14.8717H85.3909L87.3468 9.269C88.1994 9.30925 90.2607 9.24485 91.6851 8.66527C90.2306 12.5774 89.4031 14.5094 91.2086 15.0407C93.0141 15.572 96.3994 11.1526 97.6533 9.269C94.6441 12.6257 92.312 14.9199 91.6851 13.3502C91.4443 12.7707 92.9389 9.01945 93.7162 7.21631C93.7162 7.21631 94.0962 6.24677 94.3919 5.52973C94.4164 5.47033 94.3724 5.40512 94.3082 5.40512C93.5598 5.40512 93.1749 5.40512 92.7291 5.40512C92.6898 5.40512 92.655 5.43049 92.6434 5.46806C92.3994 6.2593 92.1615 7.33587 92.1615 7.33587C91.9609 8.27769 91.9258 8.66527 88.6759 8.66527C87.5224 8.66527 87.3669 8.54935 87.9487 7.21631L88.6759 5.40512C87.6233 5.31698 84.9005 5.4299 84.9082 5.78059Z" fill="#F9F5E9"/>
<path d="M117.138 5.40512C115.292 5.40512 114.011 5.58221 113.602 5.67076C113.426 5.8076 113.221 6.04266 113.802 5.88811C115.127 5.73355 115.157 6.27449 115.006 6.56428C115.006 6.70918 114.851 7.54957 114.229 9.75198C113.451 12.505 112.699 15.2339 115.006 15.0407C117.253 14.8526 118.317 13.1758 120.612 8.80638C120.674 8.68157 120.736 8.56178 120.799 8.44792C120.736 8.56937 120.673 8.68885 120.612 8.80638C119.387 11.2756 117.99 15.9571 121.225 14.9924C122.73 14.7014 127.168 9.269 126.566 9.269C125.639 10.3477 123.447 12.732 122.103 13.64C120.759 14.548 120.774 13.2617 120.949 12.505C121.543 10.6697 122.785 6.8589 123.006 6.29864C123.281 5.59831 123.632 5.40512 122.73 5.40512C121.827 5.40512 121.576 5.23607 121.225 6.0813C119.645 9.92102 117.138 13.7837 115.959 14.0976C114.154 14.6579 114.794 12.7453 115.006 12.1427C115.767 9.98542 117.258 5.61763 117.138 5.40512Z" fill="#F9F5E9"/>
<path d="M119.169 2.26572C119.821 1.81494 121.285 0.787799 121.927 0.285495C122.73 -0.342385 122.705 0.188896 123.006 0.696029C123.306 1.20316 123.206 1.29976 122.73 1.58955C122.253 1.87934 120.548 2.60381 119.47 2.91775C118.607 3.16891 118.91 2.58772 119.169 2.26572Z" fill="#F9F5E9"/>
<path d="M146.293 3.7142C146.327 3.78088 146.425 3.7862 146.459 3.71918L147.305 2.02424C147.447 1.95179 147.35 1.70547 145.825 1.29976C143.919 0.792628 138.352 -1.11517 134.666 6.92652C130.98 14.9682 138.578 16.0308 142.114 14.7751C143.63 14.3813 144.41 13.7042 144.708 13.2822C144.755 13.2153 144.688 13.143 144.612 13.1743C142.701 13.9646 139.022 14.8018 137.149 13.3261C134.666 11.37 134.867 4.46331 141.035 1.58955C137.506 3.83204 134.863 11.2983 139.429 12.7523C139.64 12.8193 139.872 12.8189 140.068 12.7166C140.258 12.6171 140.487 12.4604 140.692 12.2343C140.778 12.1388 140.72 11.9968 140.592 11.9801C139.593 11.8497 137.459 11.6647 137.801 8.18228C138.249 3.60807 143.605 -1.53792 146.293 3.7142Z" fill="#F9F5E9"/>
<path fill-rule="evenodd" clip-rule="evenodd" d="M97.4025 5.88811C98.0378 5.67881 99.1428 5.80599 98.4808 7.98908C97.6532 10.7179 95.7224 13.7849 97.8789 14.8717C99.1227 15.4126 100.504 14.9199 101.039 14.606C103.187 15.8842 106.575 11.5438 108.361 7.21631C107.258 10.2833 104.855 15.0407 107.483 15.0407C108.369 15.0568 110.874 13.925 113.802 9.269C112.273 10.8628 108.712 15.4995 107.96 13.3502C107.578 12.5388 109.539 7.71539 110.568 5.40512H108.662C107.634 8.00518 104.935 13.3454 102.368 13.9057C105.619 12.0462 106.831 7.82004 103.596 6.99897C101.884 6.56428 97.8517 8.67489 99.3964 12.8479C99.5573 13.2826 99.9834 13.8169 100.487 14.0506C100.161 14.4611 98.0545 14.4369 98.4055 12.505C98.7566 10.5731 98.556 10.1625 100.838 5.40512C98.9071 5.40512 96.7505 5.40513 97.4025 5.88811ZM101.039 8.66527C98.7516 10.887 100.219 13.0846 101.239 13.9057C103.045 12.9397 104.675 11.3205 104.198 9.43685C103.722 7.55321 101.891 7.98908 101.039 8.66527Z" fill="#F9F5E9"/>
<path fill-rule="evenodd" clip-rule="evenodd" d="M149.135 10.6455C151.542 11.2963 155.189 10.2977 155.128 6.29864C155.128 3.88372 149.807 4.29426 147.957 9.75198C146.377 14.4128 147.957 15.6686 151.542 15.0407C154.411 14.5384 159.038 8.95387 158.012 9.269C156.116 11.3934 152.097 14.4711 149.904 13.8689C149.331 13.7117 148.989 13.1461 148.868 12.5651C148.693 11.7276 148.849 11.1228 149.135 10.6455ZM149.436 9.46219C149.612 8.30303 151.066 5.88692 153.273 5.88692C154.527 5.88692 153.423 11.1273 149.436 9.46219Z" fill="#F9F5E9"/>
<path fill-rule="evenodd" clip-rule="evenodd" d="M158.94 9.269C159.316 7.85224 160.996 5.03805 164.708 5.11533C167.993 5.11533 165.61 9.46218 163.454 9.75198C164.679 10.0828 165.135 11.4033 165.013 12.988C164.999 13.17 164.977 13.3555 164.948 13.5434C164.548 16.1383 162.749 19.188 160.319 19.7978C156.182 20.8363 150.865 18.5906 155.73 15.2097C157.556 14.0119 161.59 13.5193 163.379 13.4227C163.721 11.8047 163.579 9.53464 159.717 10.9353C168.018 6.87822 163.002 3.35244 158.94 9.269ZM155.404 16.7309C155.909 14.7217 161.006 13.954 163.379 13.8332C163.22 15.1051 162.431 17.7442 160.645 18.8067C158.413 20.135 154.773 19.2424 155.404 16.7309Z" fill="#F9F5E9"/>
<path fill-rule="evenodd" clip-rule="evenodd" d="M171.729 8.20643C169.101 11.5487 166.156 12.7868 165.013 12.988C164.999 13.17 164.977 13.3555 164.948 13.5434C166.524 13.5628 168.939 11.5551 169.949 10.5489C169.221 14.5094 171.328 16.1033 174.237 14.606C178.424 16.2228 183.405 7.9396 182.462 8.90676C182.168 9.20782 181.942 9.67821 181.119 10.5713C180.031 11.7521 178.924 13.0199 177.448 13.6511C176.447 14.0789 175.511 14.1139 175.139 13.9057C178.249 11.8288 180.004 6.85288 178.424 5.76736C175.842 4.31841 173.861 5.83981 171.729 8.20643ZM171.278 12.2394C170.997 10.0563 173.367 7.38536 174.588 6.32279C171.729 8.97921 172.13 12.8914 173.585 13.9781C172.707 14.1955 171.528 14.2196 171.278 12.2394ZM174.437 7.04727C172.271 9.52015 172.682 12.8914 174.337 13.5917C176.845 12.3436 178.62 6.86856 176.193 6.15375C175.908 6.08935 175.159 6.1779 174.437 7.04727Z" fill="#F9F5E9"/>
<path d="M182.255 5.77931C182.257 5.86635 182.385 5.86824 182.469 5.84547C183.09 5.67697 184.013 5.78295 183.565 7.38407C183.084 9.10349 181.927 12.6728 181.409 14.2425L181.258 14.8703H182.738L184.694 9.26771C185.546 9.30796 187.607 9.24357 189.032 8.66398C187.577 12.5762 186.75 14.5081 188.555 15.0394C190.361 15.5707 193.746 11.1514 195 9.26771C191.991 12.6244 189.659 14.9186 189.032 13.3489C188.791 12.7693 190.286 9.01817 191.063 7.21502L191.79 5.40383H190.01L189.408 7.38407C189.207 8.32589 189.272 8.66398 186.023 8.66398C184.869 8.66398 184.714 8.54806 185.295 7.21502L186.023 5.40383C184.97 5.31569 182.247 5.42862 182.255 5.77931Z" fill="#F9F5E9"/>
</svg>
