<svg width="65" height="65" viewBox="0 0 65 65" fill="none" xmlns="http://www.w3.org/2000/svg">
<rect x="0.5" y="0.5" width="64" height="64" rx="12.5" stroke="#212121"/>
<path d="M49.7869 8.73556C48.6072 9.01103 48.4426 9.15321 43.1022 14.5561C40.3771 17.3108 38.1001 19.5768 38.0543 19.5946C37.9995 19.6124 33.1163 18.0662 27.1906 16.1556C21.2649 14.2539 16.0159 12.5567 15.5221 12.4056L14.6259 12.1123L12.1843 14.485C10.6297 15.9956 9.77926 16.8843 9.83413 16.9376C9.889 16.982 14.251 19.6035 19.5274 22.767C24.813 25.9216 29.1384 28.5342 29.1567 28.5697C29.1841 28.6586 19.4908 38.4868 19.3445 38.5224C19.2896 38.5312 17.8448 38.3269 16.1439 38.0514L13.0347 37.5626L10.8217 39.7131L8.59961 41.8725L13.2542 43.4631L17.9088 45.0449L19.5365 49.568L21.1643 54.1L23.3956 51.9318L25.6177 49.7724L25.1056 46.8044C24.8221 45.1693 24.6026 43.7742 24.6209 43.6942C24.6484 43.5253 34.7531 34.0792 34.8629 34.1148C34.8995 34.1325 37.588 38.3357 40.8343 43.472C44.0898 48.5994 46.7874 52.8382 46.8332 52.8915C46.888 52.9448 47.7933 52.1273 49.3571 50.6077L51.7895 48.2439L47.9396 36.9139C45.8181 30.6847 44.0806 25.5573 44.0806 25.5129C44.0806 25.4684 46.3942 23.2735 49.2107 20.6432C52.8594 17.2397 54.4506 15.6935 54.6975 15.3203C56.1332 13.1698 55.2828 10.2107 52.9143 9.08212C51.881 8.58449 50.9025 8.47786 49.7869 8.73556Z" fill="#212121"/>
</svg>
