<svg width="122" height="119" viewBox="0 0 122 119" fill="none" xmlns="http://www.w3.org/2000/svg">
<path d="M107.627 5.4447C104.672 5.98167 104.247 6.31392 90.355 19.0528C83.2663 25.5477 77.3477 30.8859 77.2323 30.9243C77.0943 30.9616 65.1975 26.5207 50.7652 21.0468C36.3318 15.5949 23.5482 10.7339 22.3445 10.2979L20.1624 9.45943L13.8231 15.0417C9.78676 18.5959 7.57094 20.6946 7.70015 20.8337C7.83045 20.9507 18.3032 27.994 30.9725 36.4952C43.6655 44.9755 54.0488 51.9923 54.0896 52.0827C54.1465 52.3065 28.9282 75.4822 28.5616 75.5522C28.4247 75.5675 24.8732 74.8813 20.6967 73.9871L13.0603 72.3891L7.31455 77.4487L1.54503 82.5292L12.8703 87.052L24.1967 91.5527L27.6643 102.974L31.1307 114.417L36.9239 109.315L42.6935 104.235L41.7946 96.8095C41.296 92.7187 40.9261 89.231 40.9813 89.0349C41.0702 88.6195 67.2597 66.4426 67.5269 66.5444C67.6153 66.593 73.7486 77.3521 81.1469 90.4948C88.569 103.617 94.7206 114.465 94.8271 114.603C94.9563 114.742 97.2991 112.826 101.359 109.251L107.675 103.69L99.5521 75.1094C95.0741 59.3951 91.41 46.4616 91.4156 46.3514C91.4211 46.2412 97.4214 41.0839 104.721 34.9089C114.177 26.9196 118.308 23.2817 118.966 22.3866C122.787 17.2306 121.049 9.78526 115.326 6.69222C112.83 5.32973 110.421 4.94387 107.627 5.4447Z" fill="#E35800"/>
</svg>
