<svg width="834" height="661" viewBox="0 0 834 661" fill="none" xmlns="http://www.w3.org/2000/svg">
<path d="M404.5 418C408 427.333 410.4 445.6 392 444C369 442 362 459.5 368 470.5C374 481.5 378.5 495.5 414 502.5C449.5 509.5 450.5 501.5 483 565.5C493.4 593.5 526 607.5 541 611M404.5 418C315 379.166 135.8 299.399 135 290.999C134.862 289.555 135.167 288.04 135.801 286.5M404.5 418C409.424 420.311 415.588 422.592 421.5 423.774M551 611C559.667 610.5 579.9 605.5 591.5 589.5M600.5 577.5L608 556L608.643 554M612.5 542C620 519.666 632.6 469.3 623 446.5C611 418 599 404.5 587.5 396C578.3 389.2 571.333 386.5 569 386C563.835 385.434 555.901 384.285 547.5 382.569M612.5 542C618.167 547.333 635 558.3 657 559.5C684.5 561 698.5 557.5 701 556M612.5 542L608.643 554M392 372.5C422 376 404.5 333 402 321.5C400.988 316.844 405.794 310.221 413.5 306.21M392 372.5C368 369.7 224.333 301.333 155.5 267.499C154.189 268.292 152.644 269.301 151 270.471M392 372.5C402.428 377.121 420.674 385.938 431.5 393.236M141 267.499C139.667 263.166 137 253.499 137 249.499C137 248.447 132.778 246.218 126 243.322M133 284.999C106.5 293.999 89 290.999 78 268.999C69.2 251.4 51.6666 247.666 43.9999 247.999C31.8332 248.499 9.7999 245.599 18.9999 229.999C28.1999 214.399 40.4999 213.166 45.4999 214.499C67.9758 221.869 107.015 235.211 126 243.322M126 243.322L128 237.499C132 237.166 139.7 235.199 138.5 229.999C137 223.5 118.5 220.999 119.5 227.999C120.5 234.999 124 238.999 128.5 230.999M100.5 233.499L102.5 227.676C106.5 227.343 114.2 225.376 113 220.176C111.5 213.676 93 211.176 94 218.176C95 225.176 98.5 229.176 103 221.176M75 224.428L77 218.605C81 218.272 88.7001 216.305 87.5 211.105C85.9999 204.605 67.5 202.105 68.5 209.105C69.5 216.105 73 220.105 77.5 212.105M49 215.651L51 209.828C55 209.495 62.7001 207.528 61.5 202.328C59.9999 195.828 41.5 193.328 42.5 200.328C43.5 207.328 47 211.328 51.5 203.328M151 270.471L442 406M151 270.471C148.738 272.081 146.288 273.997 144 276.078M144 276.078L442 414M144 276.078C142.447 277.49 140.969 278.979 139.675 280.5M139.675 280.5L440 419.5M139.675 280.5C137.993 282.477 136.621 284.51 135.801 286.5M135.801 286.5L436 423.5M421.5 423.774C435.197 426.513 447.544 423.352 440 401C439.075 398.919 435.901 396.203 431.5 393.236M421.5 423.774C421.833 432.349 418.9 450.5 404.5 454.5C386.5 459.5 378 462.5 392 476C406 489.5 429 488 450.5 491C472 494 486 509.5 488.5 530C491 550.5 501 565.5 514.5 565.5C528 565.5 525.5 561 522.5 547.5C520.291 537.558 516.455 529.786 518.18 514M531 426C551.5 422.5 531.5 462.5 522.5 493.5C520.128 501.671 518.797 508.349 518.18 514M531 426C522.5 427.5 526.5 426.499 522.5 418C518.5 409.5 501 371.824 434.5 379C420.9 379 426.833 388.491 431.5 393.236M531 426C518.5 434 520.5 430.5 518.5 439.5C516.9 446.7 506.833 485.5 502 504C500.62 512.833 501.924 527.2 518.18 514M566 533C556.167 563.833 536.3 626.4 535.5 630C534.5 634.5 532.5 647.5 541 630C547.8 616 567.167 562.167 576 537M566 533C568.8 535.4 573.833 536.667 576 537M566 533C564.172 530.075 563.413 522.34 569 518.587M576 537C588 575.333 611.6 647.9 610 631.5C608.4 615.1 595.667 559 589.5 533M576 537C581.368 538.6 587.237 535 589.5 533M589.5 533C590.367 529.034 590.221 522.065 585.157 518.587M569 518.587C571.054 517.207 573.967 516.366 578 516.5C581.078 516.603 583.41 517.387 585.157 518.587M569 518.587L572 292M572 292C574.833 292.5 581.7 293.2 586.5 292M572 292C568.911 289.805 565.29 285.088 564.295 278M573.5 248C565.099 260.498 563.25 270.557 564.295 278M573.5 248L576.5 128.046M573.5 248C576.126 244.39 582.844 244.657 588 249.651M586.5 292C592.5 290.5 597 277 594 261.5C592.969 256.174 590.699 252.265 588 249.651M586.5 292L586.36 315.654M585.157 518.587L586.198 343M564.295 278C553.53 269.833 540.3 244.3 573.5 207.5M589.5 187.5C614.833 164.833 666.2 112.6 669 85M669 85C671.833 81.5 672.5 73.1 652.5 67.5M669 85C665 86.5001 656 83.4998 647.5 85M652.5 67.5C648.5 75.4999 647.5 82.4999 647.5 85M652.5 67.5C643.977 65.1135 628.654 60.9254 612 56.4018M540 37C536 36 528 52.5 527.5 62.5C527 72.5 528.188 84.4301 531.5 86.4998M540 37C542.636 37.659 579.805 47.6572 612 56.4018M540 37C533.667 36.8333 519.1 39.2998 511.5 50.4998C502 64.4998 512 86.4998 531.5 86.4998M531.5 86.4998C535.5 88.9998 545.946 87.4998 555.446 86.4998M555.446 86.4998C554.203 76.8998 562.631 55.1665 567 45.4998M555.446 86.4998C562.397 84.3302 569.06 83.1515 578 82.9639M647.5 85C640.798 86.1827 624.773 85.5005 608 84.4236M612 56.4018C609.333 61.0504 604.8 73.1627 608 84.4236M608 84.4236C603.499 84.1347 598.943 83.8172 594.5 83.4998C592.208 83.3361 590.047 83.2081 588 83.1159M578 82.9639C576.8 88.1926 576.5 94.4998 576.5 96.9998M578 82.9639C581.037 82.9002 584.337 82.9508 588 83.1159M576.5 96.9998C571.568 98.8332 561.964 104.5 563 112.5C563.972 120.008 567.995 125.826 576.5 128.046M576.5 96.9998H588M588 96.9998C588 89.7998 588 84.7439 588 83.1159M588 96.9998C598.187 100.589 601.364 123.1 590.711 128.046M576.5 128.046C579.322 128.783 582.638 129.124 586.5 129C588.092 128.948 589.492 128.612 590.711 128.046M590.711 128.046C589.742 224.009 588.5 249.101 588 249.651M413.5 306.21C412.333 301.807 410.7 293.3 413.5 294.5C417 296 445 309.5 448 304C450.4 299.6 449 298.166 448 298C438.145 296.783 421.734 293.08 415.459 286.5M413.5 306.21C423.934 300.779 439.684 300.137 453.5 315.654M453.5 315.654C454.682 316.982 455.851 318.428 457 320C481.5 353.5 500.5 363 516.5 372.5C523.866 376.873 536.112 380.242 547.5 382.569M453.5 315.654C453.5 312.911 453.5 308.099 453.5 304M453.5 304C453.5 301.546 453.5 299.348 453.5 298C453.5 293.5 525.5 304 534.5 304C538.156 304 546.68 303.257 553 301.403M453.5 304C467.167 308 496.5 315.5 504.5 313.5C508 309.5 508.5 301.42 511 306.21C512.051 308.223 512.837 310.98 513.135 313.5M512.835 318.5C512.477 319.429 511.881 320 511 320C507.5 320 506 312.807 506 315.654C506 318.5 495.5 345.5 506 351.5C516.5 357.5 521.171 327.5 512.835 318.5ZM512.835 318.5C513.303 317.288 513.367 315.466 513.135 313.5M513.135 313.5C550.5 313.5 561.09 314 564.295 308.5C566.859 304.1 562.167 296.577 559.5 293.365M559.5 293.365C557.572 291.045 552.979 288.278 544.5 285C507 270.5 419.5 263 413.5 278C412.204 281.24 413.139 284.066 415.459 286.5M559.5 293.365C562.635 297.137 558.72 299.725 553 301.403M559.5 293.365C563.197 296.679 569.331 305.777 564.295 315.654C558 328 566.5 331.5 563 343C560.582 350.944 554.824 354.898 551 364.801M415.459 286.5C430 274 529.8 277.326 553 301.403M547.5 382.569C547.964 374.86 549.288 369.234 551 364.801M561.5 321.5C558.167 319.666 551.4 317.9 551 325.5C550.5 335 553.227 357.103 551 364.801M586.36 315.654C629.407 309.436 726.8 304.4 772 334M586.36 315.654L586.287 328M772 334C777.199 338.135 772.457 341.349 761.5 343.622M772 334C778 338.8 775.167 345.666 773 348.5M772 334C774.874 334.666 779.51 341.3 775.061 362.5M586.242 335.5L586.287 328M586.242 335.5L586.198 343M586.242 335.5C599.04 339.704 618.216 342.808 639.5 344.833M586.287 328C624.691 321.748 713.5 316.12 761.5 343.622M761.5 343.622C751.348 345.728 735.861 347.026 718 347.5M586.198 343C595.632 347.5 618 356.4 632 356M632 356C632 359.6 632 363.367 632 364.801M632 356C633.2 346.582 637.5 344.631 639.5 344.833M632 364.801C631.167 365.868 629.3 369.8 628.5 377C627.5 386 629 410.5 637.5 399.5C646 388.5 641.5 368.198 639.5 366.5M632 364.801C635.5 368.603 637.5 364.801 639.5 366.5M639.5 366.5V358M639.5 358C658.167 360.333 698.8 364.1 712 360.5M639.5 358V344.833M712 360.5C712 365.3 712 370.5 712 372.5M712 360.5C712.333 357.055 714 349.633 718 347.5M712 372.5C710.5 373.046 707.5 375.824 707.5 382.569C707.5 391 707 404.5 712 406C717 407.5 723 406 723 396C723 386 724.5 372.5 719.5 372.5M712 372.5C712.833 372.5 715.5 372.5 719.5 372.5M719.5 372.5C720.092 367.767 720.319 363.793 720.31 360.5M639.5 344.833C665.095 347.268 693.737 348.144 718 347.5M718 347.5C718.939 348.674 720.291 352.658 720.31 360.5M720.31 360.5C755.262 356.9 770 351 773 348.5M773 348.5C771.333 350 767.7 355.7 766.5 366.5M766.5 366.5C765 380 766.5 392 766.5 401C766.5 401.559 766.517 402.058 766.551 402.5M766.5 366.5C766.891 361.7 770.996 361.833 773 362.5C773.706 362.241 774.398 362.255 775.061 362.5M775.061 362.5C780.309 364.433 783.77 380.791 778 391C771.356 402.754 767.059 409.173 766.551 402.5M766.551 402.5C765.874 408.355 765.026 415.673 764.114 423.5M757 483C756 489.5 751.5 485 749.5 493.5C747.5 502 744 516 750.5 519.5C757 523 751 537 745.5 537C740 537 717 556 712 552.5M757 483C764.5 485.5 763 487.5 763.5 495.5C764 503.5 762 514 759 516.5C756 519 754 530 754 537C754 544 751 545 728 557.5C721.004 561.302 713.824 564.133 706.5 566.132M757 483C757.464 479.982 759.646 461.664 761.953 442M712 552.5C707 549 710.5 551 712 542M712 552.5C712 557.044 710.9 566.132 706.5 566.132M712 542C713.5 533 719.5 512.5 712 511.5C704.5 510.5 703 513 701 525C699 537 700 544 703.5 544M712 542C710.333 542.666 706.3 544 703.5 544M703.5 544C703.5 547.5 703 554.8 701 556M701 556C701.5 559.771 703.3 567.077 706.5 566.132M608.643 554C615.429 557.667 634.1 565.7 654.5 568.5C672.244 570.935 689.746 570.708 706.5 566.132M764.114 423.5C776 422 778 424.5 778 430M764.114 423.5C763.414 429.511 762.677 435.822 761.953 442M778 430C790 432 795.5 437.22 789 439.5C783.8 441.324 780.286 440.26 779.179 439.5M778 430C778 433.266 779.569 437.06 779.179 439.5M761.953 442C762.896 441.897 765.022 441.769 768 441.78M768 441.78C769.861 441.786 772.054 441.846 774.5 442C775.639 442.071 776.523 441.989 777.202 441.78M768 441.78L780.5 514C780 515 780.7 518.6 787.5 525C796 533 806.5 538.5 807 544C807.5 549.5 808 554 812 552.5C816 551 824.5 544 817 542C809.5 540 802 532 799 527.5C796 523 791 525.5 787.5 508C784.7 494 779.468 458.02 777.202 441.78M777.202 441.78C778.45 441.395 779.006 440.58 779.179 439.5M464 410L453.5 450.5C451 457 449 471.2 461 476C476 482 480.5 465 484.5 454.5C487.7 446.1 491.5 427.666 493 419.5C493.833 415.921 493 407.21 483 401C473 394.789 466.167 404.412 464 410Z" stroke="#E35800" stroke-width="2"/>
</svg>
