<svg width="634" height="533" viewBox="0 0 634 533" fill="none" xmlns="http://www.w3.org/2000/svg">
<path fill-rule="evenodd" clip-rule="evenodd" d="M447.361 783.668C410.024 666.072 390.313 591.512 378.689 523.938C366.405 452.54 365.298 436.593 371.517 420.225C377.418 404.698 397.93 378.311 417.947 360.478C436.59 343.868 456.759 319.902 470.252 298.308C493.651 260.843 513.808 233.781 524.961 224.857C527.695 222.677 538.492 215.297 548.97 208.464C579.491 188.553 581.183 186.755 576.948 178.559C573.756 172.363 569.203 171.739 552.315 175.18C544.163 176.85 532.057 178.826 525.406 179.578C511.366 181.159 507.526 182.893 482.804 198.827C472.477 205.481 461.261 214.137 452.919 221.913C436.704 237.031 423.924 247.586 416.79 251.78C413.852 253.514 405.726 256.624 398.732 258.702C391.737 260.792 381.347 264.464 375.637 266.873C362.132 272.584 296.499 308.302 296.499 309.947C296.499 310.635 294.744 313.898 292.595 317.187C285.817 327.538 272.922 334.817 268.484 330.789C266.602 329.068 265.508 329.463 257.725 334.587C252.969 337.723 240.888 344.403 230.892 349.438C213.635 358.132 212.529 358.514 208.803 356.972C201.885 354.091 187.82 336.563 180.164 321.254C178.231 317.404 176.463 314.026 176.234 313.771C175.624 313.095 158.774 325.052 125.697 349.642C98.7242 369.694 96.2062 371.275 89.7078 372.154C81.0475 373.34 78.5931 375.647 78.3515 382.862C78.1226 389.924 76.5457 391.913 60.1534 406.024C52.8157 412.334 44.8549 419.358 42.4768 421.614L38.1275 425.745L40.7854 429.123C44.5115 433.89 44.0919 437.459 38.9923 444.152C29.7725 456.262 16.8265 485.862 9.87034 510.694C-1.02815 549.573 1.01928 576.216 15.9999 590.964C22.3584 597.211 23.4903 597.746 48.1486 606.07C110.856 627.218 136.799 647.856 138.528 677.979C139.8 699.968 128.914 722.901 93.0397 773.788C89.3009 779.079 89.5552 778.938 96.2189 771.876C112.916 754.208 128.953 729.363 136.125 710.026C147.405 679.636 143.768 657.697 124.184 637.99C110.22 623.929 91.0685 613.961 58.284 603.712C30.8534 595.12 18.5942 587.115 12.4137 573.717C10.0229 568.567 9.74317 565.648 9.79404 547.521C9.84491 529.649 10.2773 525.532 13.2403 514.212C19.2301 491.343 29.836 465.185 38.4073 452.106C44.982 442.1 47.5636 440.264 51.3914 442.954C52.9175 444.024 55.0412 444.891 56.1094 444.878C57.1777 444.853 65.1004 439.168 73.7225 432.246C96.6386 413.8 99.0803 412.232 102.018 414.068C105.566 416.286 108.86 415.929 111.479 413.023C111.539 412.956 111.598 412.891 111.655 412.828C112.679 411.693 113.281 411.025 113.176 410.499C113.025 409.746 111.421 409.284 107.52 408.16L107.054 408.026C102.908 406.827 99.271 404.252 93.6374 398.49C85.0407 389.707 81.6452 383.385 83.7308 380.058C86.147 376.195 89.2881 376.935 94.0952 382.492C96.6513 385.45 102.997 392.066 108.173 397.19L117.596 406.521L121.78 404.775C130.822 400.989 175.332 372.983 180.024 368.139C184.844 363.154 194.064 358.056 201.605 356.207C208.434 354.537 204.568 358.565 191.736 366.507C179.452 374.105 179.376 374.181 179.973 378.617C180.914 385.768 191.813 415.508 195.323 420.544C197.09 423.08 200.346 427.274 202.546 429.862C206.399 434.4 206.577 435.114 206.857 447.071C207.022 453.942 208.637 473.611 210.443 490.795C219.383 575.795 231.617 724.469 233.69 773.47C234.44 791.38 234.3 794.184 232.66 794.184C231.07 794.184 230.638 790.131 229.977 769.008C229.544 755.164 228.298 732.066 227.217 717.7C221.507 641.674 210.952 522.039 206.018 477.41C204.555 464.089 203.423 449.391 203.512 444.738C203.678 436.605 203.487 436.044 198.502 430.079C191.978 422.277 188.43 415.292 183.979 401.563C181.105 392.703 176.031 379.165 175.001 377.623C174.874 377.432 163.301 384.15 149.287 392.55C135.273 400.951 122.314 408.191 120.496 408.65C118.677 409.109 117.189 410.244 117.189 411.174C117.189 412.092 115.612 414.093 113.692 415.623C110.831 417.892 109.101 418.262 104.205 417.688C98.3681 417.012 97.9612 417.191 86.4014 426.038C79.903 431.009 71.7005 437.549 68.1652 440.557C59.6702 447.823 56.2493 449.072 51.544 446.625C47.996 444.776 47.7671 444.84 44.4225 448.856C36.1183 458.799 22.8036 490.272 16.4323 515.015C13.3294 527.061 12.6299 532.505 12.4646 545.609C12.223 566.222 13.8889 572.914 21.4174 581.302C28.399 589.09 38.153 593.909 63.7778 602.22C73.926 605.509 89.0847 611.577 97.4779 615.694C120.597 627.027 132.742 638.296 141.085 656.155C144.251 662.936 144.531 664.798 144.531 679.457C144.531 698.247 142.687 705.169 131.776 727.26C119.86 751.417 99.8306 775.471 74.867 795.612C63.2564 804.981 58.691 807.454 58.691 804.382C58.691 803.681 59.2633 803.108 59.9627 803.108C60.6621 803.108 65.5709 798.965 70.8866 793.917C81.6452 783.655 93.0905 768.932 107.308 747.019C129.919 712.154 135.286 699.777 135.438 682.007C135.527 672.446 135.069 670.203 131.623 662.885C121.271 640.934 99.767 627.04 49.8145 610.035C22.511 600.729 16.2797 597.644 10.4299 590.544C2.58349 581.009 0.866688 574.061 0.892122 551.983C0.90484 533.958 1.26091 530.86 4.92342 516.749C12.2866 488.411 25.6267 456.644 35.9021 443.005C40.4548 436.962 41.1161 435.394 39.8443 433.635C33.8419 425.273 34.6304 423.157 47.6526 412.729C52.6758 408.701 60.9292 401.524 66.0033 396.77C74.8289 388.496 75.2231 387.897 75.2231 382.339C75.2231 374.576 79.6359 370.166 88.4107 369.108C91.8315 368.7 95.2651 367.986 96.0409 367.527C96.8293 367.055 111.492 356.271 128.635 343.549C145.777 330.827 163.365 318.003 167.739 315.046C174.874 310.24 175.688 309.245 175.688 305.37C175.688 301.928 176.654 300.246 180.456 297.097C183.076 294.93 186.65 292.508 188.405 291.73L191.584 290.315V268.505C191.584 245.738 193.873 223.634 196.849 217.744C199.392 212.671 208.561 206.922 218.353 204.232L226.95 201.874L228.705 194.99C230.689 187.214 235.038 179.183 239.463 175.091C247.195 167.965 261.121 164.179 265.05 168.118C267.683 170.757 269.209 169.623 273.965 161.592C285.792 141.578 290.204 135.408 296.296 130.411C305.16 123.133 311.734 121.424 319.771 124.318C323.129 125.529 325.99 126.307 326.13 126.052C326.239 125.853 327.192 123.963 328.433 121.501L328.444 121.479L328.468 121.432C328.807 120.758 329.168 120.043 329.538 119.308C333.099 112.208 340.297 106.905 350.547 103.82C360.517 100.812 393.289 96.3374 397.511 97.3954C402.559 98.6702 410.775 107.147 411.754 112.093C412.199 114.311 412.949 115.956 413.432 115.752C415.95 114.681 449.002 91.0217 449.053 90.2568C449.078 89.7597 451.787 84.4567 455.055 78.4654C462.088 65.5905 474.817 48.305 489.798 31.2743C499.934 19.7506 501.421 18.5906 513.592 12.6503C561.675 -10.8305 601.199 -0.428593 621.979 41.2046C629.876 57.0115 633.5 70.7277 633.5 84.7882C633.5 105.872 624.217 129.073 609.999 143.465C602.356 151.215 598.656 153.701 579.453 163.95C569.877 169.074 569.47 169.457 572.459 170.604C579.148 173.154 583.879 182.561 581.17 187.89C579.161 191.829 576.77 193.651 550.84 210.937C516.186 234.048 513.604 237.031 470.455 303.624C457.115 324.211 446.636 336.589 420.452 362.683C407.087 376.004 393.187 390.918 389.575 395.826C374.963 415.649 369.33 431.965 370.868 450.003C372.929 474.045 385.735 549.522 393.314 582.398C403.691 627.333 427.052 709.516 449.612 780.417C458.412 808.054 458.756 809.481 456.785 809.481C456.111 809.481 451.863 797.868 447.361 783.668ZM99.945 393.353C93.2813 386.482 87.4951 381.192 87.0754 381.6C84.2522 384.443 97.7704 400.313 106.354 404.214C109.127 405.476 111.543 406.368 111.721 406.19C111.899 406.011 106.596 400.237 99.945 393.353ZM223.974 349.4L233.474 344.518L228.005 343.587C224.635 343.026 220.782 341.127 217.959 338.654C211.27 332.777 198.883 313.197 196.569 304.848C193.58 294.012 193.186 293.349 192.334 297.607C191.838 300.067 189.6 302.872 185.861 305.714C182.707 308.111 179.961 310.533 179.744 311.094C179.032 312.968 188.214 329.794 194.789 338.641C202.52 349.069 208.345 354.422 211.88 354.333C213.305 354.295 218.747 352.077 223.974 349.4ZM256.695 331.209L262.036 327.602L254.152 315.823L246.267 304.044L245.44 315.097C244.525 327.423 242.732 334.103 238.84 339.661L236.208 343.409L243.787 339.126C247.946 336.767 253.757 333.211 256.695 331.209ZM232.66 338.845C234.898 336.602 234.567 320.986 232.164 314.956C231.045 312.165 229.112 309.551 227.878 309.156C224.724 308.162 219.345 310.444 217.73 313.465C214.614 319.303 217.171 330.776 222.88 336.5C226.975 340.604 230.155 341.356 232.66 338.845ZM241.981 318.959C243.52 306.976 241.714 296.74 236.081 285.548C229.01 271.449 227.586 263.673 226.708 233.933L225.92 207.164L222.944 206.743C218.468 206.106 207.086 211.243 202.533 215.947C198.858 219.746 198.349 221.301 196.683 234.035C192.995 262.029 192.843 274.7 196.035 289.436C199.901 307.282 201.312 310.954 208.256 321.33C211.511 326.2 214.296 330.177 214.436 330.177C214.564 330.177 214.424 327.054 214.106 323.229C213.788 319.405 213.902 314.816 214.335 313.044C215.339 309.08 221.545 305.676 226.823 306.199C232.711 306.785 235.559 311.617 237.174 323.727C238.764 335.671 239.998 334.447 241.981 318.959ZM280.361 324.058C284.99 319.214 285.003 312.177 280.387 305.039C278.517 302.158 275.796 299.277 274.346 298.627C271.103 297.199 261.795 299.379 258.971 302.222C254.482 306.747 266.691 327.627 273.838 327.627C275.58 327.627 278.441 326.059 280.361 324.058ZM292.951 305.625C294.376 298.805 294.198 297.429 289.759 281.265C287.165 271.844 285.054 261.927 285.054 259.224C285.054 255.872 282.371 248.402 276.661 235.846C264.516 209.178 262.837 198.457 267.988 180.496C268.98 177.042 269.641 174.11 269.476 173.969C267.326 172.198 260.294 169.559 257.725 169.559C248.671 169.559 236.068 181.261 232.342 193.116C230.498 198.98 230.155 204.78 230.294 227.687C230.523 266.159 232.406 274.266 246.153 295.72C253.452 307.117 253.923 307.588 254.533 304.083C255.322 299.494 260.726 296.077 268.98 294.943C274.74 294.152 275.109 294.305 279.993 299.455C283.21 302.846 285.563 306.874 286.491 310.558C287.725 315.466 288.221 316.078 289.696 314.599C290.649 313.643 292.125 309.602 292.951 305.625ZM189.676 296.74C189.676 294.624 188.964 294.841 183.954 298.448C180.635 300.832 178.231 303.573 178.231 304.975C178.231 307.091 178.943 306.874 183.954 303.267C187.273 300.883 189.676 298.142 189.676 296.74ZM334.93 282.858C355.405 270.85 389.626 250.837 410.953 238.395C432.279 225.954 452.029 214.417 454.826 212.773C457.624 211.128 462.889 207.368 466.539 204.41C470.176 201.466 479.472 195.525 487.191 191.204C489.086 190.146 490.808 189.201 492.368 188.346C500.188 184.056 503.902 182.019 504.599 179.229C505.229 176.705 503.391 173.565 499.892 167.585C499.119 166.265 498.265 164.806 497.339 163.185C487.484 145.938 475.873 127.53 467.213 115.382C464.211 111.175 459.443 104.419 456.632 100.366L451.507 92.9976L448.074 95.4196L447.553 95.7863C444.918 97.6422 436.865 103.315 428.756 109.021C420.007 115.165 409.579 123.235 405.573 126.944C401.567 130.641 394.319 135.587 389.473 137.92C380.902 142.024 380.572 142.368 377.774 149.8C368.656 174.008 363.378 181.962 352.441 187.928C346.833 190.987 344.951 191.395 339.318 190.745C332.832 189.993 332.705 190.044 329.792 194.646L326.855 199.311L329.576 219.019C332.972 243.545 332.425 248.797 325.659 257.325C317.495 267.612 305.617 275.133 300.251 273.438C298.928 273.004 295.889 270.378 293.498 267.574L289.162 262.501L290.777 269.881C291.68 273.948 293.307 280.717 294.414 284.923C295.52 289.13 296.576 295.3 296.779 298.627C296.97 301.954 297.262 304.682 297.415 304.682C297.568 304.682 314.456 294.854 334.93 282.858ZM310.132 264.821C314.939 260.435 316.02 254.865 313.782 246.082C312.688 241.85 310.857 236.929 309.7 235.157C307.716 232.111 307.156 231.983 299.818 232.761C290.891 233.704 286.326 236.062 286.326 239.734C286.326 247.42 296.22 268.415 300.302 269.371C302.693 269.932 306.431 268.199 310.132 264.821ZM384.921 259.926C389.105 258.434 396.849 255.948 402.152 254.393C413.369 251.104 419.689 247.063 436.717 232.289C450.375 220.459 453.097 217.413 446.471 221.415C444.068 222.869 427.51 232.518 409.681 242.857C391.852 253.208 377.011 261.889 376.718 262.144C375.701 263.049 377.405 262.59 384.921 259.926ZM326.537 250.225C328.788 244.973 328.737 234.545 326.384 219.274C323.726 201.95 323.892 195.984 327.122 193.052C329.068 191.293 329.602 189.611 329.157 186.793C328.954 185.544 328.459 182.533 327.862 178.903C327.448 176.383 326.985 173.566 326.537 170.834C325.431 164.179 324.515 152.286 324.502 144.434C324.477 128.168 324.057 127.492 314.074 127.492C307.563 127.505 302.883 130.118 295.622 137.792C288.119 145.759 285.931 148.742 280.73 158.239C270.747 176.43 266.665 194.99 269.603 208.732C270.366 212.301 273.723 221.441 277.068 229.038C282.472 241.34 283.185 242.398 283.541 238.688C283.795 236.101 285.003 233.844 286.72 232.748C289.912 230.721 305.935 227.993 308.631 229.026C309.611 229.408 312.014 232.965 313.947 236.929C316.745 242.627 317.482 245.916 317.482 252.66V261.2L321.132 257.758C323.141 255.872 325.583 252.481 326.537 250.225ZM344.315 181.809C351.602 178.406 352.454 177.003 352.454 168.335C352.454 160.189 349.415 152.006 344.519 146.932C339.635 141.884 336.698 141.693 333.722 146.244C329.538 152.643 331.687 184.881 336.291 184.843C337.13 184.83 340.742 183.466 344.315 181.809ZM358.355 179.553C363.95 174.161 368.376 165.48 374.684 147.531C377.672 139.016 380.851 131.814 381.729 131.52C382.899 131.125 383.09 131.954 382.441 134.529L381.564 138.085L385.124 135.778C396.608 128.385 409.681 118.136 409.681 116.517C409.681 113.19 404.645 104.636 401.453 102.533C397.46 99.9194 390.847 99.9194 373.437 102.507C353.942 105.414 343.896 108.651 337.601 114.056C330.67 119.997 328.177 127.25 327.516 143.426C327.008 155.881 327.046 156.046 328.813 150.654C331.179 143.477 334.205 140.24 338.567 140.24C346.719 140.24 354.451 152.49 355.862 167.634C356.625 175.767 356.587 175.869 351.984 180.483C347.367 185.111 347.355 185.136 350.852 184.269C352.785 183.798 356.155 181.669 358.355 179.553ZM594.167 150.96C597.727 146.677 595.883 140.558 586.257 124.573C572.306 101.436 560.339 83.9086 538.11 54.1178C512.74 20.1076 509.37 17.1374 502.464 22.7463C500.315 24.4927 499.794 25.8694 500.417 28.164C500.862 29.8594 508.721 41.2938 517.865 53.5569C527.021 65.82 546.045 93.2143 560.161 114.413C582.912 148.615 586.193 152.962 589.156 152.974C590.987 152.987 593.251 152.082 594.167 150.96ZM613.191 135.243C624.395 120.303 630.08 103.298 630.067 84.7882C630.041 47.6548 605.943 12.0767 576.134 5.19303C566.749 3.02597 550.98 3.61235 539.318 6.55701C528.483 9.28497 511.417 16.1814 511.417 17.813C511.417 18.3102 512.918 19.5084 514.749 20.5027C520.751 23.7151 560.695 77.7516 581.043 110.168C595.642 133.432 599.164 140.278 599.164 145.39V149.354L603.704 145.594C606.197 143.528 610.47 138.876 613.191 135.243ZM522.57 176.493L528.992 175.639L517.458 160.164C511.112 151.661 499.845 135.523 492.418 124.305C481.812 108.295 467.492 87.8221 463.474 82.9398L461.167 80.0261L459.277 77.6391C458.351 79.7594 456.4 84.4 456 86L453.796 91.6081L462.075 102.851C477.602 123.936 502.858 163.963 507.182 174.339C508.81 178.24 509.459 178.686 512.587 178.061C514.545 177.666 519.035 176.952 522.57 176.493ZM583.65 158.634C578.232 162.433 562.12 168.412 550.458 170.948C544.023 172.35 537.309 173.804 535.529 174.186C532.604 174.798 531.116 173.281 520.154 158.507C513.477 149.52 501.663 132.553 493.893 120.812C486.136 109.072 477.259 96.1589 474.182 92.1307C471.091 88.0898 467.887 83.5007 467.06 81.92C466.66 81.1616 466.227 80.5608 465.76 80.1175L461.349 74C467.07 64.2367 474.231 54.4963 486.021 40.4015L496.487 27.8708L499.26 32.753C500.786 35.43 508.657 46.5076 516.745 57.3811C524.833 68.2547 542.726 94.0683 556.499 114.745C570.271 135.421 582.658 153.319 584.019 154.491C586.473 156.607 586.473 156.658 583.65 158.634Z" fill="#F9F5E9"/>
</svg>
