<svg width="35" height="35" viewBox="0 0 35 35" fill="none" xmlns="http://www.w3.org/2000/svg">
<g clip-path="url(#clip0_460_11138)">
<path fill-rule="evenodd" clip-rule="evenodd" d="M35 17.5C35 27.165 27.165 35 17.5 35C7.83502 35 0 27.165 0 17.5C0 7.83502 7.83502 0 17.5 0C27.165 0 35 7.83502 35 17.5ZM18.1271 12.9193C16.425 13.6273 13.0231 15.0926 7.92149 17.3153C7.09307 17.6447 6.65911 17.967 6.6196 18.2821C6.54375 18.8871 7.41478 19.0755 8.51072 19.4317C9.40424 19.7222 10.6062 20.062 11.231 20.0755C11.7978 20.0877 12.4304 19.854 13.1288 19.3745C17.8954 16.1569 20.356 14.5306 20.5104 14.4955C20.6194 14.4708 20.7704 14.4397 20.8728 14.5306C20.9751 14.6216 20.965 14.7938 20.9542 14.84C20.8675 15.2095 16.3899 19.2822 16.1322 19.5499C15.1475 20.5726 14.0275 21.1984 15.7553 22.337C17.2503 23.3222 18.1204 23.9507 19.6607 24.9604C20.645 25.6056 21.4167 26.3707 22.4329 26.2772C22.9005 26.2341 23.3836 25.7944 23.6289 24.483C24.2086 21.3838 25.3482 14.6686 25.6116 11.9014C25.6346 11.659 25.6056 11.3487 25.5823 11.2125C25.559 11.0763 25.5103 10.8822 25.3332 10.7386C25.1236 10.5685 24.7999 10.5326 24.6551 10.5351C23.9969 10.5467 22.987 10.8979 18.1271 12.9193Z" fill="#E35800"/>
</g>
<defs>
<clipPath id="clip0_460_11138">
<rect width="35" height="35" fill="white"/>
</clipPath>
</defs>
</svg>
