<svg width="86" height="86" viewBox="0 0 86 86" fill="none" xmlns="http://www.w3.org/2000/svg">
<rect x="0.86" y="0.86" width="84.28" height="84.28" rx="16.34" stroke="white" stroke-width="1.72"/>
<path d="M66.5339 12.2193C64.9732 12.5838 64.7554 12.7719 57.6896 19.9203C54.0841 23.5651 51.0714 26.5632 51.0109 26.5867C50.9383 26.6102 44.4775 24.5644 36.6373 22.0366C28.7972 19.5206 21.8523 17.2749 21.199 17.0751L20.0133 16.6871L16.7828 19.8263C14.726 21.825 13.6008 23.0007 13.6734 23.0713C13.746 23.13 19.5172 26.5984 26.4983 30.784C33.4916 34.9578 39.2144 38.4144 39.2386 38.4615C39.2749 38.579 26.4499 51.5825 26.2564 51.6296C26.1838 51.6413 24.2721 51.3709 22.0217 51.0064L17.9081 50.3598L14.9801 53.205L12.04 56.062L18.1984 58.1666L24.3568 60.2594L26.5104 66.2438L28.6641 72.24L31.6162 69.3712L34.5563 66.5142L33.8787 62.5873C33.5037 60.424 33.2133 58.5781 33.2375 58.4723C33.2738 58.2489 46.6432 45.751 46.7884 45.798C46.8368 45.8215 50.3939 51.3827 54.689 58.1783C58.9963 64.9623 62.5655 70.5705 62.626 70.641C62.6986 70.7116 63.8964 69.6299 65.9653 67.6194L69.1836 64.492L64.0899 49.5015C61.283 41.2597 58.9842 34.4758 58.9842 34.417C58.9842 34.3582 62.0452 31.4542 65.7717 27.974C70.5992 23.471 72.7044 21.4252 73.0311 20.9314C74.9306 18.0862 73.8054 14.171 70.6718 12.6779C69.3046 12.0195 68.01 11.8784 66.5339 12.2193Z" fill="white"/>
</svg>
