<svg width="35" height="36" viewBox="0 0 35 36" fill="none" xmlns="http://www.w3.org/2000/svg">
<g clip-path="url(#clip0_511_7241)">
<path d="M17.5018 0.638672C27.0903 0.638672 34.8629 8.41124 34.8629 17.9998C34.8629 27.5883 27.0903 35.3609 17.5018 35.3609C14.4337 35.3658 11.4196 34.5539 8.76912 33.0085L0.147594 35.3609L2.49482 26.7359C0.948103 24.0846 0.135524 21.0692 0.140649 17.9998C0.140649 8.41124 7.91322 0.638672 17.5018 0.638672ZM11.5851 9.84006L11.2379 9.85395C11.0131 9.86764 10.7934 9.92669 10.592 10.0276C10.4037 10.1342 10.2318 10.2675 10.0816 10.4234C9.87329 10.6196 9.75523 10.7897 9.6285 10.9546C8.98635 11.7895 8.6406 12.8146 8.64586 13.8678C8.64933 14.7185 8.87155 15.5467 9.21877 16.321C9.92884 17.8869 11.0972 19.5449 12.6389 21.0814C13.0104 21.4512 13.375 21.8227 13.7674 22.1682C15.683 23.8548 17.9657 25.071 20.434 25.7203L21.4202 25.8713C21.7413 25.8887 22.0625 25.8644 22.3854 25.8487C22.8911 25.8226 23.3848 25.6857 23.8316 25.4477C24.059 25.3306 24.2808 25.2031 24.4966 25.0658C24.4966 25.0658 24.5712 25.0171 24.7136 24.9095C24.9479 24.7359 25.092 24.6126 25.2865 24.4095C25.4306 24.2602 25.5556 24.0849 25.6511 23.8852C25.7865 23.6022 25.9219 23.0623 25.9775 22.6126C26.0191 22.2689 26.007 22.0814 26.0018 21.9651C25.9948 21.7793 25.8403 21.5866 25.6719 21.505L24.6615 21.0519C24.6615 21.0519 23.1511 20.3939 22.2275 19.9737C22.1308 19.9315 22.0272 19.9074 21.9219 19.9026C21.8031 19.8904 21.6831 19.9037 21.5699 19.9418C21.4567 19.9798 21.353 20.0416 21.2656 20.123C21.257 20.1196 21.1406 20.2185 19.8854 21.7394C19.8134 21.8362 19.7142 21.9093 19.6004 21.9495C19.4866 21.9897 19.3634 21.9951 19.2465 21.9651C19.1335 21.9347 19.0226 21.8964 18.915 21.8505C18.6997 21.7602 18.625 21.7255 18.4775 21.663C17.481 21.2282 16.5585 20.6407 15.7431 19.9217C15.5243 19.7307 15.3212 19.5224 15.1129 19.321C14.4299 18.6668 13.8346 17.9269 13.342 17.1196L13.2396 16.9546C13.166 16.8438 13.1066 16.7243 13.0625 16.5987C12.9966 16.3435 13.1684 16.1387 13.1684 16.1387C13.1684 16.1387 13.5903 15.6769 13.7865 15.4269C13.9775 15.1838 14.1389 14.9477 14.2431 14.7793C14.4479 14.4494 14.5122 14.1109 14.4045 13.8487C13.9184 12.6612 13.415 11.4789 12.8976 10.3053C12.7952 10.0727 12.4913 9.90603 12.2153 9.87305C12.1216 9.86263 12.0278 9.85221 11.9341 9.84527C11.7009 9.83369 11.4673 9.83601 11.2344 9.85221L11.5834 9.83832L11.5851 9.84006Z" fill="#E35800"/>
</g>
<defs>
<clipPath id="clip0_511_7241">
<rect width="35" height="35" fill="white" transform="translate(0 0.5)"/>
</clipPath>
</defs>
</svg>
