<svg width="48" height="33" viewBox="0 0 48 33" fill="none" xmlns="http://www.w3.org/2000/svg">
<path fill-rule="evenodd" clip-rule="evenodd" d="M44.4986 2.51496C45.2279 3.24635 45.7516 4.15579 46.0173 5.15226C47 8.83016 47 16.5 47 16.5C47 16.5 47 24.1698 46.0173 27.8477C45.7516 28.8442 45.2279 29.7536 44.4986 30.485C43.7694 31.2164 42.8602 31.7441 41.862 32.0153C38.1875 33 23.5 33 23.5 33C23.5 33 8.8125 33 5.13795 32.0153C4.13978 31.7441 3.23058 31.2164 2.50135 30.485C1.77213 29.7536 1.24845 28.8442 0.982727 27.8477C1.16726e-07 24.1698 0 16.5 0 16.5C0 16.5 1.16726e-07 8.83016 0.982727 5.15226C1.24845 4.15579 1.77213 3.24635 2.50135 2.51496C3.23058 1.78356 4.13978 1.25586 5.13795 0.984678C8.8125 1.16325e-07 23.5 0 23.5 0C23.5 0 38.1875 1.16325e-07 41.862 0.984678C42.8602 1.25586 43.7694 1.78356 44.4986 2.51496ZM30.9774 16.5L18.6933 9.53543V23.4646L30.9774 16.5Z" fill="#E35800"/>
</svg>
