<?xml version="1.0" standalone="no"?>
<!DOCTYPE svg PUBLIC "-//W3C//DTD SVG 20010904//EN"
 "http://www.w3.org/TR/2001/REC-SVG-20010904/DTD/svg10.dtd">
<svg version="1.0" xmlns="http://www.w3.org/2000/svg"
 width="260.000000pt" height="260.000000pt" viewBox="0 0 260.000000 260.000000"
 preserveAspectRatio="xMidYMid meet">
<metadata>
Created by potrace 1.14, written by Peter Selinger 2001-2017
</metadata>
<g transform="translate(0.000000,260.000000) scale(0.100000,-0.100000)"
fill="#000000" stroke="none">
<path d="M0 1300 l0 -1300 1300 0 1300 0 0 1300 0 1300 -1300 0 -1300 0 0
-1300z m1483 484 c46 -8 47 -25 5 -56 -25 -17 -50 -24 -105 -26 -65 -4 -279
10 -394 24 l-46 6 -40 -78 c-36 -69 -103 -241 -103 -263 0 -5 33 -11 74 -15
162 -15 287 -66 360 -147 71 -79 79 -142 30 -239 -66 -131 -235 -204 -395
-171 -145 30 -213 136 -188 291 14 87 59 225 145 439 41 101 72 187 69 189 -3
3 -65 6 -138 6 -100 1 -146 -4 -192 -18 -166 -50 -260 -151 -227 -245 9 -25 7
-32 -11 -49 -12 -11 -34 -23 -49 -27 -34 -9 -42 13 -28 85 19 101 72 161 195
222 76 38 176 60 315 68 160 9 673 12 723 4z m557 -4 c86 -14 230 -58 230 -71
0 -17 -50 -109 -60 -109 -5 0 -23 20 -40 44 -55 76 -132 106 -215 81 -170 -49
-329 -312 -311 -512 9 -102 47 -153 133 -176 65 -17 56 -57 -13 -57 -36 0 -76
23 -112 65 -117 132 -56 417 133 624 l40 45 -35 -20 c-19 -10 -69 -53 -111
-94 -90 -89 -141 -182 -166 -305 -29 -142 11 -299 92 -361 48 -36 146 -58 230
-50 63 6 184 33 226 51 10 3 20 2 24 -4 9 -16 -81 -69 -160 -94 -99 -31 -275
-30 -357 2 -71 27 -150 98 -172 151 -54 134 -6 332 128 535 94 140 202 222
329 250 78 17 105 17 187 5z m-1206 -63 c18 -13 16 -21 -38 -146 -108 -252
-196 -541 -196 -643 0 -42 3 -48 25 -54 14 -3 25 -10 25 -14 0 -9 -169 -25
-177 -16 -10 9 26 183 59 285 25 79 207 522 239 584 11 20 38 22 63 4z"/>
<path d="M785 1330 c-12 -20 -45 -144 -56 -210 -15 -96 -4 -154 38 -201 82
-91 254 -90 337 1 104 116 90 276 -31 347 -88 51 -271 91 -288 63z"/>
</g>
</svg>
